<?xml version="1.0" standalone="no"?>
<!DOCTYPE svg PUBLIC "-//W3C//DTD SVG 20010904//EN"
 "http://www.w3.org/TR/2001/REC-SVG-20010904/DTD/svg10.dtd">
<svg version="1.0" xmlns="http://www.w3.org/2000/svg"
 width="518.000000pt" height="518.000000pt" viewBox="0 0 518.000000 518.000000"
 preserveAspectRatio="xMidYMid meet">
<metadata>
Created by potrace 1.14, written by Peter Selinger 2001-2017
</metadata>
<g transform="translate(0.000000,518.000000) scale(0.100000,-0.100000)"
fill="#000000" stroke="none">
<path d="M2609 5133 c-10 -11 -10 -14 -1 -9 6 4 12 3 12 -2 0 -6 -7 -12 -15
-16 -8 -3 -14 0 -12 6 1 6 -4 13 -12 16 -9 3 -11 0 -6 -9 6 -11 5 -12 -6 -1
-16 15 -29 16 -29 1 0 -5 5 -7 12 -3 7 5 8 3 3 -6 -6 -10 -12 -7 -26 11 -10
13 -21 20 -25 16 -4 -4 -2 -7 4 -7 7 0 12 -5 12 -11 0 -5 -4 -8 -9 -4 -5 3
-12 -3 -14 -12 -4 -14 -5 -12 -6 5 -1 25 -25 27 -50 3 -12 -11 -16 -11 -25 0
-15 19 -41 17 -66 -4 -22 -18 -28 -9 -7 12 10 11 9 13 -6 7 -10 -3 -21 -6 -23
-6 -3 0 -2 -4 1 -10 3 -6 -1 -7 -9 -4 -9 3 -13 10 -10 15 3 5 -2 6 -10 3 -8
-3 -12 -13 -9 -22 4 -13 3 -14 -5 -3 -5 7 -14 11 -20 7 -6 -3 -14 -1 -18 5 -5
8 -3 9 6 4 9 -5 11 -4 6 4 -11 16 -28 2 -22 -18 6 -15 5 -15 -7 1 -12 15 -14
15 -25 0 -7 -9 -10 -11 -7 -4 5 10 -8 17 -18 10 -2 -2 -12 4 -22 12 -18 15
-18 14 0 -13 15 -24 16 -27 1 -21 -9 3 -16 11 -16 18 0 6 -4 4 -10 -4 -5 -9
-5 -17 1 -21 6 -3 4 -11 -5 -18 -11 -9 -16 -9 -22 0 -4 8 -3 9 4 5 7 -4 12 -3
12 2 0 18 -14 21 -30 7 -16 -14 -19 -14 -34 0 -14 14 -16 14 -16 1 0 -8 -5
-18 -12 -22 -7 -4 -8 -3 -4 4 10 16 -7 15 -23 0 -11 -11 -14 -10 -18 0 -3 8
-11 5 -24 -10 -11 -13 -18 -17 -17 -9 2 8 -7 14 -20 16 -15 1 -21 -3 -18 -11
3 -7 0 -16 -6 -20 -7 -4 -8 -3 -4 4 4 7 2 12 -4 12 -6 0 -9 4 -5 9 3 5 1 12
-4 15 -5 4 -7 -7 -4 -25 4 -27 3 -29 -10 -18 -8 8 -13 18 -10 22 3 5 -4 3 -16
-4 -14 -10 -17 -15 -8 -21 9 -5 9 -10 -2 -20 -8 -7 -11 -8 -8 -3 3 6 -3 17
-14 23 -19 12 -19 11 -9 -8 13 -25 2 -27 -16 -2 -10 13 -12 14 -11 2 2 -8 7
-22 12 -30 8 -13 7 -13 -9 -1 -15 13 -19 13 -28 0 -8 -11 -9 -11 -5 3 3 9 -1
19 -9 22 -9 3 -12 1 -9 -4 3 -6 2 -10 -3 -10 -5 0 -15 -14 -22 -30 -7 -17 -15
-29 -17 -26 -3 2 1 15 8 28 6 12 8 20 4 16 -5 -4 -15 -2 -24 5 -14 11 -14 10
-2 -5 15 -21 2 -24 -19 -5 -8 6 -7 3 3 -9 20 -25 11 -40 -12 -20 -12 11 -21
12 -31 5 -13 -9 -12 -10 2 -6 9 3 19 0 21 -7 3 -8 -3 -12 -16 -10 -12 1 -22 3
-22 4 0 1 -10 3 -22 4 -19 2 -21 0 -11 -18 10 -19 9 -19 -4 -8 -12 10 -18 10
-23 1 -6 -8 -10 -7 -16 2 -6 10 -9 10 -9 2 0 -19 21 -27 31 -12 6 9 9 10 9 2
0 -6 -5 -15 -10 -18 -6 -4 -7 -12 -4 -18 4 -7 -3 -2 -15 11 -25 26 -40 30 -20
5 13 -15 12 -15 -11 -3 -24 13 -24 12 -10 -5 14 -17 14 -17 -6 -7 -24 13 -49
0 -41 -21 4 -11 1 -14 -8 -10 -8 3 -12 10 -8 16 3 6 1 7 -5 3 -7 -4 -12 -14
-12 -22 0 -8 -7 -14 -16 -14 -9 0 -12 -5 -8 -12 4 -6 3 -8 -4 -4 -5 3 -13 0
-16 -6 -3 -7 -3 -2 0 12 6 23 6 23 -10 7 -10 -9 -15 -21 -12 -25 3 -5 -1 -9
-8 -9 -8 0 -12 7 -8 15 4 11 1 13 -7 8 -7 -5 -11 -17 -8 -27 3 -10 0 -22 -5
-26 -7 -3 -8 -1 -4 5 6 10 -19 11 -44 2 -3 -2 -8 -2 -11 -2 -3 1 -5 -10 -3
-23 1 -14 -2 -27 -6 -30 -5 -3 -7 3 -5 14 2 11 -4 26 -13 33 -16 12 -16 11 -2
-6 14 -18 13 -19 -5 -12 -15 5 -17 4 -8 -4 16 -17 -15 -54 -33 -39 -8 7 -15 6
-20 -2 -5 -8 -3 -9 6 -4 9 6 11 4 6 -4 -5 -7 -15 -10 -23 -7 -8 3 -11 1 -8 -4
3 -6 2 -10 -4 -10 -6 0 -8 -6 -5 -13 3 -8 -2 -14 -11 -14 -9 0 -14 6 -11 14 4
8 1 11 -5 7 -6 -3 -9 -14 -6 -24 3 -14 1 -17 -11 -13 -11 5 -13 2 -8 -8 4 -8
0 -5 -8 5 -15 19 -16 18 -17 -15 0 -19 -3 -28 -6 -21 -2 6 -12 12 -21 12 -15
0 -15 -2 -2 -10 12 -8 10 -10 -10 -11 -14 -1 -28 -1 -33 0 -10 1 -9 -7 4 -30
10 -19 9 -20 -10 -9 -17 8 -21 8 -19 -2 2 -7 -5 -13 -16 -13 -17 0 -45 -45
-28 -45 4 0 -1 -5 -11 -11 -9 -5 -22 -7 -29 -3 -8 5 -9 2 -5 -9 3 -10 2 -17
-3 -17 -6 0 -10 5 -10 12 0 6 -3 8 -6 5 -4 -4 -1 -14 7 -24 12 -14 12 -16 0
-8 -11 6 -13 4 -8 -8 4 -10 2 -16 -6 -14 -7 1 -11 -4 -9 -11 1 -8 -2 -11 -8
-7 -8 5 -7 11 1 21 7 8 7 14 1 14 -5 0 -13 -7 -16 -16 -3 -8 -9 -13 -14 -10
-4 2 -14 0 -22 -6 -13 -8 -12 -9 1 -5 12 4 17 -1 17 -18 0 -17 -5 -22 -19 -20
-12 3 -19 -2 -19 -12 0 -9 -6 -13 -15 -9 -15 5 -21 -16 -15 -53 1 -11 -2 -10
-15 3 -19 18 -30 21 -20 5 9 -13 -30 -51 -41 -41 -5 4 -2 -1 6 -11 11 -16 11
-18 -1 -15 -8 2 -17 8 -21 13 -5 6 -8 5 -8 -2 0 -14 34 -35 44 -28 3 3 4 2 1
-2 -8 -10 -35 -13 -35 -4 0 4 -7 8 -15 8 -20 0 -19 -16 0 -24 13 -5 12 -8 -5
-20 -12 -8 -19 -21 -16 -29 3 -8 0 -11 -10 -7 -13 5 -11 10 7 29 12 13 18 24
13 24 -15 -1 -45 -48 -34 -55 5 -3 10 -11 10 -16 0 -6 -7 -3 -16 5 -20 20 -38
21 -31 1 4 -8 1 -17 -5 -21 -7 -5 -5 -12 8 -22 18 -14 18 -14 -3 -9 -23 5 -28
-5 -24 -42 2 -7 -2 -10 -8 -6 -6 3 -16 3 -23 -1 -7 -5 -5 -12 8 -22 18 -14 18
-14 -3 -8 -24 8 -32 -1 -35 -37 -2 -20 -6 -24 -18 -17 -12 6 -17 5 -17 -6 0
-7 4 -14 9 -14 4 0 8 -5 8 -11 0 -6 -8 -8 -17 -5 -15 5 -14 3 2 -10 19 -15 19
-15 1 -12 -10 2 -21 -3 -24 -11 -2 -8 -1 -11 4 -8 5 3 9 -5 9 -18 0 -13 -3
-21 -7 -18 -5 2 -8 10 -8 18 0 8 -4 16 -9 19 -5 4 -8 -5 -6 -19 2 -20 0 -23
-12 -14 -11 10 -12 8 -7 -6 6 -14 4 -16 -6 -10 -10 6 -11 4 -4 -6 13 -22 12
-55 -3 -57 -7 -1 -20 -3 -28 -4 -8 -1 -12 -5 -9 -10 3 -5 10 -6 15 -3 5 4 9 1
9 -4 0 -6 -10 -11 -22 -12 -13 0 -17 -3 -10 -6 8 -3 9 -9 4 -16 -5 -7 -12 -20
-15 -29 -5 -13 -2 -15 11 -11 15 6 15 5 -1 -11 -9 -10 -14 -22 -11 -28 4 -6
-3 -5 -16 2 -12 6 -24 9 -28 6 -3 -3 -1 -6 4 -6 6 0 10 -11 10 -24 0 -14 -5
-22 -12 -19 -7 2 -15 -1 -20 -8 -4 -7 -3 -10 3 -6 6 4 16 0 23 -8 11 -13 10
-14 -6 -8 -17 6 -17 5 -5 -10 12 -16 12 -17 -5 -11 -18 7 -18 7 -1 -13 14 -16
14 -20 2 -20 -8 0 -11 5 -8 11 3 6 0 5 -8 -2 -12 -11 -12 -14 1 -22 13 -8 13
-11 1 -22 -8 -7 -11 -8 -8 -2 3 6 0 11 -7 11 -8 0 -12 -6 -9 -13 2 -7 -3 -24
-12 -38 -15 -22 -15 -29 -4 -43 12 -15 12 -16 -3 -11 -11 5 -15 2 -13 -10 2
-9 4 -23 4 -30 1 -8 6 -10 14 -6 7 5 7 1 -3 -12 -22 -29 -24 -30 -17 -12 4 12
2 15 -8 11 -11 -4 -12 -10 -5 -23 7 -14 5 -20 -8 -26 -9 -4 -20 -7 -24 -6 -4
1 -5 -5 -1 -13 5 -13 7 -13 19 2 12 17 13 16 9 -6 -3 -14 -10 -29 -16 -35 -9
-8 -10 -7 -4 3 5 9 4 12 -3 8 -5 -4 -8 -17 -4 -29 3 -14 1 -19 -6 -14 -7 4 -8
-2 -3 -21 4 -16 6 -34 3 -42 -2 -7 2 -18 9 -23 11 -8 10 -9 -3 -4 -10 3 -20 1
-23 -5 -4 -5 -1 -8 7 -7 7 2 13 -4 13 -12 0 -8 3 -17 6 -20 3 -3 -3 -14 -14
-25 -11 -11 -17 -14 -13 -8 5 9 2 11 -10 6 -13 -5 -15 -3 -9 8 6 11 5 12 -6 1
-7 -7 -14 -24 -15 -37 0 -14 2 -23 5 -19 3 3 6 11 6 17 0 7 12 12 27 12 19 1
24 -2 18 -10 -5 -6 -6 -16 -2 -21 4 -5 -1 0 -12 11 l-19 20 7 -22 c4 -13 2
-24 -5 -29 -8 -4 -9 -3 -5 4 4 7 2 10 -6 7 -15 -6 -20 -105 -5 -105 4 0 6 4 2
9 -3 5 -1 12 3 15 10 6 9 36 0 51 -3 6 6 11 20 11 15 1 21 -1 14 -3 -6 -3 -10
-9 -6 -14 3 -5 0 -9 -5 -9 -6 0 -11 -4 -11 -10 0 -5 6 -8 13 -6 6 1 9 1 5 -1
-5 -3 -8 -9 -8 -14 0 -6 5 -7 12 -3 7 4 8 3 4 -4 -4 -6 -13 -9 -21 -6 -8 4
-13 0 -11 -10 3 -19 16 -34 16 -18 0 7 4 12 8 12 5 0 9 -7 9 -15 0 -8 -3 -13
-5 -10 -3 3 -11 0 -18 -6 -8 -7 -14 -6 -20 2 -5 8 -3 9 6 4 9 -6 11 -4 6 4
-15 23 -21 0 -21 -75 0 -62 2 -73 15 -69 8 2 22 0 30 -5 13 -8 12 -10 -2 -10
-26 0 -22 -20 5 -21 20 -1 19 -2 -5 -11 -16 -5 -28 -14 -28 -19 0 -12 14 -11
27 2 8 8 13 7 18 -2 5 -7 4 -10 -3 -5 -6 3 -16 -2 -22 -13 -8 -16 -6 -22 7
-30 16 -9 16 -12 3 -21 -12 -8 -13 -11 -1 -19 11 -7 11 -9 0 -13 -12 -4 -12
-9 -1 -34 9 -19 10 -30 3 -32 -6 -2 -11 -8 -11 -13 0 -6 4 -8 8 -5 4 2 8 -10
8 -28 0 -29 -3 -32 -17 -23 -10 6 -17 13 -16 16 1 4 -2 7 -8 9 -5 1 -10 -20
-11 -48 0 -27 4 -50 9 -50 5 0 4 -6 -2 -14 -10 -12 -8 -13 9 -9 14 4 17 9 11
17 -5 6 -8 23 -6 39 2 17 -1 25 -7 21 -7 -4 -8 -2 -4 5 11 17 37 -6 29 -25 -3
-8 3 -21 13 -29 18 -13 18 -14 2 -20 -10 -4 -15 -11 -12 -16 3 -5 11 -6 17 -2
9 5 9 3 0 -8 -7 -9 -8 -20 -3 -29 4 -7 4 -24 -1 -37 -5 -15 -5 -22 0 -18 5 3
12 1 16 -5 3 -5 -1 -10 -9 -10 -8 0 -18 -5 -21 -10 -4 -6 -3 -10 2 -9 22 4 28
-3 29 -32 1 -22 -1 -27 -7 -18 -7 11 -9 10 -9 -3 0 -10 3 -18 8 -18 4 0 13
-10 21 -22 14 -23 13 -23 -7 -5 -15 14 -22 15 -28 6 -4 -8 -3 -10 4 -5 18 11
39 -41 24 -56 -7 -7 -12 -16 -12 -22 0 -5 8 1 19 12 27 32 36 27 11 -7 -19
-27 -19 -30 -3 -27 10 2 24 -2 31 -10 7 -8 8 -14 2 -14 -5 0 -10 -10 -10 -22
0 -19 2 -20 11 -8 9 13 10 12 5 -2 -3 -10 -1 -20 4 -23 16 -10 7 -43 -9 -37
-14 5 -14 4 -1 -10 8 -9 18 -14 22 -12 4 2 10 -1 14 -7 4 -8 3 -9 -4 -5 -19
11 -14 -5 5 -21 16 -13 16 -14 1 -9 -12 3 -15 1 -11 -10 3 -8 12 -13 19 -10 7
3 16 0 20 -6 4 -6 3 -8 -4 -4 -6 3 -13 2 -17 -4 -3 -5 2 -10 12 -11 13 -1 11
-3 -7 -9 -22 -7 -22 -8 -4 -9 11 -1 23 -4 27 -7 10 -10 -4 -34 -17 -27 -8 5
-8 3 1 -8 6 -8 11 -18 11 -24 0 -5 5 -11 11 -13 6 -2 11 1 11 8 0 6 -4 9 -8 6
-5 -3 -9 1 -9 9 0 11 3 12 14 3 8 -7 12 -21 9 -34 -4 -13 0 -27 9 -34 7 -6 11
-18 8 -26 -3 -8 0 -14 7 -14 6 0 8 -5 4 -12 -4 -7 -3 -8 5 -4 9 6 9 11 0 22
-8 10 -8 14 0 14 6 0 12 -4 12 -10 1 -5 3 -14 4 -20 1 -5 3 -15 4 -21 1 -8 5
-8 15 0 11 9 13 6 10 -19 -3 -22 0 -29 9 -24 9 5 9 4 0 -6 -12 -13 2 -60 19
-60 4 0 8 -5 8 -11 0 -5 -6 -7 -13 -4 -6 4 2 -5 18 -19 17 -14 33 -26 36 -26
4 0 10 -7 13 -16 3 -8 2 -13 -2 -10 -4 2 -14 1 -22 -5 -12 -7 -9 -9 10 -10 14
-1 29 -1 33 0 5 1 6 -3 2 -9 -3 -5 -1 -10 6 -10 7 0 9 -3 6 -6 -4 -4 -13 -1
-22 6 -9 7 -18 11 -21 8 -2 -3 10 -13 28 -21 18 -9 28 -17 22 -17 -17 0 -25
-27 -8 -27 7 0 10 5 7 11 -4 6 1 5 10 -3 15 -12 15 -31 1 -31 -3 0 -2 5 2 12
4 7 3 8 -5 4 -6 -4 -9 -12 -5 -17 3 -6 16 -3 32 7 27 17 27 17 10 -3 -14 -15
-15 -22 -6 -31 9 -9 9 -12 0 -12 -7 0 -12 -5 -12 -11 0 -8 5 -8 15 1 11 9 12
16 5 25 -7 8 -5 12 4 12 9 0 13 -8 10 -23 -3 -19 -1 -22 13 -18 11 4 14 2 8
-3 -5 -4 -12 -17 -13 -28 -3 -16 -1 -18 9 -7 7 6 18 12 23 12 6 0 4 -5 -4 -10
-12 -8 -12 -10 5 -11 l20 0 -20 -9 c-18 -8 -18 -9 5 -9 15 -1 20 -4 13 -9 -12
-7 -12 -17 2 -60 6 -17 10 -20 16 -11 4 8 1 18 -9 26 -14 10 -14 12 -2 13 13
0 13 1 0 11 -10 7 -11 9 -2 7 8 -2 12 -6 10 -9 -2 -3 3 -13 11 -22 7 -10 10
-17 7 -17 -4 0 -2 -9 4 -21 7 -12 18 -18 26 -15 9 3 12 1 9 -4 -3 -6 -12 -10
-20 -10 -8 0 -17 -5 -21 -12 -4 -6 -3 -8 3 -5 6 4 14 0 17 -9 3 -8 2 -12 -4
-9 -6 3 -11 1 -11 -4 -1 -6 -2 -15 -3 -20 0 -5 -5 -13 -10 -18 -5 -4 -6 -3 -3
3 9 15 -15 25 -33 14 -9 -6 -8 -10 5 -17 16 -9 16 -11 1 -16 -10 -4 -15 -3
-12 2 3 5 -1 12 -10 15 -9 4 -13 2 -8 -5 4 -8 -1 -9 -17 -4 -23 7 -24 7 -4 -9
20 -16 20 -16 -2 -22 -12 -3 -24 -13 -28 -21 -4 -13 -3 -14 10 -3 10 8 15 9
15 1 0 -20 2 -26 11 -37 6 -8 4 -17 -6 -28 -15 -15 -15 -16 7 -17 13 -1 27 -1
31 0 5 1 6 -3 2 -9 -3 -5 -1 -10 6 -10 7 0 9 -3 6 -6 -4 -4 -13 -1 -22 6 -9 7
-18 10 -22 6 -3 -3 -1 -6 6 -6 8 0 11 -8 8 -20 -3 -12 0 -20 8 -20 7 0 16 -7
19 -16 6 -15 4 -15 -10 -3 -16 13 -16 12 -5 -9 7 -12 16 -20 22 -17 5 4 9 1 9
-5 0 -6 -7 -10 -16 -8 -18 3 -29 -28 -14 -37 5 -3 7 4 5 15 -2 11 0 18 4 16
15 -9 6 -51 -9 -48 -11 3 -10 -1 3 -16 9 -10 14 -22 10 -25 -3 -4 -1 -7 5 -7
7 0 12 -4 12 -10 0 -5 -8 -7 -18 -4 -14 5 -14 4 -2 -4 10 -8 18 -8 27 0 10 8
12 7 7 -6 -3 -9 -1 -16 5 -16 6 0 11 -5 11 -11 0 -8 -5 -7 -15 1 -13 11 -18
11 -28 0 -10 -10 -9 -12 5 -7 11 4 21 0 27 -11 8 -14 10 -14 11 -2 0 13 1 13
10 0 9 -13 10 -13 10 0 0 13 2 13 9 1 5 -8 17 -16 25 -17 9 -1 14 2 11 7 -4 5
1 6 9 3 9 -3 13 -11 9 -18 -4 -7 -1 -7 9 1 8 7 17 12 19 10 2 -1 -2 4 -10 10
-8 7 -10 13 -4 13 6 0 16 -7 23 -15 9 -11 16 -12 25 -5 10 8 15 8 21 -1 5 -8
3 -10 -7 -4 -11 6 -12 5 -1 -6 9 -10 15 -10 24 -1 16 16 33 15 20 -1 -8 -10
-5 -12 15 -11 14 0 33 9 41 20 12 15 14 16 9 2 -5 -14 0 -17 31 -15 26 2 36 7
34 16 -2 11 0 12 11 3 8 -7 17 -9 20 -5 4 3 7 0 7 -8 0 -12 2 -11 11 1 8 12 9
10 4 -7 -8 -30 9 -30 23 0 6 12 11 16 11 8 1 -11 4 -11 16 -1 10 9 15 9 15 1
0 -10 -13 -15 -32 -12 -15 2 -8 -17 7 -23 9 -3 23 3 32 14 17 19 33 18 33 -3
0 -7 -4 -6 -10 3 -5 8 -10 10 -10 4 0 -6 7 -17 16 -24 12 -11 15 -11 12 0 -2
7 3 15 11 18 8 3 11 0 7 -6 -4 -7 2 -9 15 -7 13 3 26 10 31 17 4 7 8 9 8 3 0
-5 5 -3 10 5 6 9 10 10 10 3 0 -6 -10 -19 -22 -27 -12 -9 -18 -16 -12 -16 5 0
15 5 22 12 8 8 15 8 28 -3 16 -13 16 -12 4 11 -13 24 -12 24 5 10 10 -8 20
-14 22 -12 9 6 34 1 29 -6 -3 -5 2 -9 10 -9 8 0 13 6 10 13 -3 8 0 16 7 20 7
4 9 4 5 -1 -16 -17 12 -34 39 -24 19 7 31 5 53 -11 16 -12 36 -18 47 -14 15 5
15 4 3 -5 -13 -9 -13 -11 0 -12 8 -1 18 -1 21 -1 4 1 6 -6 5 -16 -1 -13 6 -16
28 -14 21 3 26 1 20 -10 -6 -9 -3 -9 12 2 10 8 16 11 12 6 -4 -5 -1 -15 7 -22
17 -18 69 -38 60 -24 -3 6 1 7 9 4 9 -3 14 -10 13 -16 -1 -6 6 -12 16 -13 9
-2 15 1 11 6 -3 5 -11 6 -17 2 -7 -4 -6 0 2 10 7 9 19 17 25 16 6 0 6 -3 -2
-6 -15 -6 35 -53 56 -53 7 0 10 -5 6 -12 -5 -7 -3 -8 6 -3 11 7 9 12 -8 23
-12 8 -22 19 -22 24 0 5 7 2 16 -6 8 -9 20 -14 25 -10 5 3 8 0 7 -8 -2 -7 3
-12 10 -10 8 1 11 -2 7 -8 -3 -5 -2 -10 4 -10 5 0 12 6 14 13 4 9 6 9 6 0 1
-7 11 -13 24 -13 18 0 19 2 7 10 -8 5 -10 10 -4 10 6 0 18 -8 25 -17 8 -9 9
-14 3 -10 -6 3 -11 0 -11 -7 0 -8 8 -11 18 -9 9 3 16 12 14 21 -1 10 0 11 2 4
3 -7 9 -9 15 -6 6 4 8 2 4 -4 -3 -6 2 -15 11 -21 10 -6 13 -11 7 -11 -5 0 -15
5 -22 12 -8 8 -12 8 -12 1 0 -15 26 -24 47 -16 10 4 14 2 10 -4 -3 -5 3 -9 16
-8 12 1 31 -2 42 -7 18 -8 19 -8 3 5 -15 12 -13 13 22 13 21 -1 38 -3 38 -6
-1 -18 4 -27 17 -27 11 0 12 4 3 14 -8 11 -7 12 6 7 15 -6 20 -18 17 -37 -1
-5 3 -6 8 -3 5 4 12 2 16 -4 3 -5 11 -10 18 -10 6 0 3 6 -7 13 -16 12 -16 14
-2 26 9 8 19 11 23 7 3 -3 1 -6 -5 -6 -7 0 -12 -4 -12 -8 0 -5 14 -7 30 -4 17
2 30 9 30 15 0 6 6 2 14 -8 8 -11 12 -26 9 -35 -4 -12 -1 -11 10 2 8 10 17 15
20 11 4 -3 13 -1 20 5 10 9 14 8 14 -3 0 -7 -5 -13 -10 -12 -5 1 -11 -4 -13
-11 -1 -7 0 -8 2 -3 3 5 16 8 29 5 16 -3 28 3 38 16 15 21 15 21 36 -6 12 -16
21 -21 21 -12 0 8 -6 20 -12 27 -11 10 -10 11 5 6 9 -4 17 -15 17 -24 0 -14 2
-14 10 -1 6 10 10 11 10 3 0 -7 5 -13 11 -13 5 0 7 4 4 10 -3 5 -1 10 4 10 6
0 11 -6 11 -12 0 -9 4 -8 10 2 9 13 10 13 11 0 0 -10 3 -8 9 5 6 15 9 16 9 4
1 -16 31 -23 31 -7 0 4 -4 8 -10 8 -5 0 -10 6 -10 13 1 6 10 1 20 -12 18 -21
26 -17 21 12 0 4 4 7 10 7 6 0 8 -8 4 -19 -5 -16 -1 -19 20 -17 14 2 28 -1 31
-6 3 -5 11 -5 17 0 7 5 27 8 45 7 33 -2 43 9 18 18 -8 3 -17 2 -20 -4 -2 -5
-3 -4 -2 3 2 7 10 11 17 9 8 -2 19 -4 25 -4 6 0 9 -10 7 -21 -3 -13 -1 -17 4
-10 4 6 16 10 26 8 9 -1 17 2 17 8 0 6 -6 8 -13 5 -8 -3 -14 1 -14 8 0 10 6
11 23 3 13 -6 21 -14 19 -18 -2 -4 2 -7 10 -7 8 0 12 4 9 9 -3 4 -1 8 5 8 5 0
12 -6 14 -12 4 -10 6 -10 6 0 1 6 6 12 12 12 5 0 7 -5 4 -11 -4 -6 2 -5 13 2
12 7 18 18 14 24 -3 5 2 4 11 -4 14 -11 17 -11 18 0 0 8 5 4 11 -8 10 -21 12
-22 25 -5 8 9 12 12 9 6 -3 -7 2 -18 11 -25 10 -8 14 -9 10 -2 -10 17 13 28
25 12 8 -11 9 -10 4 3 -3 10 -9 26 -12 35 -4 14 -4 15 4 4 5 -7 12 -9 14 -5 3
5 3 4 2 -3 -2 -6 5 -17 14 -25 13 -11 14 -11 7 1 -6 11 -3 13 13 9 13 -4 20
-2 19 6 -1 6 6 10 16 8 9 -2 17 2 17 8 0 6 -4 8 -10 5 -5 -3 -10 -1 -10 5 0 8
7 9 18 5 20 -9 59 -8 75 2 18 11 49 14 43 5 -3 -5 1 -9 9 -9 8 0 12 4 9 9 -6
10 10 11 20 1 9 -9 37 -13 32 -5 -2 4 2 12 9 19 10 10 14 9 19 -3 3 -9 1 -12
-4 -9 -6 3 -10 1 -10 -5 0 -7 6 -10 13 -7 6 2 11 13 10 23 -1 10 0 13 3 7 3
-7 13 -13 22 -13 15 0 15 -2 2 -10 -8 -5 -11 -10 -6 -10 5 0 19 8 30 17 20 17
20 17 6 -1 -14 -18 -13 -18 9 -11 18 5 22 4 16 -5 -5 -8 -4 -11 3 -6 5 3 12 3
15 -1 2 -5 2 -3 1 4 -2 6 4 14 12 17 9 3 12 1 9 -4 -3 -6 -1 -10 5 -10 6 0 8
-5 4 -13 -6 -9 -5 -9 8 0 8 7 17 10 20 8 3 -3 16 -8 28 -10 12 -2 19 -1 16 3
-4 4 -12 8 -17 8 -5 1 -13 2 -19 3 -5 0 -10 6 -10 12 0 8 4 8 13 2 6 -6 20 -9
30 -8 15 3 22 -6 18 -27 0 -5 4 -8 10 -8 6 0 8 7 5 17 -4 10 -4 14 0 10 4 -4
15 0 25 9 16 14 17 14 14 -3 -1 -10 -8 -17 -15 -15 -6 1 -9 -2 -6 -7 3 -5 16
-7 29 -3 19 5 20 4 8 -11 -7 -9 -18 -14 -24 -10 -6 4 -7 1 -3 -6 6 -9 13 -8
27 5 15 13 16 20 8 31 -9 11 -9 12 4 7 8 -3 18 -12 21 -20 3 -9 10 -12 16 -9
5 3 10 -2 11 -12 0 -14 2 -15 7 -3 4 8 15 16 26 18 11 2 15 -1 11 -8 -5 -7 0
-7 13 1 12 7 18 18 14 24 -3 5 1 4 10 -2 8 -7 18 -10 21 -6 4 3 7 2 7 -3 0 -6
-5 -15 -10 -20 -7 -7 -6 -11 4 -11 8 0 13 4 10 9 -8 12 10 10 24 -4 7 -7 12
-8 12 -4 0 5 -7 14 -16 20 -14 11 -14 13 2 27 10 7 15 9 11 2 -4 -6 -1 -18 7
-26 8 -8 12 -18 8 -22 -4 -5 -1 -5 6 -1 7 4 10 12 7 17 -8 12 2 11 27 -2 15
-8 19 -8 14 0 -4 6 -2 11 4 11 6 0 8 5 4 13 -6 9 -5 9 8 0 8 -7 19 -9 23 -5 5
4 5 1 1 -5 -7 -12 12 -18 38 -14 5 1 6 -6 2 -16 -5 -15 -4 -15 9 2 14 17 17
18 25 5 5 -8 10 -10 10 -5 0 6 -6 17 -12 24 -11 11 -9 11 10 2 13 -7 20 -17
16 -24 -4 -7 -3 -8 2 -4 5 5 9 13 9 18 0 5 3 8 7 7 4 -2 14 6 23 17 16 19 16
19 5 -3 -6 -12 -15 -20 -20 -17 -6 4 -7 -2 -3 -11 4 -11 8 -13 11 -6 2 7 8 12
13 12 6 0 7 -5 3 -12 -4 -7 -3 -8 5 -4 6 4 9 12 6 17 -4 5 -1 17 5 26 11 17
11 17 6 1 -3 -11 2 -22 16 -29 16 -9 19 -8 13 2 -6 9 -3 11 8 6 9 -3 19 -2 21
2 9 14 -6 21 -25 10 -14 -7 -17 -6 -13 4 2 7 15 13 29 13 13 0 21 -4 19 -8 -3
-4 0 -8 7 -8 7 0 5 -9 -7 -22 -19 -23 -19 -23 2 -5 11 9 25 14 29 10 5 -5 3 0
-4 10 -8 9 -11 20 -7 24 3 3 6 1 6 -5 0 -7 7 -12 16 -12 14 0 14 3 3 18 -11
14 -11 15 1 5 21 -19 34 -16 19 5 -13 16 -13 16 5 2 11 -8 21 -14 23 -12 10 7
23 0 18 -11 -4 -6 -1 -5 7 3 7 9 21 14 32 12 13 -3 16 0 10 10 -6 9 -2 9 11
-2 17 -14 18 -13 12 5 -6 17 -5 18 5 5 16 -19 44 -19 40 0 -2 11 2 10 12 -3
12 -16 14 -16 20 -2 3 9 11 13 17 9 8 -4 9 -3 5 4 -4 7 -2 12 5 12 7 0 9 3 6
7 -4 3 -15 -1 -26 -11 -17 -16 -19 -16 -25 0 -4 9 -4 19 -1 22 3 3 5 0 5 -6 0
-7 5 -12 11 -12 5 0 8 4 5 8 -8 13 27 11 43 -2 12 -9 13 -7 8 8 -6 16 -5 17 8
6 18 -15 20 0 3 20 -11 12 -10 12 4 2 9 -7 18 -9 20 -5 3 4 3 3 2 -4 -2 -7 1
-15 7 -18 5 -4 9 -3 8 2 -3 20 2 27 11 13 7 -11 10 -11 10 -2 0 7 6 10 13 7 6
-4 3 1 -7 9 -18 15 -18 16 -2 16 9 0 14 5 11 10 -3 6 -1 10 4 10 6 0 11 -6 11
-12 0 -9 3 -9 8 -2 4 6 15 14 26 17 14 6 16 10 7 21 -13 15 -5 27 15 19 8 -3
11 -10 7 -16 -3 -6 -1 -7 6 -3 9 6 9 11 1 21 -8 10 -7 15 2 19 7 3 2 3 -11 0
-16 -4 -21 -3 -17 5 4 6 14 11 22 11 8 0 14 5 14 11 0 5 -5 7 -12 3 -7 -4 -8
-3 -4 5 6 9 11 9 22 0 12 -10 13 -9 8 6 -6 14 -4 16 6 10 9 -5 11 -4 6 4 -4 6
-11 9 -16 6 -5 -3 -12 -1 -15 5 -4 6 -1 9 6 8 6 -2 14 3 16 10 4 10 -16 17
-40 13 -5 -1 -6 3 -3 7 3 5 16 8 30 7 18 -2 23 1 19 15 -3 10 0 21 6 24 6 4
11 12 11 19 0 6 -6 3 -13 -8 -8 -10 -19 -15 -25 -11 -7 4 -12 2 -12 -3 0 -6 5
-11 10 -11 6 0 10 -5 10 -12 0 -8 -6 -7 -16 4 -16 16 -11 43 6 33 5 -3 11 -1
15 5 3 5 1 11 -4 11 -26 3 -30 4 -36 11 -4 3 5 5 19 4 15 -2 29 1 33 7 3 6 1
7 -5 3 -7 -4 -12 -2 -12 3 0 6 5 11 12 11 6 0 8 3 5 6 -4 4 -12 2 -20 -4 -10
-8 -12 -4 -12 21 1 18 4 38 9 45 4 7 2 12 -7 12 -8 0 -17 7 -21 15 -5 13 -1
13 27 -1 l32 -16 -29 26 c-16 14 -33 23 -39 19 -6 -3 -7 -1 -3 5 4 7 1 12 -6
12 -8 0 -6 5 5 11 12 7 15 15 8 27 -5 9 -10 19 -12 22 -1 3 3 16 10 29 12 21
11 23 -2 18 -12 -4 -14 -2 -10 10 5 12 3 14 -7 8 -9 -5 -11 -4 -6 4 6 9 11 9
21 1 15 -12 16 5 2 28 -5 6 -6 12 -2 12 3 0 1 9 -5 19 -7 14 -7 22 2 27 6 4 8
3 4 -4 -3 -6 -2 -13 3 -17 6 -3 8 6 5 21 -5 25 -3 26 12 13 16 -13 16 -12 5 9
-7 14 -8 22 -1 22 5 0 10 -4 10 -10 0 -5 5 -10 11 -10 6 0 9 7 5 15 -3 8 -1
15 4 15 5 0 7 6 4 14 -3 8 -1 17 5 21 7 3 8 0 5 -9 -3 -9 -1 -16 5 -16 6 0 11
5 11 11 0 5 5 7 11 3 8 -5 8 -1 0 14 -10 18 -8 20 14 17 26 -2 34 10 13 18 -8
3 -6 6 5 6 15 1 22 12 18 34 -1 5 3 6 9 2 6 -3 8 -11 5 -16 -4 -5 -1 -9 4 -9
14 0 14 6 -1 33 -11 21 -10 21 7 7 11 -9 16 -10 11 -3 -4 8 -2 13 6 13 10 0 9
3 -2 9 -8 6 -19 7 -25 5 -5 -3 1 4 14 16 18 16 26 18 32 8 4 -7 7 3 5 22 -2
24 2 37 13 42 14 6 14 7 -1 7 -16 1 -23 12 -19 34 1 5 -3 6 -9 2 -6 -3 -7 -11
-4 -17 11 -17 12 -68 2 -74 -5 -4 -15 -1 -21 5 -9 9 -7 10 8 5 17 -7 18 -6 7
8 -9 11 -10 18 -3 23 7 4 6 16 -5 36 -11 22 -12 34 -5 43 8 10 7 17 -4 26 -8
7 -15 18 -14 24 0 7 3 6 6 -2 2 -7 14 -17 26 -23 20 -9 20 -9 5 4 -21 16 -24
43 -6 49 9 3 9 6 0 12 -7 4 -12 2 -12 -3 0 -6 -5 -11 -11 -11 -8 0 -9 4 0 13
6 8 7 17 3 21 -4 4 0 6 8 4 8 -2 14 3 13 10 -2 6 2 12 8 12 5 0 8 4 5 9 -3 5
1 12 10 15 24 9 27 7 10 -9 -8 -9 -12 -23 -9 -32 4 -11 3 -14 -5 -9 -7 4 -12
2 -12 -4 0 -20 25 -4 25 16 1 11 7 18 15 16 8 -2 12 0 8 4 -4 4 -2 14 5 22 8
11 8 14 0 9 -18 -11 -25 9 -9 26 9 8 11 19 6 27 -12 20 -3 30 26 30 13 0 24 4
24 9 0 6 -9 8 -20 6 -12 -2 -18 0 -15 6 4 5 11 7 16 4 5 -4 9 -1 9 6 0 8 5 7
17 -2 15 -13 15 -12 2 8 -11 19 -11 27 -1 43 15 24 15 33 2 25 -5 -3 -10 -1
-10 4 0 13 27 15 32 3 2 -4 11 0 21 10 13 14 14 18 3 18 -8 0 -18 5 -22 12 -5
7 -3 8 6 3 10 -6 12 -3 8 13 -5 19 -4 20 15 10 19 -9 20 -9 11 3 -16 21 -26
51 -14 44 6 -3 10 -1 10 6 0 9 3 9 14 0 11 -9 16 -9 22 0 4 8 3 9 -5 5 -6 -4
-14 0 -17 8 -3 9 -9 14 -13 12 -4 -3 -7 4 -7 15 0 17 2 18 11 6 11 -15 45 -19
45 -4 0 5 -7 7 -15 3 -8 -3 -15 -2 -16 2 0 4 -2 15 -4 25 -2 9 1 15 6 11 8 -5
13 10 10 29 -1 5 3 6 9 2 6 -3 8 -11 5 -16 -4 -5 -2 -9 3 -9 6 0 13 7 16 16 3
8 2 13 -3 10 -5 -3 -12 1 -15 10 -5 13 -2 15 16 11 22 -6 22 -5 4 8 -11 8 -14
15 -8 15 7 0 12 5 12 11 0 5 -5 7 -11 3 -7 -4 -10 -1 -7 7 3 8 14 12 24 11 17
-3 16 0 -6 25 -14 15 -21 25 -16 21 5 -4 15 0 23 10 12 16 13 16 7 0 -4 -11
-1 -18 6 -18 6 0 8 -5 4 -12 -4 -7 -3 -8 5 -4 9 6 9 11 0 22 -11 13 -6 18 14
15 5 -1 6 3 3 8 -4 5 0 11 6 14 7 3 3 4 -9 4 -12 -1 -19 -5 -16 -11 3 -5 1 -6
-5 -2 -18 11 -14 26 7 26 10 0 22 7 25 16 3 8 2 12 -4 9 -6 -3 -10 -1 -10 5 0
6 -5 8 -10 5 -6 -4 -5 4 1 19 7 14 17 23 23 19 6 -3 8 -3 4 2 -4 4 -3 16 3 26
8 15 6 17 -7 12 -15 -5 -15 -4 1 20 9 15 21 24 26 21 5 -3 6 2 3 10 -4 10 -1
16 7 16 7 0 10 2 7 5 -8 8 -39 -6 -33 -15 3 -4 -3 -14 -12 -21 -12 -10 -14
-10 -9 -1 4 7 2 12 -5 12 -7 0 -5 6 6 13 13 10 15 16 6 21 -9 6 -9 11 -1 21 7
8 9 18 6 24 -7 11 3 41 13 41 4 0 8 -7 8 -15 0 -8 -4 -12 -9 -9 -4 3 -8 0 -8
-5 0 -6 5 -11 10 -11 6 0 13 -1 17 -2 4 -2 8 52 10 120 1 67 -1 121 -6 118 -4
-3 -8 1 -8 9 0 8 4 12 9 9 4 -3 8 0 8 5 0 6 -6 11 -12 11 -9 0 -10 3 -2 8 15
10 16 204 0 195 -7 -5 -7 -2 1 8 14 17 12 111 -2 105 -5 -2 -9 -13 -8 -25 2
-11 -1 -21 -5 -21 -12 0 -11 32 1 48 6 8 6 17 -2 26 -20 24 -22 54 -3 51 9 -2
19 -4 22 -4 2 -1 -1 -6 -8 -13 -15 -15 -16 -31 0 -22 6 4 8 3 4 -4 -3 -6 -3
-13 2 -16 5 -3 8 17 8 45 -1 27 -6 48 -11 47 -6 -2 -9 -6 -8 -10 2 -5 -2 -8
-7 -8 -13 0 -13 6 1 33 l12 22 -24 -20 c-13 -11 -21 -16 -17 -11 4 5 2 16 -5
25 -11 14 -10 14 6 2 15 -12 17 -11 18 15 0 16 1 43 2 61 2 24 -1 29 -10 21
-9 -7 -13 -7 -13 1 0 7 -5 9 -11 5 -8 -5 -8 -1 0 14 14 27 14 35 -1 26 -7 -4
-8 -3 -4 5 5 8 12 9 20 2 8 -7 12 -5 12 9 0 10 -4 16 -8 14 -13 -8 -9 11 5 26
6 8 2 6 -10 -4 -13 -11 -23 -14 -23 -8 0 6 5 14 10 17 6 3 10 11 10 17 0 7 -6
6 -15 -2 -8 -7 -15 -9 -15 -4 0 5 -4 3 -9 -4 -7 -11 -9 -11 -14 1 -4 11 0 15
14 12 12 -2 19 2 19 11 0 8 -4 12 -10 9 -6 -3 -7 1 -4 10 5 13 9 13 23 3 14
-12 14 -11 3 4 -13 16 -16 16 -40 2 -20 -12 -23 -12 -9 -1 20 17 22 38 5 56
-10 11 -10 14 0 18 6 3 12 9 12 14 0 6 -4 8 -9 5 -5 -3 -12 1 -15 10 -4 10 -2
13 6 8 6 -4 8 -3 4 4 -3 5 0 13 6 16 7 3 2 3 -12 -1 -22 -5 -23 -4 -11 10 7 9
18 14 24 10 6 -3 7 -1 3 5 -5 9 -13 9 -26 2 -29 -15 -34 -12 -13 8 10 9 17 16
14 15 -2 -2 -10 2 -18 8 -8 8 -13 8 -13 1 0 -6 6 -13 13 -15 9 -4 9 -6 0 -6
-18 -1 -36 36 -21 45 7 5 8 3 3 -7 -5 -8 -4 -10 0 -6 15 13 14 36 -1 30 -9 -3
-14 0 -12 8 2 8 -2 13 -8 12 -6 -1 -11 4 -11 12 0 8 4 12 9 9 4 -3 8 2 8 10 0
8 -4 18 -10 21 -5 3 -10 1 -10 -5 0 -6 -5 -8 -11 -4 -8 4 -7 9 2 15 7 4 19 3
25 -2 8 -7 14 -6 19 1 4 6 3 10 -2 9 -20 -3 -27 2 -14 10 12 8 9 11 -12 16
-15 4 -27 11 -27 16 0 5 12 4 26 -2 15 -5 29 -8 31 -5 2 2 -10 8 -26 14 -25 9
-32 8 -40 -5 -6 -12 -8 -7 -6 18 2 19 4 34 5 34 7 0 6 36 -2 41 -7 4 -6 9 2
14 8 5 7 9 -5 13 -11 5 -14 3 -9 -5 5 -8 2 -9 -9 -5 -10 3 -17 2 -17 -3 0 -5
8 -11 18 -13 9 -3 5 -4 -10 -3 -15 1 -30 5 -33 9 -3 4 -2 5 2 2 6 -5 32 24 33
38 0 4 -5 7 -11 7 -5 0 -7 -6 -3 -12 5 -8 1 -8 -12 2 -29 22 -30 24 -11 17 9
-4 17 -2 17 3 0 6 -5 10 -11 10 -5 0 -7 5 -4 10 9 14 -8 12 -25 -2 -12 -11
-12 -10 -2 3 9 12 9 18 0 27 -7 7 -8 12 -3 12 4 0 -2 9 -15 20 -13 11 -18 20
-12 20 6 0 14 -4 17 -10 3 -5 12 -10 18 -9 9 0 8 2 -1 6 -6 2 -9 10 -6 15 4 6
2 8 -4 4 -6 -3 -17 0 -25 8 -8 8 -18 12 -21 8 -4 -3 -4 1 0 11 6 16 7 16 18 2
10 -15 12 -14 12 3 0 16 -6 19 -31 16 -22 -3 -26 -1 -15 6 13 9 13 10 0 11 -8
1 -19 1 -23 0 -5 -1 -6 2 -3 7 2 4 1 14 -4 22 -5 9 -5 19 1 26 11 14 -14 44
-37 44 -12 0 -12 4 -4 20 6 11 7 20 2 20 -5 0 -14 -10 -19 -22 -10 -20 -10
-18 -8 14 3 33 1 36 -21 33 -14 -1 -22 0 -19 3 3 3 -3 14 -12 25 -10 11 -13
17 -7 14 7 -4 15 0 18 9 8 21 8 24 -5 24 -5 0 -7 -4 -4 -10 3 -5 -2 -10 -11
-10 -10 0 -15 3 -11 6 3 4 -1 13 -9 21 -8 8 -12 18 -10 22 3 4 -9 13 -25 20
-17 7 -28 16 -25 19 3 2 12 -1 21 -8 13 -11 14 -10 9 4 -3 9 -12 16 -20 16 -8
0 -14 5 -14 11 0 5 -6 7 -12 4 -7 -4 -4 1 6 9 22 18 14 21 -14 6 -13 -7 -21
-7 -26 2 -4 6 -3 8 3 5 6 -4 13 0 17 8 3 8 2 14 -2 14 -20 -3 -33 2 -27 11 8
13 -8 13 -21 0 -7 -7 -10 -2 -10 15 0 14 4 25 10 25 5 0 6 3 3 6 -4 4 -13 1
-22 -6 -18 -15 -20 0 -2 19 8 9 8 12 0 7 -6 -3 -18 1 -26 9 -9 8 -20 15 -26
15 -5 0 -13 5 -17 12 -4 6 -3 8 2 5 6 -3 16 -2 24 4 11 6 5 8 -18 5 -24 -3
-30 0 -22 9 14 17 1 26 -20 15 -15 -8 -17 -6 -13 10 3 11 0 20 -6 20 -6 0 -11
-5 -11 -12 0 -6 -2 -9 -5 -6 -10 10 7 38 19 31 6 -3 7 -2 3 2 -10 12 -39 16
-32 5 3 -5 0 -12 -6 -16 -8 -4 -9 -3 -5 4 4 7 3 12 -1 12 -5 0 -18 7 -29 16
-18 15 -18 15 3 4 19 -9 22 -8 17 5 -4 8 -15 15 -26 15 -11 0 -16 4 -12 11 4
7 -1 7 -16 -1 -15 -8 -20 -8 -16 -1 4 6 2 11 -4 11 -6 0 -8 5 -4 12 5 8 2 9
-9 5 -12 -4 -24 4 -40 28 -19 28 -26 32 -37 22 -10 -9 -11 -9 -6 1 4 6 2 12
-5 12 -9 0 -9 3 0 14 10 12 9 14 -6 12 -10 -2 -24 4 -31 13 -8 9 -10 10 -6 2
5 -10 3 -12 -5 -7 -7 5 -10 15 -7 23 3 8 2 11 -3 8 -5 -3 -13 -1 -16 5 -5 8
-11 7 -21 -1 -17 -14 -19 2 -3 18 9 9 6 10 -12 6 -24 -5 -24 -5 -4 11 20 17
20 17 -2 7 -28 -14 -36 -14 -27 0 5 8 1 8 -14 0 -15 -8 -23 -6 -37 9 -10 11
-15 20 -10 20 4 0 13 -7 20 -16 11 -16 12 -16 18 -1 4 10 2 16 -6 14 -7 -1
-11 4 -9 11 1 8 -2 10 -8 7 -6 -4 -19 0 -29 9 -10 9 -22 16 -27 14 -12 -4 -55
27 -49 35 3 4 2 5 -1 2 -4 -2 -16 1 -28 7 -29 17 -45 18 -53 6 -3 -7 -1 -8 5
-4 8 5 10 1 5 -9 -5 -13 -7 -14 -14 -3 -5 7 -16 13 -26 13 -19 1 -20 6 -7 40
6 16 3 15 -14 -5 -12 -14 -21 -19 -22 -12 0 6 5 12 10 12 6 0 10 5 10 11 0 6
-7 8 -15 5 -8 -3 -23 -9 -32 -13 -12 -5 -15 -2 -10 10 3 9 2 17 -4 17 -6 0 -8
4 -5 9 5 8 -20 8 -53 0 -8 -2 -17 4 -19 15 -2 12 0 16 7 11 6 -3 8 -11 5 -17
-4 -7 -2 -8 5 -4 9 6 9 11 -1 23 -11 13 -15 12 -32 -8 -13 -16 -17 -18 -13 -6
19 47 19 51 2 29 -13 -18 -20 -21 -31 -11 -10 8 -17 9 -28 0 -10 -9 -16 -8
-26 4 -9 10 -9 15 -1 15 6 0 11 -5 11 -11 0 -5 4 -8 9 -5 11 7 9 32 -4 43 -4
4 -5 2 -1 -5 6 -10 -5 -12 -52 -10 -33 1 -58 6 -55 11 2 4 9 5 14 2 5 -4 9 1
9 9 0 19 -11 20 -29 4 -11 -10 -12 -10 -7 -1 5 10 -5 13 -41 13 -78 0 -103 3
-103 15 0 5 -5 3 -10 -5 -5 -8 -10 -10 -10 -5 0 6 8 22 17 35 16 24 16 24 0
11 -16 -13 -21 -9 -18 14 1 6 -5 2 -13 -8 -12 -16 -14 -16 -20 -1 -5 12 -10
14 -19 5 -10 -8 -17 -7 -27 2 -10 9 -11 9 -6 0 9 -17 -6 -16 -29 1 -21 15 -49
10 -39 -6 4 -6 -2 -5 -14 1 -28 15 -32 14 -26 -6 4 -11 3 -14 -3 -7 -4 7 -20
10 -36 9 -15 -2 -25 1 -22 5 3 5 12 7 20 3 8 -3 15 0 15 5 0 14 -36 7 -69 -14
-26 -17 -26 -17 -8 3 14 16 15 23 6 29 -7 4 -10 3 -5 -4 3 -6 -4 -14 -16 -18
-33 -11 -51 -14 -43 -6 4 4 12 7 18 7 5 0 12 7 14 15 3 9 1 11 -4 5 -7 -9 -20
-14 -48 -19 -5 -1 -16 -5 -23 -10 -7 -4 -16 -5 -19 -2 -4 3 -1 6 6 6 7 0 9 5
6 10 -5 8 -11 7 -21 -1 -8 -6 -14 -8 -14 -4 0 4 -6 2 -14 -4 -11 -10 -17 -8
-25 6 -8 14 -10 15 -11 3 0 -13 -2 -13 -9 0 -6 8 -7 18 -5 22 9 15 -3 8 -17
-9z m504 -49 c6 1 9 1 4 -1 -4 -3 -5 -9 -2 -14 4 -5 -1 -6 -9 -3 -9 3 -16 10
-16 16 0 5 -4 6 -10 3 -11 -7 -14 8 -3 19 4 3 11 0 15 -8 5 -8 14 -14 21 -12z
m-56 0 c-3 -3 -12 -4 -19 -1 -8 3 -5 6 6 6 11 1 17 -2 13 -5z m693 -225 c0 -6
-4 -7 -10 -4 -5 3 -10 11 -10 16 0 6 5 7 10 4 6 -3 10 -11 10 -16z m-2303 -4
c0 -8 -4 -12 -9 -9 -5 3 -6 10 -3 15 9 13 12 11 12 -6z m2372 -48 c0 -8 -2 -8
-6 1 -2 6 -10 9 -15 6 -7 -5 -8 -2 -3 6 6 10 4 12 -11 6 -10 -4 -15 -4 -11 0
4 4 1 14 -6 23 -6 8 3 5 21 -8 17 -12 32 -28 31 -34z m37 -5 c1 -7 0 -8 -3 -2
-2 5 -9 8 -14 4 -5 -3 -9 0 -9 6 0 15 23 7 26 -8z m-2592 -50 c3 -5 -1 -9 -9
-9 -8 0 -12 4 -9 9 3 4 7 8 9 8 2 0 6 -4 9 -8z m2740 -62 c-6 -6 -10 -3 -10
10 0 13 4 16 10 10 7 -7 7 -13 0 -20z m-3086 -205 c-3 -3 -9 2 -12 12 -6 14
-5 15 5 6 7 -7 10 -15 7 -18z m3801 -478 c8 -10 7 -14 -2 -14 -8 0 -14 6 -14
14 0 7 1 13 2 13 2 0 8 -6 14 -13z m198 -332 c0 -8 -4 -12 -9 -9 -5 3 -6 10
-3 15 9 13 12 11 12 -6z m40 -101 c-3 -3 -12 -4 -19 -1 -8 3 -5 6 6 6 11 1 17
-2 13 -5z m-4687 -14 c0 -5 -5 -10 -11 -10 -5 0 -7 5 -4 10 3 6 8 10 11 10 2
0 4 -4 4 -10z m-99 -197 c-12 -20 -14 -14 -5 12 4 9 9 14 11 11 3 -2 0 -13 -6
-23z m4894 -215 c5 4 5 1 1 -6 -6 -10 -11 -10 -22 -1 -8 6 -14 14 -14 16 0 3
6 0 13 -6 8 -6 18 -7 22 -3z m-4954 -25 c-12 -20 -14 -14 -5 12 4 9 9 14 11
11 3 -2 0 -13 -6 -23z m-27 -361 c-5 -4 -16 -16 -24 -26 -14 -18 -13 -18 10
-12 19 6 21 5 10 -3 -10 -7 -11 -11 -2 -11 6 0 12 -5 12 -12 0 -9 -3 -9 -12 0
-24 24 -29 11 -7 -20 13 -17 16 -27 8 -22 -7 5 -18 9 -23 9 -6 0 -10 23 -11
50 -1 46 1 50 24 52 13 0 20 -2 15 -5z m5037 -69 c13 -16 12 -17 -3 -4 -10 7
-18 15 -18 17 0 8 8 3 21 -13z m6 -118 c0 -8 -4 -12 -9 -9 -5 3 -6 10 -3 15 9
13 12 11 12 -6z m7 -157 c-5 -7 -9 -16 -9 -20 0 -20 -11 -13 -11 7 0 13 4 21
8 19 4 -3 8 0 8 7 0 7 3 10 6 6 3 -3 2 -12 -2 -19z m1 -57 c-8 -14 -25 -14
-25 0 0 5 5 7 10 4 6 -3 10 -1 10 6 0 7 3 10 6 6 3 -3 3 -10 -1 -16z m2 -58
c0 -8 -6 -9 -19 -2 -10 5 -18 11 -18 12 0 2 8 3 18 3 10 0 19 -6 19 -13z m-96
-326 c-10 -9 -11 -8 -5 6 3 10 9 15 12 12 3 -3 0 -11 -7 -18z m-4876 -37 c3
-5 1 -10 -4 -10 -6 0 -11 5 -11 10 0 6 2 10 4 10 3 0 8 -4 11 -10z m4785 -320
c0 -5 -2 -10 -4 -10 -3 0 -8 5 -11 10 -3 6 -1 10 4 10 6 0 11 -4 11 -10z
m-4650 -64 c0 -10 -30 0 -34 11 -4 11 -1 11 14 3 11 -6 20 -12 20 -14z m90
-206 c0 -5 -5 -10 -11 -10 -5 0 -7 5 -4 10 3 6 8 10 11 10 2 0 4 -4 4 -10z
m4225 -550 c3 -6 -1 -7 -9 -4 -18 7 -21 14 -7 14 6 0 13 -4 16 -10z m11 -260
c0 -12 -4 -16 -9 -11 -5 5 -6 14 -3 20 10 15 12 14 12 -9z m-3764 -128 c-7 -2
-9 -9 -5 -15 3 -7 2 -8 -2 -4 -16 14 -14 36 3 29 10 -4 12 -7 4 -10z m265 -7
c0 -8 -4 -12 -9 -9 -5 3 -6 10 -3 15 9 13 12 11 12 -6z m39 -10 c-2 -14 -16
-22 -16 -10 0 3 0 10 0 15 0 6 4 10 9 10 5 0 8 -7 7 -15z m439 -143 c-3 -3
-11 0 -18 7 -9 10 -8 11 6 5 10 -3 15 -9 12 -12z m1662 -102 c1 -11 -2 -22 -8
-25 -7 -5 -7 18 0 43 3 8 7 -1 8 -18z m-1293 -16 c3 -8 2 -12 -4 -9 -6 3 -10
10 -10 16 0 14 7 11 14 -7z m2400 0 c5 -14 4 -15 -9 -4 -17 14 -19 20 -6 20 5
0 12 -7 15 -16z m-2247 -36 c-3 -8 -6 -5 -6 6 -1 11 2 17 5 13 3 -3 4 -12 1
-19z m928 13 c3 -5 2 -12 -3 -15 -5 -3 -9 1 -9 9 0 17 3 19 12 6z m590 -1 c4
-6 10 -8 15 -5 4 3 13 -1 18 -8 9 -10 6 -13 -13 -13 -13 0 -22 3 -19 7 2 4 -4
12 -13 18 -10 6 -13 11 -6 11 6 0 15 -5 18 -10z m65 -10 c6 -11 8 -20 6 -20
-3 0 -10 9 -16 20 -6 11 -8 20 -6 20 3 0 10 -9 16 -20z m-749 -32 c-11 -11
-13 -10 -7 0 4 7 2 21 -5 30 -12 15 -11 15 6 0 16 -15 17 -20 6 -30z m60 19
c-10 -9 -11 -8 -5 6 3 10 9 15 12 12 3 -3 0 -11 -7 -18z m844 13 c3 -5 1 -10
-4 -10 -6 0 -11 5 -11 10 0 6 2 10 4 10 3 0 8 -4 11 -10z m89 -11 c9 8 13 7
13 -3 0 -18 -32 -13 -33 5 -1 10 0 10 3 1 3 -9 8 -10 17 -3z m71 11 c-3 -5
-12 -10 -18 -10 -7 0 -6 4 3 10 19 12 23 12 15 0z m-1703 -32 c-7 -7 -12 -8
-12 -2 0 14 12 26 19 19 2 -3 -1 -11 -7 -17z m318 -2 c0 -3 -4 -8 -10 -11 -5
-3 -10 -1 -10 4 0 6 5 11 10 11 6 0 10 -2 10 -4z"/>
<path d="M2760 5139 c0 -5 -4 -8 -9 -4 -5 3 -12 1 -15 -4 -4 -5 2 -8 11 -7 15
3 33 26 19 26 -3 0 -6 -5 -6 -11z"/>
<path d="M2673 5133 c-7 -2 -13 -9 -13 -15 0 -7 5 -7 13 1 8 6 18 7 22 3 5 -4
5 -1 1 6 -4 6 -8 12 -9 11 -1 0 -8 -3 -14 -6z"/>
<path d="M2420 5119 c0 -5 5 -7 10 -4 6 3 10 8 10 11 0 2 -4 4 -10 4 -5 0 -10
-5 -10 -11z"/>
<path d="M2049 5092 c10 -20 14 -21 26 -8 19 18 20 32 2 17 -10 -8 -17 -7 -26
2 -11 10 -11 8 -2 -11z"/>
<path d="M3156 5081 c-3 -5 1 -11 9 -14 9 -4 12 -1 8 9 -6 16 -10 17 -17 5z"/>
<path d="M3190 5066 c0 -2 7 -7 16 -10 8 -3 12 -2 9 4 -6 10 -25 14 -25 6z"/>
<path d="M3440 5006 c0 -2 8 -10 18 -17 15 -13 16 -12 3 4 -13 16 -21 21 -21
13z"/>
<path d="M3606 4933 c-6 -14 -5 -15 5 -6 7 7 10 15 7 18 -3 3 -9 -2 -12 -12z"/>
<path d="M3676 4897 c-16 -12 -16 -13 2 -13 10 0 19 6 19 13 0 7 -1 13 -2 13
-1 0 -9 -6 -19 -13z"/>
<path d="M4145 4611 c-3 -5 0 -13 6 -17 7 -4 9 -3 5 4 -3 5 0 13 6 15 9 4 10
6 1 6 -6 1 -14 -3 -18 -8z"/>
<path d="M4627 4118 c6 -11 31 -10 37 1 3 5 -5 8 -18 7 -13 0 -22 -4 -19 -8z"/>
<path d="M4741 3958 c5 -10 12 -18 15 -18 3 0 2 5 -2 11 -3 6 0 15 7 20 10 6
8 8 -8 6 -17 -1 -20 -5 -12 -19z"/>
<path d="M4775 3940 c3 -5 8 -10 11 -10 2 0 4 5 4 10 0 6 -5 10 -11 10 -5 0
-7 -4 -4 -10z"/>
<path d="M4836 3821 c-3 -5 0 -11 7 -14 8 -3 14 1 14 9 0 16 -13 19 -21 5z"/>
<path d="M300 3765 c0 -2 6 -8 13 -14 10 -8 14 -7 14 2 0 8 -6 14 -14 14 -7 0
-13 -1 -13 -2z"/>
<path d="M4920 3640 c0 -5 5 -10 11 -10 5 0 7 5 4 10 -3 6 -8 10 -11 10 -2 0
-4 -4 -4 -10z"/>
<path d="M4975 3500 c3 -5 8 -10 11 -10 2 0 4 5 4 10 0 6 -5 10 -11 10 -5 0
-7 -4 -4 -10z"/>
<path d="M5010 3455 c0 -8 2 -15 4 -15 2 0 6 7 10 15 3 8 1 15 -4 15 -6 0 -10
-7 -10 -15z"/>
<path d="M5046 3298 c3 -4 9 -8 15 -8 5 0 9 4 9 8 0 5 -7 9 -15 9 -8 0 -12 -4
-9 -9z"/>
<path d="M96 3238 c3 -5 10 -6 15 -3 13 9 11 12 -6 12 -8 0 -12 -4 -9 -9z"/>
<path d="M5130 3031 c0 -6 4 -13 10 -16 6 -3 7 1 4 9 -7 18 -14 21 -14 7z"/>
<path d="M77 3013 c-10 -9 -9 -23 1 -23 5 0 9 7 9 15 0 17 -1 18 -10 8z"/>
<path d="M40 2630 c-13 -9 -13 -11 0 -20 8 -5 10 -10 4 -10 -7 0 -11 -19 -10
-52 1 -47 9 -67 26 -68 9 0 6 43 -3 58 -5 6 -5 12 -1 12 3 0 1 7 -6 15 -6 8
-8 20 -4 27 6 10 14 49 10 48 -1 0 -8 -5 -16 -10z m15 -109 c3 -5 2 -12 -3
-15 -5 -3 -9 1 -9 9 0 17 3 19 12 6z"/>
<path d="M33 2438 c1 -24 9 -48 17 -55 21 -18 35 -16 20 2 -10 12 -10 19 -2
27 8 8 7 19 -4 39 -21 41 -33 36 -31 -13z m20 17 c4 -8 3 -16 -1 -19 -4 -3 -9
4 -9 15 -2 23 3 25 10 4z m17 -29 c0 -2 -8 -10 -17 -17 -16 -13 -17 -12 -4 4
13 16 21 21 21 13z"/>
<path d="M67 2269 c7 -7 15 -10 18 -7 3 3 -2 9 -12 12 -14 6 -15 5 -6 -5z"/>
<path d="M45 2231 c-3 -6 0 -8 8 -5 10 3 14 -2 13 -17 0 -12 6 -24 14 -26 9
-3 11 -1 5 4 -6 4 -11 17 -10 27 0 22 -20 33 -30 17z"/>
<path d="M5105 2221 c-6 -11 9 -23 19 -14 9 9 7 23 -3 23 -6 0 -12 -4 -16 -9z"/>
<path d="M35 2200 c-3 -5 -1 -10 4 -10 6 0 11 5 11 10 0 6 -2 10 -4 10 -3 0
-8 -4 -11 -10z"/>
<path d="M5133 2135 c0 -8 4 -12 9 -9 5 3 6 10 3 15 -9 13 -12 11 -12 -6z"/>
<path d="M5095 2060 c3 -5 8 -10 11 -10 2 0 4 5 4 10 0 6 -5 10 -11 10 -5 0
-7 -4 -4 -10z"/>
<path d="M146 1832 c-3 -6 -1 -14 5 -17 15 -10 25 3 12 16 -7 7 -13 7 -17 1z"/>
<path d="M5005 1790 c-3 -5 -1 -10 4 -10 6 0 11 5 11 10 0 6 -2 10 -4 10 -3 0
-8 -4 -11 -10z"/>
<path d="M155 1750 c3 -5 8 -10 11 -10 2 0 4 5 4 10 0 6 -5 10 -11 10 -5 0 -7
-4 -4 -10z"/>
<path d="M4865 1470 c3 -5 8 -10 11 -10 2 0 4 5 4 10 0 6 -5 10 -11 10 -5 0
-7 -4 -4 -10z"/>
<path d="M306 1444 c-5 -14 -4 -15 9 -4 17 14 19 20 6 20 -5 0 -12 -7 -15 -16z"/>
<path d="M390 1300 c0 -5 5 -10 11 -10 5 0 7 5 4 10 -3 6 -8 10 -11 10 -2 0
-4 -4 -4 -10z"/>
<path d="M4800 1230 c-8 -5 -12 -12 -9 -15 4 -3 12 1 19 10 14 17 11 19 -10 5z"/>
<path d="M510 739 c0 -5 5 -7 10 -4 6 3 10 8 10 11 0 2 -4 4 -10 4 -5 0 -10
-5 -10 -11z"/>
<path d="M4623 715 c0 -7 6 -11 14 -8 7 3 13 6 13 8 0 2 -6 5 -13 8 -8 3 -14
-1 -14 -8z"/>
<path d="M521 664 c0 -11 3 -14 6 -6 3 7 2 16 -1 19 -3 4 -6 -2 -5 -13z"/>
<path d="M4625 661 c-3 -5 0 -13 6 -17 8 -4 9 -3 5 4 -11 19 5 14 21 -5 13
-16 13 -16 3 5 -11 23 -25 28 -35 13z"/>
<path d="M4655 540 c-3 -5 -2 -10 4 -10 5 0 13 5 16 10 3 6 2 10 -4 10 -5 0
-13 -4 -16 -10z"/>
<path d="M948 386 c-15 -11 -14 -13 5 -26 20 -12 21 -12 9 3 -9 10 -10 17 -2
22 5 3 10 1 10 -4 0 -6 5 -11 10 -11 14 0 12 17 -3 23 -7 3 -20 -1 -29 -7z"/>
<path d="M870 380 c0 -5 5 -10 11 -10 5 0 7 5 4 10 -3 6 -8 10 -11 10 -2 0 -4
-4 -4 -10z"/>
<path d="M906 373 c-6 -14 -5 -15 5 -6 7 7 10 15 7 18 -3 3 -9 -2 -12 -12z"/>
<path d="M838 363 c7 -3 16 -2 19 1 4 3 -2 6 -13 5 -11 0 -14 -3 -6 -6z"/>
<path d="M1250 360 c0 -5 5 -10 11 -10 5 0 7 5 4 10 -3 6 -8 10 -11 10 -2 0
-4 -4 -4 -10z"/>
<path d="M1360 349 c-12 -9 -12 -10 4 -5 11 4 23 1 28 -6 7 -10 9 -10 6 1 -6
20 -20 23 -38 10z"/>
<path d="M1415 320 c3 -5 11 -10 17 -10 6 0 17 -8 25 -17 10 -14 13 -14 11 -3
-2 8 -12 20 -23 27 -25 15 -38 16 -30 3z"/>
<path d="M1690 186 c0 -2 7 -7 16 -10 8 -3 12 -2 9 4 -6 10 -25 14 -25 6z"/>
<path d="M3176 107 c3 -10 9 -15 12 -12 3 3 0 11 -7 18 -10 9 -11 8 -5 -6z"/>
<path d="M4224 84 c-18 -14 -18 -15 4 -4 12 6 22 13 22 15 0 8 -5 6 -26 -11z"/>
<path d="M2190 80 c-24 -8 -23 -8 8 -9 20 -1 31 3 27 9 -3 6 -7 10 -8 9 -1 -1
-13 -5 -27 -9z"/>
<path d="M3096 82 c-3 -5 1 -9 9 -9 8 0 12 4 9 9 -3 4 -7 8 -9 8 -2 0 -6 -4
-9 -8z"/>
<path d="M3729 63 c-13 -16 -12 -17 4 -4 16 13 21 21 13 21 -2 0 -10 -8 -17
-17z"/>
<path d="M3891 64 c0 -11 3 -14 6 -6 3 7 2 16 -1 19 -3 4 -6 -2 -5 -13z"/>
<path d="M2355 60 c3 -5 8 -10 11 -10 2 0 4 5 4 10 0 6 -5 10 -11 10 -5 0 -7
-4 -4 -10z"/>
<path d="M2874 58 c-4 -5 -3 -12 0 -15 3 -4 6 -1 6 7 0 9 3 10 13 1 10 -8 14
-7 14 2 0 15 -25 18 -33 5z"/>
</g>
</svg>
