<svg xmlns="http://www.w3.org/2000/svg" xml:space="preserve" x="0px" y="0px" viewBox="0 0 128 128"><path fill="#FFF" d="M64 128c-17.1 0-33.2-6.7-45.3-18.7S0 81.1 0 64s6.7-33.2 18.7-45.3C30.8 6.7 46.9 0 64 0s33.2 6.7 45.3 18.7C121.3 30.8 128 46.9 128 64s-6.7 33.2-18.7 45.3C97.2 121.3 81.1 128 64 128M64 .9C47.1.9 31.3 7.5 19.4 19.4S.9 47.1.9 64s6.6 32.7 18.5 44.6 27.8 18.5 44.6 18.5 32.7-6.6 44.6-18.5 18.5-27.8 18.5-44.6c0-16.9-6.6-32.7-18.5-44.6S80.9.9 64 .9"/><g fill="#FFF" fill-rule="evenodd" clip-rule="evenodd"><path d="M38.5 16.7q.15 0 0 0c.5-.7.6-1.8 1.4-2.1.4.4.7.9 1 1.4.1.2.3.3.4.4-.2.9.6 1.2.7 2-.1-.1-.1.4 0 .3v.1q.15.3.3.3c-.1.8 0 1.5.3 1.9-.1-.1-.1.4 0 .3v.6c-.3.2.2.5.3.6.1.4-.1.9 0 1q.15.3.3.3c-.2 1.9.6 2.3.3 4.1-.1-.1-.1.4 0 .3v1.1q.15.3.3.3v3.1c-.1-.1-.1.4 0 .3v.1c0 .2.5.1.4-.1 0-.1.1-.1.2-.2.3-.1.1-.8.4-.8v-.1c.1-.1.4-.1.3-.3.2 0 0-.5.2-.5h.1c.2 0 .2-.3.2-.5 0-.1.1-.1.2-.2.3-.1.1-.8.4-.8v-.1c.2-.2 0-.7.1-1 0-.1.1-.1.2-.2.4-1.2.1-3.2.2-4.7-.1-.2-.4-.2-.3-.5 0-1.2-1.1-1.7-1-2.8h.1c.4-.1.3.4.7.3h.3q.15.3.3.3h.1c0 .1 0 .1.1.1v.1c.1.2.3.4.5.5.1 0 .1.1.2.2.4.5.9 1 1.4 1.4v.3c0 .3.2.2.3.3v.1q.15.3.3.3c-.1.6.5.6.3 1.4q.15.3.3.3v.3q.15.3.3.3v.3c.1.3-.2.3 0 .4q.15.3.3.3v1q.15.3.3.3v3.5q-.3.15-.3.3v1q-.3.15-.3.3v.7c-.3.2-.5.4-.7.7v.3c-.3.2-.5.4-.7.7v.3c-.9.3-1.3 1-2.2 1.2-.1 0-.2 0-.2.2-.4.2-1.1 0-1.6.1-.2.2-.4.4-.5.6v.9c-.1-.1-.1.4 0 .3v3.3q-.3.15-.3.3v.3q-.3.15-.3.3v.3c-.1.1-.2.3-.3.4v1.7q-.3.15-.3.3c.2.7-.4.7-.3 1.3-.2.5-1.5 1-.7 1.6v.1c-.2.2.2.4.3.5v.7q-.3.15-.3.3v2.8q-.3.15-.3.3c-.1.3-.1.3 0 .7q-.3.15-.3.3v.1c-.1 0-.1.5 0 .5 0 .6-.1 1.5 0 1.9.1.2.3.2.3.3.1.6-.2 1 .2 1.2.1 0 .1.2.2.2 0 .5-.1.7 0 1.1-.1-.1-.1.4 0 .3v.5q-.3.15-.3.3V65c.1.2.3.2.3.3s0 .2-.1.3c.5.3.4.7.4 1.4h-.1c0 .2-.2.2-.3.3 0 .1-.1.1-.1.2h-.1c-.2.1-.4.3-.5.5v.3q-.3.15-.3.3v.3q-.3.15-.3.3c-.2.3.1.6 0 1q-.3.15-.3.3c-.2.2.1.4 0 .7-.2.1-.3.3-.4.4-.2.1-.3.2-.3.6q-.3.15-.3.3c0 .1 0 .1-.1.1-.4-.4-1.7-1.3-1.9-1.9-.3-1 0-1.8-.3-2.3-.6-.9-1.7-1.2-1.4-2.8 0-.1 0-.1.1-.1h.1c.2-.2.2-.7.4-.9 0-.1 0-.3-.2-.3-.2-1.6 0-3.7-.1-5.5h.1c.5-.7.3-4 .1-4.9h-.1c-.3-.7.1-1.9-.2-2.6 0-.1 0-.2-.2-.2-.3-.9.1-2.4-.2-3.3-.1-.2-.3-.4-.5-.5s.1-.7-.2-.9c0-.1 0-.2-.2-.2-.4-.8.4-2.8-.4-3.2v-.1c0-.1 0-.3-.1-.3 0-.1 0-.2-.2-.2-.3-1.1-.1-2.4.3-3.1.1 0 .2 0 .2-.2.2 0 0-.3.1-.4.1 0 .2-.1.3-.2.1-.3-.2-.3-.3-.4 0-.1 0-.3-.1-.3-.1-.2-.3-.4-.5-.5-.2-.2-1 .1-1.2-.2V37c0-.3-.6-.1-.7-.3 0-.1 0-.2-.2-.2 0-.2-.5 0-.5-.2 0-.1 0-.2-.2-.2-.2-.1-.5-.2-.6-.3h-.1c-.2-.3-.4-.5-.7-.7s.1-.7-.4-.8c0-.1.1-.4-.1-.4v-.1c-.3-.5-.6-1-.7-1.6v-.1c-.1-.2-.3-.2-.3-.3v-.2c.1.1.1-.4 0-.3v-.2c.1-.3.1-1.3 0-1.6 0-.1 0-.2-.2-.2.1-.3.5-1.6.2-2.3v-.2c.1-.1.2-.3.3-.4v-.1c.2-.3 0-.8.3-1v-.1c.1-.2.2-.5.3-.6v-.1c.5-.9 1.2-1.6 1.5-2.8.8-.7 1.5-1.4 2.2-2.2h.1c.7.1.8-1.1 1.4-.5q-.15 0-.3.3c-.1.6-.7 1.1-.7 1.7-.1.1-.3.2-.3.3v.1c-.1 0-.1.5 0 .4v.2c-.1.1-.3.2-.3.3v.1c-.1 1.2-.1 2.9 0 4.1v.1c.1.2.2.3.3.4v.1c-.1.1-.1.7 0 .8v.1c.1.2.2.3.3.4v.3h-.1c0 .5.4.5.4 1v.1c.2.1.2.4.3.6v.1c.2.3.6.5.7 1v.1c0 .1.1.1.2.1.5-.5.3-1.6.3-2.5 0-1 .1-2-.1-2.7v-.2h.1q.15-.3.3-.3c0-.9-.2-2.1.3-2.6v-1.2c.1-.2.4-.2.3-.5 0-1.4.7-2.2.7-3.6.1-.2.4-.2.3-.5.3.6.7-.1 1-.9m-2.4 21.9c0-.1-.1-.1-.2-.2 0-.1-.1-.1-.1-.2 0-.2 0-.5-.2-.5h-.1c-.2-.2-1.2-.1-.8.3h.1c0 .2.3 0 .4.1-.1.5.2.6.4.8v.1c.4.4.8-.3.5-.4m3.4-21c-.2-.2-.4.2-.3.5.2 0 .2.2.4.2 0-.1.1-.2.1-.3v-.1c0-.2-.1-.3-.2-.3m1.1.7c0-.2-.4-.1-.3.1v.2c0 .2.6-.1.3-.3 0 .1 0 0 0 0m1.7 18.5c.2-1.4.1-3.1.1-4.8 0-1.6.3-3.6 0-4.8-.1-.5-.6-1-.3-1.7-.6-.9-.5-2.5-1.4-3.1 0 .1-.1.1-.1.2v.1c-.1.1-.1.8 0 .9v.4c-.1.1-.3.2-.3.3-.2.2.1.3 0 .6-.1 0-.1.5 0 .4v1.6c-.1 0-.1.5 0 .5v5.4c-.1.2-.1.9 0 1.1 0 .8-.1 1.3 0 2-.3.4.1.9.3 1 .1.3-.2.9.2.9.1.1.4 0 .5-.1v-.1c.1-.2.7 0 .7-.3.1-.2.2-.3.3-.5q0 .15 0 0m-3.4-13.6c0-.3-.4-.2-.3.1-.2.1 0 .5-.1.8-.1 0-.2.1-.3.2v.3c-.1.1-.3.2-.3.3v.1c-.1 0-.1.5 0 .4v.2c-.1.1-.3.2-.3.3v.1c-.1 0-.1.7 0 .7.1.4-.3.3-.3.7-.1 1.6-.1 3.8 0 5.4v.2c-.1.2-.1.9 0 1.1v.3c-.1 0-.1.6 0 .6v.1c.1.2.2.3.3.4v.3c-.4.7.3 1.6.8 1.5h.4c-.1.1.4.1.3 0 .1 0 .2 0 .2-.2.1-1 .1-2.5 0-3.5v-.1c-.5-.2-.3-1.5-.3-2.4 0-2.7 0-5.7-.1-7.9m-8 3.9c.2-.2 0-.7-.3-.6-.2.5-.5 1.1-.8 1.6v.1c-.1.2-.1.9 0 1.1 0 .4-.3.3-.3.6-.2.7-.2 1.9.3 2.2v.2c-.2.6-.1 1.7.3 1.9v.1c-.3.3.1.8.3.9v.2c.3.5 1 2 1.7 2.1h.2c.3-.4 1.3-.8.8-1.4H33c-.1-.1-.1-.4-.3-.3-.1-.1-.1-.4-.3-.3-.2-.1 0-.5-.2-.5v-.1c-.3-.4-.5-.9-.7-1.3.1-.3-.2-.2-.3-.3 0-.1 0-.3-.1-.3 0-.3-.3-.2-.3-.5.1 0 .1-.5 0-.5v-.1c0-.1-.1-.2-.3-.2.3-1.6-.2-3.6.4-4.6q0 .15 0 0m19.1.7c0-.3-.4-.3-.4 0-.1 0-.1.5 0 .5.2 1.7-.3 2.6-.3 4q-.3.15-.3.3v.6c-.1.2-.4.1-.3.4v.3c-.2.1-.4.3-.5.5-.1 0-.1.1-.2.1.1.4-.1.5-.3.7-.4.4-.8.7-1.1 1.1-.1.2 0 .1 0 .3.3.3.5.6.9.9.1 0 .1.1.3.1 0-.1.1-.1.2-.1.2 0 .2-.2.3-.3.1 0 .2 0 .2-.2.3-.1.4-.4.6-.5.3-.1.1-.8.4-.8v-.1c.1 0 .1-.2.1-.3s.1-.1.2-.2c.3 0 .1-.6.3-.7h.1c.3-.1.1-.8.2-1.2v-.1c.2.1.2-.2.3-.2-.5-1.5 0-3.8-.7-5.1q0 .15 0 0m-1.3.4c0-.3-.2-.2-.4-.2-.1.3 0 .3 0 .7-.1-.1-.1.4 0 .3.1.3-.1.5-.2.7-.1 0-.2 0-.2.2 0 .4 0 .7-.2.9-.1 0-.1 0-.1.1-.1.2-.4.2-.4.4v.3c-.1.1-.4.1-.3.3-.1.5-.4.8-.5 1.2h-.1c-.2.2-.4.4-.5.6h-.1c-.1 0-.1.1-.2.1 0 .5.4.6.7.9v.3c-.1.3.5.2.4 0v-.1c.1-.1.3 0 .3-.3.1 0 .1-.2.1-.3 0-.2.3-.1.3-.3.2-.1.3-.2.4-.3 0-.2 0-.5.1-.6h.1c.2-.8.7-1.4.5-2.6 0-.1.1-.1.2-.2.4-.3.1-1.4.2-2-.1 0-.1 0-.1-.1m-16.4.9c-.3-.2-.2-.6-.4-.9-.5-.1-.4.9-.3 1.2v.3c-.3.4 0 1.1.3 1.2v.2c-.1 1.3.8 2.4 1.4 3.3v.2c-.2 0 0 .4.2.3h.3c.4-.1 1-1.1.3-1.5-.1-.2-.3-.3-.4-.4 0-.1 0-.3-.1-.3v-.1c-.2-.1-.2-.4-.3-.6.1-.3-.2-.2-.3-.3 0-.1 0-.3-.1-.3.1-.3-.2-.2-.3-.3-.1-.2.1-.6-.1-.7v-.2c-.1 0-.2-.1-.3-.2.1-.3.3-.7.1-.9q0 .15 0 0m3.2 6c-.1-.1-.1-.3-.3-.3 0 .1-.1.1-.1.2v.1c-.1 0-.1.1-.2.2-.1 0-.2 0-.2.2-.2.2-.2.9.2.9h.3c.1.1.3.2.4.3h.2c0 .2.3 0 .3-.1v-.1c.2 0 0-.5.2-.5s.2-.1.2-.3-.4-.2-.6-.2c0-.2-.2-.2-.4-.4q0 .15 0 0m9.2-.2c-.1 0-.3 0-.3.2-.3.2-.5.4-.7.7-.2.2.1.4 0 .7-.1.2.3.4.3.2h.2c.3 0 .3-.3.4-.3h.3c.6-.5.2-1.4-.2-1.5m-.1 2.8s-.1 0 0 0c-.3.3-.7.5-.9.9.1.4-.3.8.2.9.3-.5.6-1 1-1.4.1 0 .2 0 .2-.2.3-.1-.4-.5-.5-.2m-5.5 1.7c.1 0 .1-.1.2-.1-.1-.3-.4-.6-.7-.7 0 .1-.1.1-.1.2v.2c.1.2.4.1.3.4zm2.2-.6c0-.1-.1-.1-.1-.2q-.3 0-.3.3c-.1.1-.3.1-.3.3v.3h.3c.1-.3.6-.5.4-.7m-3.9 2c.4-.2-.3-.7-.5-.8 0 .1-.1.1-.1.2s0 .3.2.3c0 .1.1.1.2.2-.1.1 0 .1.2.1m4.9 0c.2 0 .3 0 .4-.1.1-.4-.5-.4-.4.1m-3.3.7c-.2 0-.2.1-.2.3-.2.1 0 .5.2.4h.1c.2.1 1.1.2 1.1-.1v-.2c-.1-.2-.3-.3-.4-.4h-.1c0-.1-.6-.1-.7 0m-2.6.7c.1 0 .1-.1.2-.1q0-.3-.3-.3c0 .1-.1.1-.1.2v.3c0-.1.1-.1.2-.1m7 0c.2 0 .3 0 .4-.1 0-.4-.6-.5-.4.1M40.3 44c-.1-.3-1-.3-1 0 0 .1 0 .2.1.3.1 0 .1.1.3.2-.1.3.2.2.3.2-.1-.4.3-.3.3-.7m-2.5 2.1c0-.1-.1-.1-.1-.2q-.3 0-.3.3c.1.5.7 0 .4-.1m1.6.3c0 .2.1-.1.3-.1q0-.3-.3-.3c0 .1-.1.1-.1.2-.1 0-.1.2.1.2m2.4 0c0 .2.1-.1.3-.1q0-.3-.3-.3c0 .1-.1.1-.1.2-.1 0-.1.2.1.2M39.2 54c0 .2 0 .3.1.4q.3 0 .3-.3c-.1-.1-.2-.2-.4-.1m1.4 1.8c-.1 0-.1.5 0 .4v.1c.1.3.5.1.4-.3v-.1c.1-.2-.3-.3-.4-.1m-2.8 1q0 .15 0 0c-.1.5-.1 1.4 0 1.8 0 .1 0 .2.2.2.4.1.3-1.6.2-2.1-.2.1-.3 0-.4.1m1.1.7s0 .1 0 0c-.2.2 0 .6.1.6h.1c.2.3-.1 1.3.3 1.5.6-.1.5-1.8 0-1.9v-.1c-.1-.2-.5-.3-.5-.1M37.1 62v.2c-.2.1 0 .5.2.4 0 .2.6.1.5-.1 0-.1 0-.3-.2-.3 0-.1-.1-.1-.1-.2.1-.1-.3-.2-.4 0m2.1.3H39c-.3-.1-.2.2-.2.3.2.1 1 .2 1-.1v-.3h-.3c.2-.1-.3-.1-.3.1m2.1 0c0 .2 0 .3.1.4q.3 0 .3-.3c-.1-.1-.2-.1-.4-.1M38.4 64c-.4-.1-.3.6 0 .4h1c.2 0 .1.3.3.3.5.4 1.3-.3 1.2-.5-.3-.4-1.3-.1-1.9-.2 0-.1-.6-.1-.6 0m2.7 1.7c-.1-.2-.4 0-.5 0v.3c.1 0 .2.1.3.1h.1c.2 0 .4-.2.3-.3 0 0 0-.1-.2-.1m-3.6.1v.3c.2.2.5 0 .4-.3 0 0-.4-.2-.4 0m1.4 2.4c.5.4 1.1-.2.7-.7-.4 0-.7.3-.7.7m-.4 1c0 .2 0 .3.1.4q.3 0 .3-.3c0-.1-.2-.1-.4-.1m1.8.4c-.2-.2-.9-.1-1 0 0 .2 0 .4.3.3h.8c-.2-.1 0-.1-.1-.3q0 .15 0 0m-1 1.5c0-.2-.4-.2-.4 0v.1c-.1 0-.1.6 0 .6v.1c.3 1.2 1.9 0 .8-.6-.2 0-.3-.1-.4-.2M26.2 31.5h.3c.2.4 0 1.1.1 1.6h-.1c-.4 0-.9-.1-1 .3 0 .1 0 .1-.1.1-.3 0-.5 0-.6.3 0 .1 0 .1-.1.1-.3.1-.4-.1-.5-.3 0-.2.1-.4-.2-.3-.3-.3.3-.4.3-.7h.3c.2-.1.3-.2.4-.3h.3c.5-.3.7-.6.9-.8m27 0h.3q.15.3.3.3c.4.3.8.6 1.4.7.1.2.3.4.5.5v.6c-.1 0-.1.1-.1.2-1.2-.2-2.2-.5-2.6-1.5v-.1c.2.1.2-.2.3-.2.2-.3-.2-.2-.1-.5m-26.3 2.4c.2 0 .2-.3.4-.3.1.2.5.3.3.6-.1 0-.2 0-.2.2-.2.1-.7.4-.3.5.1 0 .3 0 .3-.2.2-.2.7.3.5.5-.3.1-.5.4-.7.6-.2.1-.6-.1-.7.1-.3-.1-.2.2-.3.3-.2 0-.5 0-.5.2v.1c-.1.2-.7-.1-.9.2-.3-.1-.2.2-.3.3h-1.1c0-.3.4-.3.4-.6.1 0 .2-.1.2-.3s-.5-.3-.6-.1h-.2c0-.1-.1-.1-.2-.1 0-.1 0-.2.1-.3h.3c.3-.2.5-.4.7-.7h.3q.3-.15.3-.3h.3q.3-.15.3-.3h.7q.3-.15.3-.3c.4-.1.5-.1.6-.1m25.8-.2c.1 0 .2-.1.3-.1q.45.45 1.2.6.15.3.3.3h.3q.15.3.3.3h.3q.15.3.3.3h.3q.15.3.3.3h.1v.3c-.2.1-.7-.1-.8.1h-.1c-.1 0-.1 0-.1.1 0 .2.3.5.3.3.2.1.4.1.3.4v.1c-.5.4-.8-.1-1.2-.3-.1-.1-.4 0-.5 0-.2-.1-.3-.3-.5-.3s-.4.1-.5 0c-.2-.1-.3-.3-.5-.3-.5-.2-.9.1-1-.3-.1 0-.1 0-.1-.1v-.8c.4-.1.4.6.8.3h.1c.1 0 .1-.1.2-.1 0-.4-.5-.3-.7-.4v-.3c.3-.3.7-.1.6-.4m-24.3 6.4h.3c.2.2 0 .3-.1.4-.1 0-.1 0-.1.1-.1 0-.1.2-.1.3-.2.2-.4.4-.6.7-.1.1-.4.1-.3.3-.5.4-1 .9-1.4 1.4-.3.2-.6.4-.8.8-.1 0-.4-.1-.4.1-.1 0-.2 0-.2.2q-.3.15-.3.3-.15.15-.3 0v-.3c.4-.6 1.3-1 1.4-1.6v-.1c.3-.4.7-.6 1-1 .1 0 .1 0 .1-.1.2 0 .2-.2.5-.2.4-.3.8-.9 1.3-1.3m23.4.9c-.1-.3-.5-.3-.3-.8.3 0 .2.2.4.3h.3c1.2 1.2 2.4 2.5 3.6 3.6v.4c0 .2 0 .3-.1.3h-.1c-.2-.3-.5-.5-.8-.8l-.6-.6c-.1 0-.1 0-.1-.1l-1.2-1.2c-.1 0-.1-.1-.2-.2l-.6-.6zm-22.7-.2c.2 0 .3.1.4.2 0 .1 0 .1.1.1 0 .1.1.1.2.2.1.2-.2.2-.2.3-.1 0-.1 0-.1.1l-.6.6c-.1 0-.1 0-.1.1-.5.4-1 .9-1.4 1.4-.1.1-.4.1-.3.3-.1.1-.4.1-.3.3-.1.2-.1.5-.3.6v.1c-.3.2-.5.4-.7.7-.2 0 0 .5-.2.5-.2.1-.4.3-.5.5-.1 0-.2.1-.3.2h-.2c0-.1-.1-.1-.2-.1 0-.1 0-.2-.1-.2v-.2c.2-.3.5-.5.7-.8 0-.1.1-.1 0-.3.3-.4.7-.7 1-1.1 0-.3.2-.4.3-.7l.6-.6c.1 0 .1 0 .1-.1.6-.5 1.2-1.1 1.7-1.7v-.1c.3.1.2-.3.4-.3m21.3.2c0-.1.2-.1.2-.2h.3c.9 1 1.9 2 2.9 2.9v.3c.3.4.7.7 1 1v.3c.3.4.7.7 1 1v.3c-.1.4-.5.3-.8.4-.1-.2 0-.7-.3-.7-.1-.2-.3-.3-.4-.4-.3-.2-.3-.6-.5-.9h-.1c0-.1-.1-.1-.1-.2l-.6-.6c-.2-.3-.5-.5-.8-.8 0-.2 0-.5-.2-.5h-.1c0-.1-.1-.1-.1-.2-.3-.3-.6-.8-1-1v-.1c-.2-.2-.5-.2-.4-.6"/><path d="M29.8 42.2c.4 0 .6 0 .8.2 0 .1 0 .1.1.1 0 .1.1.1.2.1 0 .1.5.1.4 0h.1l.3.3v.1c-.1 0-.1.7 0 .7v.1c-.2.2-.4.4-.5.6-.1 0-.2 0-.2.2-.2 0 0 .5-.2.5-.1 0-.2 0-.2.2-.2 0 0 .5-.2.5-.3 0-.2.3-.4.3-.1 0-.3.3-.1.3v.1l-.3.3c-.1 0-.1 0-.1.1-.4.1-.4.5-.5.9-.1 0-.2 0-.2.2-.2 0 0 .5-.2.5-.1 0-.2 0-.2.2-.4.1-.4.5-.5.9-.1 0-.2 0-.2.2-.2 0 0 .5-.2.5-.1 0-.2 0-.2.2-.1.1-.3.1-.3.3v.1c-.2.7-.8.9-1 1.6h-.2l-.6-.6v-.1c.2 0 .1-.3.2-.3s.2 0 .2-.2c.4-.1.4-.5.5-.9q.3 0 .3-.3c.1 0 .1-.1.2-.1.2-.1.1-.5.3-.7q.3 0 .3-.3c.4 0 .3-.5.4-.8.1 0 .2 0 .2-.2.1-.1.3-.1.3-.3v-.1c.1-.2.1-.5.3-.6q0-.15.3-.3c.3 0 .1-.6.3-.7.1 0 .2 0 .2-.2.2 0 0-.5.2-.5h.1c.3 0 .1-.6.3-.7h.1c.2-.4.4-.7.6-1h.1c.3 0 .3-.7 0-.7h-.2c-.3.1-.1.7-.4.8q0 .15-.3.3c-.3 0-.1.6-.3.7h-.1c-.3 0-.1.6-.3.7h-.1c-.3 0-.1.6-.3.7-.1 0-.2 0-.2.2-.1.4-.4.5-.5.9-.1 0-.2 0-.2.2-.1.2-.1.5-.3.6 0 .3-.5.2-.4.5-.1.1-.3 0-.3.3-.2 0 0 .5-.2.5-.3 0-.3.3-.4.4-.3 0-.1.5-.3.6-.1 0-.2 0-.2.2-.1.1-.3.1-.3.3v.1c-.2 0 0 .5-.2.5H25c-.2 0-.2.2-.3.3h-.3l-.3-.3c.3-.5.3-.8.6-1.2.1 0 .1 0 .1-.1.1-.1.3-.1.3-.3v-.1c.2 0 0-.5.2-.5.7-.4.8-1.3 1.1-1.8.3-.2.5-.5.6-1 .1 0 .2 0 .2-.2.5-.3.6-1 .9-1.6.1 0 .2 0 .2-.2.1-.7.8-.8.9-1.6h.1c.4 0 .2-.5.5-.6m19.5.2c.1-.4.5.1.7-.2.2.2.4.4.6.5v.3q.15.3.3.3v.3c.2.3.4.5.7.7v.3q.15.3.3.3v.3c.2.3.4.5.7.7v.3c.2.3.4.5.7.7v.3c.2.3.4.5.7.7v.3c.2.3.4.5.7.7v.3c0 .3.2.3.3.4v.3q.15.3.3.3v.3c0 .3.4.3.2.6h-.3c0-.2-.5 0-.5-.2.1-.5-.2-.5-.3-.7-.1-.1-.1-.3-.3-.3.1-.5-.2-.6-.3-.8-.1-.1-.1-.3-.3-.3q0-.3-.3-.3c-.2-.1-.3.5 0 .4.1.1.1.3.3.3q.3.15.3.6l.3.3c0 .2.2.2.3.3 0 .4.1 1-.2 1.2h-.3q-.15-.3-.3-.3c-.1 0-.1-.1-.2-.2s-.1-.3-.3-.3v-.1c0-.2 0-.5-.2-.5h-.1c0-.1-.1-.1-.1-.2-.3-.2-.3-.6-.5-.9h-.1c-.2-.1.1-.7-.3-.7-.1 0-.1-.1-.2-.2s-.1-.3-.3-.3v-.1c0-.4 0-.6-.3-.6v-.1c0-.2 0-.5-.2-.5h-.1c0-.1-.1-.1-.1-.2-.6-.9-1-2-1.7-2.7v-.1c0-.3 0-.5-.3-.6-.1 0-.1 0-.1-.1-.2-.2-.5-.5-.3-.9.3 0 .2-.4.5-.3q.3 0 .3.3c.1.3.3.1.4 0 .3.5 0 .5-.1.4m.3 1.1c.1.3.5.1.4-.3-.1-.1-.4-.1-.4.1zm.4.8c.2.2.4 0 .4-.3-.2-.2-.5-.2-.4.3m.6.3c-.1-.3-.3.1-.3.3.1 0 .2.2.3 0h.1c.1.1.1-.3-.1-.3m.6 1c-.2-.1-.1-.3-.3-.3 0 .1-.1.1-.2.1 0 .4.3.5.5.7 0 .3.1-.1.3-.1-.1-.3-.2-.4-.3-.4m.1.8c0 .2 0 .3.1.4q.3 0 .3-.3c-.1-.2-.1-.2-.4-.1m.8.9q0-.3-.3-.3c-.1.1-.2.2-.2.4.3 0 .3.3.4.4.1 0 .2-.1.3-.2.3 0 0-.3-.2-.3m.7 1c0-.2-.2-.4-.3-.3-.1-.1-.1.4 0 .3h.1c.1.1.2.6.4.3.1 0 .1 0 .1-.1.2.1-.1-.2-.3-.2m-20.9-1.9c.2-.4.6-.9 1-.5 0 .1 0 .2.2.2 0 .2.5.6.5.2.3-.3.4.3.7.3v.3c-.2.1-.3.2-.4.3 0 .1-.1.4.1.4 0 .2-.1.4-.3.4-.2.1-.3.8-.1 1v.2c-.1.2-.6.4-.3.6v.1c-.3.4-.6.6-.9 1h-.3c-.9.4-1.8 2.1-1.6 3.6.3.4.7.7 1 1.1 0 .3-.2.3 0 .5-.6.2-.2 1.5-.7 1.8v.1c-.1.1-.1.7 0 .8v.2c-.2.1-.6.4-.3.7v.1c.1.2.3.2.3.3v.1c-.1 0-.1.5 0 .5v.1c.1.2.3.2.3.3v.2c-.1 0-.1.6 0 .6-.1.2-.2.4-.5.3-.4-.9-.7-1.9-1.2-2.7v-.1c.1 0 .1-.7 0-.7v-.1c.1-.1.3-.2.3-.3v-.1c.2-.3 0-.8.3-1v-.1c.1-.4.3-1.7-.2-1.9h-.3c-.1-.2-.4-.4-.5-.6v-.2c.1 0 .1-.2.2-.3.1 0 .2 0 .2-.2.2-.3 0-.9.3-1v-.1c.2 0 0-.5.2-.5.1 0 .2 0 .2-.2.1 0 .1-.5 0-.4 0-.4.3-.3.3-.6.2 0 0-.5.2-.5.1 0 .2 0 .2-.2.1-.1.4-.1.3-.3.1 0 .2-.1.3-.2.5.2.8-.6 1.1-.9.1-.1.2-.9-.1-.9-.1 0-.3 0-.3.2q-.3.15-.3.3c-.2 0-.2.2-.5.2-.6.5-1.1 1-1.6 1.6v.1c-.5.6-.7 1.5-1 2.3v.1c-.2.3 0 1-.1 1.4 0 .2-.3.1-.3.3-.1.5.4 1.1.7 1.5v.3c-.2 2.3-1 4.1-2.3 5.4h-.3c-.2-.1 0-.6-.2-.6V61c.1-.1.3-.2.3-.3q.15-.15 0-.3c.1-.1.3-.2.3-.3s.1-.1.2-.3c.3.1.1-.3.2-.4s.3-.2.3-.3V59c.7-.8.6-2.8-.3-3.2v-.1c.3-.4-.2-1.6.3-1.8v-.1c.1 0 .1-.5 0-.4 0-.4.3-.3.3-.6.1 0 .1-.5 0-.4 0-.4.3-.3.3-.6.1-.2.1-.5.3-.6 0-.4.4-.8.5-1.3.3-.1.3-.3.5-.5q.3-.15.3-.3c.3-.2.5-.4.9-.5.1 0 .2 0 .2-.2.1-.1.3-.1.3-.3V48c.2 0 0-.5.2-.5.1 0 .2 0 .2-.2.6-.2.6-.9.4-.9m1 1.3h-.3c0 .2-.1.4.2.3 0 .2.3-.1.3-.3-.1.1-.1.1-.2 0m14-1.9c0-.2.3-.1.3-.2.2.2.4.4.6.5v.7c.1.2.2.3.3.4v.3c.3.3.7.9 1 .9h.1c.5.4.8.9 1.3 1.2v.3q.15.3.3.3v.3q.15.3.3.3v.3q.15.3.3.3v.3q.15.3.3.3v.7q.15.3.3.3c-.1.6.1.9.3 1.1.1.4-.3.4-.3.6v.7q-.3.15-.3.3c0 1.2-.2 2.7.3 3.5.4.5.9 1 1.4 1.4 0 .3.1.6-.1.8-.2.1-.8.1-.9-.1 0-.2 0-.5-.2-.5-.1 0-.1-.1-.2-.1-.1-.4-.5-.5-.7-.8 0-.4 0-.6-.3-.6v-.1c0-.1 0-.3-.1-.3 0-.1 0-.2-.2-.2 0-.8-.3-2.3-.1-3.1 0-.2.3-.3.3-.5.1-.6 0-2-.2-2.3h-.1c-.2-.2.1-1-.3-1-.1 0-.1-.1-.2-.2 0-.2 0-.5-.2-.5-.1 0-.1-.1-.2-.2 0-.2 0-.5-.2-.5-.1 0-.1-.1-.2-.2 0-.2 0-.5-.2-.5-.1 0-.1-.1-.2-.1 0-.3-.3-.3-.4-.4 0-.1 0-.2-.2-.2-.1-.1-.1-.4-.3-.3-.3-.1-.5-.3-.7-.4-.2 0-.1-.3-.3-.3-.1-.2-.1-.4-.4-.3-.1 0-.1 0-.1.1v.2c-.3.2.2.5.3.6v.7c.6.7 1.5 1 2.1 1.7v.7q.15.3.3.3c-.2 1.2.8 1.3.7 2.4-.4.3-.7.7-1 1-.2 2 1.1 2.4.7 4.5q-.3.15-.3.3v.3q-.3.15-.3.3v.3q-.3.15-.3.3c0 .1 0 .1-.1.1-.3 0-.3-.3-.5-.3v-.1c.2-.1.4-.3.3-.7 0-.1 0-.1.1-.1.4-.2.4-1.8.1-2.2-.1 0-.1-.1-.2-.2-.1-.3.1-.9-.1-1 .1-.3-.3-.1-.3-.3-.1-1.2-.1-2.4.7-2.8 0-.1 0-.1.1-.1.2 0 .4-.5.2-.6.1-.3-.2-.2-.3-.3 0-.3.1-.8-.2-.9-.1 0-.1-.1-.2-.2 0-.1 0-.3-.1-.3v-.1c-.3-.1-.2-1.1-.7-.8-.3 0-.2-.4-.5-.3-.1-.1-.1-.3-.3-.3h-.3c0-.1-.2-.1-.3-.2 0-.4.1-1-.3-1v-.1c0-.2 0-.5-.2-.5h-.1c0-.9-.6-1.2-.4-2.3 0-.1 0-.1.1-.1q.3-.15.3-.3c.1 0 .1.1.2.1 0 .2.1.2.3.2 1 .6.9.4.9.1m.2 1.9c.2 0 .2-.4.2-.6-.1-.1-.6-.2-.4.2-.3.1.1.3 0 .4z"/></g><g fill="#FFF" fill-rule="evenodd" clip-rule="evenodd"><path d="M55.4 90.8h.2c.3 0 .2.4.5.3.2 0 .4 0 .4.2q.15.3.3.3c0 .2 0 .5.2.5.1 0 .1.1.2.1 0 .4.5.2.7.3-.1.4.5.1.7.3v.1q.15.3.3.3c0 .3 0 .5.3.5.1.3.1.9.1 1.3 0 .2 0 .4.2.4.3 0 .1.5.2.8v3.5c-.8.5-2.1.4-3.5.4-.3-.5-1.6-.1-1.9-.7-2.5-.2-5.7.4-7.6-.3-.1-.2 0-.7-.3-.7-.1 0-.1 0-.1-.1-.5-.6-1.5-1.2-2.3-1.2h-.1c-.2 0-.1.3-.3.3s-.3.4-.1.4c.2.2.4-.1.8 0 .2.1.2.5.2.9v.1c-.2 0-.3 0-.3-.1v-.1c-1.2-.2-2.1-.6-3.6-.5-.1 0-.1 0-.1-.1-.5-.6-2.1-.1-3-.3-.2 0-.1-.3-.3-.3q-.15-.15 0-.3c.4.1.8-.1 1.4 0q.3-.15.3-.3c.3-.1.7.1.9-.1v-.1c.2-.4 1.1 0 1.4-.3v-.1c.3-.3 1-.1 1.6-.2q.15.3.3.3c.9.1 1.7 0 2.8 0q.15.3.3.3h.3q.15.3.3.3h.3c.2.3.4.5.7.7h.1c0 .1 0 .1.1.1v.1c.1.2.3.4.5.5h.2c0 .1.5.1.4 0h.4c0 .1.5.1.4 0h.3c.3 0 .3-.3.4-.3s.4.1.4-.1.2-.2.3-.3c.1 0 .1 0 .1-.1.2-.1.2-.2.5-.2.3.4.7.7 1 1 1.1.3 1.6-.4 2.8-.3q.15.3.3.3h.4c0 .1.5.1.5 0 .4-.1 1.3.2 1.4-.3.1 0 .1-.1.2-.1.2 0 .2-.3.2-.5 0-.1.1-.1.2-.2.3-.1.1-.7.5-.8 0-.1 0-.2-.1-.2 0-.1 0-.1-.1-.1-.3-1.2-.1-3-1-3.5-.9 0-1.5-.6-2.3-.3-.6.2-.8.8-1.2 1.1-.1 0-.1 0-.1.1-.2.1-.3.3-.4.4v.3c-.1.2-.7-.1-.9.2-.1 0-.2 0-.2.2-1.1.4-2.5.5-4.1.4q0-.3.3-.3c.7.2.6-.4 1.1-.3.3 0 .2-.2.3-.3.3 0 .3-.3.4-.3h1c.4-.2.6-.6.9-.9.4-.1.4-.5.9-.5.3 0 .3-.2.4-.3.1 0 .4.1.4-.1v-.1c.1-.1.3-.1.3-.3v-.1c.4.2 0-.6.4-.7m-22.8 7.4c.2-.1.2-.2.5-.2q.15.3.3.3h.3q.15.15 0 .3c-.1 0-.1.1-.2.2-.3.2-.8 0-1.2.1-.1 0-.1 0-.1-.1.1-.2.2-.4.4-.6 0 .1.1.1 0 0m-1.4.2h.3c.1.2.3.3.4.4 0 .1 0 .2-.1.3-.1 0-.1.1-.2.2q-.15.15-.3 0c0-.1 0-.2-.2-.2 0-.1-.1-.2-.2-.3v-.1c.1-.1.1-.3.3-.3m2.6 2.4c.3 0 .2-.5.7-.3.1.3.6.4.3.7-.1 0-.1.1-.2.2-.1 0-.1.1-.2.2h-.1c-.2.1-.2.3-.6.3-.1 0-.1 0-.1-.1.2-.4.1-.8.2-1m27.1-22.9c.2 0 .2-.2.3-.3h2.7c.1 0 .1.1.2.2-.1.5.3.4.3.8-.3 0-.6 0-.9-.1v-.1c0-.3-.9-.2-1-.1v.1c-.1.2-.6.2-1 .2-.2.1-.7-.1-.8.1v.1c-.2.1-.2.2-.5.2h-.8c-.1-.1-.1-.2-.1-.4 0-.1.1-.1.2-.2.1 0 .3 0 .3-.1.3.1.1-.3.3-.3.4-.1.8.1.8-.1m-2.2 3.6v-.3c.3-.2 1.1-.2 1 .3-.1 0-.1.1-.1.2h-.7c-.1 0-.2-.1-.2-.2m4.7 17.6h.3c.2.1.1.6.3.7h.3c0 .1.1.1.2.2v7.6c.1.4.4.5.7.8v1.5c.1.7-.1 1-.3 1.4v1.4q-.3 0-.3.3v.3q0 .3.3.3c.1 0 .1 0 .1.1.2.5 1.3.1 1.7.3v.3c0 .1-.1.1-.1.2h-.1c-.2.3-.6.2-.9.4 0 .9 1.4.5 1.9 1h.1c.7.3 1.4.7 2.4.8.1.2.1.6.3.7h2.5c.2.2.1.8-.1 1h-.2c-.2-.2-.7-.1-.7.2-.2.3-.4 0-.8.2q-.15-.3-.3-.3h-.1c-.3-.2-1.1-.1-1.2.1 0 .4.5.3.3.8v.1q-.3 0-.3.3c-.3.3-.6.1-1.1.2q-.15-.3-.3-.3h-.3q-.15-.3-.3-.3h-.3q-.15-.3-.3-.3h-.3q-.15-.3-.3-.3h-.1c-.2-.1-.5-.2-.6-.3h-.2c-.1-.1-.9-.1-1 0h-.1c-.1-.1-.3-.2-.4-.3-.5.1-.4-.3-.8-.3 0-.1-.6-.1-.6 0-.3 0-.2.4-.6.3-.2-.2-.4.2-.5.3H61c.1-.1-.4-.1-.3 0h-.1q-.3.15-.3.3H60c0-.1-.5-.1-.5 0h-.2c-.1-.3-.6-.3-.5-.9.1-.1.4 0 .4-.2h.1c.3-.2.5-.6 1-.7.3.1.2-.2.3-.3.3-.4 1-.3 1.1-.8h.3c.1.1.8.1 1 0h.1c0 .2.5 0 .5.2v.3c.3.7 1.5.6 2.2.9 0 .1 0 .1.1.1 1.2.3 2.1.8 2.9 1.5.2-.1.6.1.7-.1h.1c.2-.3-.3-.5-.4-.7-.2-.1-.2 0-.4-.1-.1-.1-.1-.3-.1-.5-.1-.1-.3-.1-.5-.1q-.15-.3-.3-.3h-.1c-.4-.2-1.1 0-1.6-.1-.4-.1-.5-.8-.9-.6h-.2q-.15-.3-.3-.3c-.2-.1-.1 0-.3 0-.3-.2 0-.8-.5-.8v-1.9c0-.9-.1-1.9.3-2.3v-2.6c0-.3-.2-.3-.3-.4v-3.4c0-.3-.2-.3-.3-.4v-.3c0-.3-.2-.3-.3-.4v-1.3c-.1-.4-.5-.5-.3-1.1 0-.1.1-.1.2-.2.3 0 .1-.5.3-.6.1-.1.2-.1.4-.1-.8-1-.7-1.1-.6-1.2m29.1.3h.7c.1.1.1.5 0 .6h-.3c-.1 0-.1-.1-.2-.1 0-.1 0-.2-.2-.2q-.15-.15 0-.3"/><path d="M61.4 104.3c.2.1.5-.1.7.2v2c.7 1 .2 3.3.3 4.8v1.1c-.3.1-.4.5-.3 1-.3.2-.6 0-.8.4-.6.4-1 1-1.6 1.5-.1 0-.1-.1-.3 0q-.3.15-.3.3h-.3c-.3.2-.5.4-.7.7h-.3q-.3.15-.3.3h-.2c0-.1-.5-.1-.4 0h-.1q-.3.15-.3.3h-.3c-.8-.1-2.3-.1-3.1 0-.2 0-.4 0-.4-.2 0-1.4 2.5-.4 3.5-.9.3.1.2-.2.3-.3l.6-.6c.1-.1.2-.2.3-.2.1.2.3-.1.3-.2s.2-.1.3-.2c.2.3.5-.2.6-.3h.2c.2.2.7.1.7-.2v-.1q.3 0 .3-.3c0-.1 0-.1.1-.1.3-.3.8-.6 1-1v-.1c-.1-.6.3-.6.3-1v-.2c-.1-1.8.2-4-.2-5.5h-.1c-.1-.1-.1-.3.1-.3s.2-.1.2-.3c-.1 0-.2-.5.2-.6"/><path d="M64.9 93.4c.1.1.1.3.3.3v.3c0 .2.4.2.4 0s0-.4.2-.5h.1c.1-.1.1-.2.1-.4v-1.9c0-.2.4-.1.3-.4.3 0 .3-.3.5-.4.3 0 .2-.6.1-.8-.1 0-.2.1-.3.2-.3.2-.7.8-1.1.3 0-.1 0-.1-.1-.1 0-.1-.2-.1-.3-.1-.1-.1-.2-.2-.2-.3-.1-.5-.8-.5-.7-1.2v-1.2c.1-.6-.8-.3-1.2-.3-.2 0-.1-.3-.3-.3 0-.1-.1-.1-.2-.2v-.1c0-.2-.1-.2-.3-.2 0 .1-.1.1-.1.3v2.7c-.1.1-.3.2-.3.4v1.3c0 .2 0 .5.2.5s.2.2.2.4v.7c0 .4.5.3.3.9v.2c0 .3.3.3.3.5v.3c.1 0 .2.1.3.2-.1.3.3.2.3.4v.4c0 .2 0 .4.2.4.1 0 .1.1.2.2v.7c-.2.1-.3.3-.5.4-.3-.3-.5-.6-.9-.9 0-.1-.1-.1-.2-.2-.1.1-.2.2-.2.5v2.9c-.1.1-.5.1-.6 0v-1.8c-.1-.3-.4-.3-.3-.7v-1.1c0-.1.1-.1.2-.2.3-.1.1-.6.3-.7h.3c.2 0 .2-.4 0-.4-.1 0-.1-.1-.2-.2 0-.5 0-.9-.3-1v-.1c.1-.6-.5-.4-.3-1v-.2c-1-2.4-4.2-2.7-6.2-4.2h-.5c-.2-.1-.2-.4-.5-.3h-.6c-.1-.2-.2-.4-.6-.3h-.1V87q-.15 0-.3-.3c-1.4.1-2.5-.1-3.5-.3 0-.8-.8-.9-.9-1.6-.1-.2-.6 0-.6-.3s-.1-.6.1-.8h.1c.4.1.5-.2.6-.3.1 0 .1.1.3.2v.1c0 .2.3 0 .4.1.1 0 .1.1.2.1.3.4.6.8 1 1q0 .3.3.3h2c.1 0 .1.1.2.2 0 .2.1.2.3.2.2-.1.6.1.7-.1s.3-.2.3-.4h.1c0-.1.1-.1.2-.3.1 0 .1 0 .1-.1.1-.5 0-1.8.8-1.4.3.3.2.9.6 1 0 .3.5.1.8.2.3-.1.7.1.9-.1.1 0 .1 0 .1-.1.3-.1.3-.5.7-.4v.1c0 .4-.7.8 0 1v.4c0 .2.4.2.4 0v-.1c0-.1.1-.1.2-.1h.4V85c.2-.2.5-.3.4-.8h.3v1c0 .1-.1.1-.2.2-.4.1 0 .5.2.6v.3c-.3.2-1.2-.1-1.6.2l-.2.5c-.2.2-.5.3-.4.7-.1.3.2.3.5.3.1 0 .1.1.2.1q.15.45.6.6h.3c.3 0 .3-.4.6-.4v-1.2h.3v.6c0 .1 0 .2.1.2.1.2.2.5.5.5h.3q.45-.15.6-.6v-.3c-.2-.2-.5-.4-.3-.9v-.2q-.15-.3-.3-.3v-.4c.1-.1.4-.1.3-.3v-1.3c0-.3-.5-.4-.2-.7.4-.3.7-.7 1-1h4c.2 0 .3 0 .3-.2.2-.3.5-.5.7-.8.2 0 .3-.2.4-.3s.4 0 .4-.2c.4-.1.4-.6 1-.6.1 0 .1.1.2.2 0 .4.1.9-.1 1.1h-.1c-.7.1-.9.7-1.4 1.1-.2 0-.2.1-.2.3-.1.5.5.3.9.3h.9c.1-.1.1-.3.3-.3.3 0 .6.1.5-.3v-.1c-.1-.3.2-.3.3-.4.1-.3-.1-.9.2-1 .7-.1 2-.3 2.2-.6V80c0-.3-.2-.2-.3-.3-.3-.5-.7-.7-1-1.1-.2-.4-.9 0-1 .3-.2 0-.2.2-.3.3h-1.2c-.3 0-.3.2-.4.3-.1 0-.1-.1-.3-.2v-.1c0-.2-.3 0-.4-.1-.1 0-.1-.1-.2-.2-.1-.2.1-.2.1-.4h.1c.2-.1.2-.3.3-.4.3.1.1-.3.3-.3h.8c.1-.1.1-.3.3-.3s.2-.4 0-.4c-.3-.2-.2-.8-.5-.9 0-.2-.3-.2-.5-.2-.4 0-.4-.3-.9-.2h-.7c-.1 0-.1-.1-.2-.2 0-.2-.1-.2-.3-.2h-.9c0-.1-.1-.2-.2-.3h-3c-.2 0-.5 0-.5.2 0 .1-.1.1-.2.2h-.3c-.3 0-.8-.1-.9.2 0 .1-.1.1-.2.2-.2 0-.5 0-.5.2 0 .1-.1.1-.2.2H59c-.1.2-.2.3-.3.4-.3-.1-.1.3-.2.5-.1.1-.4.1-.3.3v.3c0 .1-.1.1-.2.2-.4-.1-.5.1-.6.3h-.1c-.5.1-1.3-.2-1.6.2 0 .1-.1.1-.2.2-.2 0-.5 0-.5.2v.1c-.1.1-.4.1-.3.3v.3c-.1.1-.4.1-.3.3-.1.4.2 1-.2 1.1-.2 0-.5 0-.5.2 0 .1-.1.1-.2.2h-.3v-.1c-.4-.4-2.1-.4-2.6-.1 0 .1-.1.1-.2.2-.3 0-.8-.1-.9.2 0 .1-.1.1-.2.2-.8-.1-1.1.3-1.6.5v.1c-.1.1-.3.1-.3.3 0 .1-.1.1-.2.2-.2 0-.5 0-.5.2v.1c-.1.1-.3.1-.3.3.1.5-.3.4-.3.8-.1 0-.1.1-.2.1-.2 0-.5 0-.5.2 0 .1-.1.1-.2.2-.3 0-.8-.1-.9.2v.1c-.1.1-.4.1-.3.3-.1 0-.1.1-.2.2-.2.3-.4.6-.5 1-.1 0-.1.5 0 .4v.2c.3.3.5.8 1 .9.2-.1.6.1.6-.1.1 0 .1 0 .1-.1.2-.1.2-.2.5-.2.8-.4-.3-1.2 0-1.7h.7c.1.2.3.4.5.5v.3c.2.3.4.5.7.7v.3c.1.2.4.3.2.5-.2 0-.2.1-.3.2-.1 0-.2.1-.3.1h-.3c-.3-.1-.3.4-.1.4.6 0 1 .1 1.6-.1.1-.2.2-.3.5-.3h2.2c.5 0 .4.5 1 .3.1 0 .1.1.2.2 0 .2.1.2.3.2h.5c.1.1.2.3.4.3h.3c.3.3.4.8 1 .7.2 0 .1.3.3.3v.1c.1 0 .1.2 0 .3-1.2-.4-2.2-1.3-3.8-1-.1 0-.2 0-.2.2-.8.4-2.6-.3-3.1.3v.3c-.2.2-1-.1-1 .3 0 .1-.1.1-.2.2-.2.1-.6-.1-.7.1h-.1l-.3.3c-.1 0-.2 0-.2.2-.1.2-.5 0-.5.2-.3-.1-.1.3-.3.3-.3 0-.8-.1-.9.2v.1c-.1.1-.4.1-.3.3-.3.2-.5.4-.7.7v.3c-.1.1-.3.2-.3.3v.1c-.7 0-.8.6-1.6.4-.1-.1 0-.5-.2-.6-.5 0-.9-.8-1.4-.3.1.3-.1.3-.1.5h-.1c-.6.1-1.6-.2-1.9.2v.1c-.2.2-.8 0-.8.4h-.1c-.4.1-1.1-.2-1.2.2 0 .1-.1.1-.2.2-.2.1-.6-.1-.7.1q-.3 0-.3.3h-.1c-.2.1-.6-.1-.7.1-.3-.1-.1.3-.3.3-.3.1-.9-.1-1 .1-.3-.1-.2.2-.3.3-.1 0-.3 0-.3.1-.3-.1-.2.2-.3.3-.1 0-.3 0-.3.1-.1 0-.2 0-.2.2-.1 0-.1.1-.2.2-.3-.1-.2.2-.3.3H29c-.1 0-.1 0-.1-.1s-.1-.1-.2-.3q-.3 0-.3.3c0 .1 0 .1-.1.1-.5.1-1.3-.2-1.6.2v.1c-.2.1-.4.1-.4.3 0 .1 0 .1-.1.1-.6.4-.1 1.4.3 1.5.7 0 1.2.1 1.7 0q.15.15 0 .3c-.2 0-.2.2-.3.3-.1 0-.2 0-.2.2-.2.5-.1 1.3.3 1.4-.1.3.3.1.5.2.1.1.1.4.3.3h.8c0 .1.5.1.4 0h.2q.3-.15.3-.3h.7c.3-.2.5-.4.7-.7h.3c.4.2.3.8.7 1h.3c.2.2 0 .7.3.7h.3c.1.1.3.2.4.3h.1c0 .1.5.1.5 0h.3c.3.1 1.1.1 1.4 0h.1c.4 0 .2-.5.3-.7.1 0 .2 0 .2-.2.2-.1.1-.5.3-.6.1 0 .1 0 .1-.1.1-.2.5-.1.7-.3v-.1c.1-.2.5-.1.7-.3v-.1c.2-.1 0-.7.2-.9h.3q.15.3.3.3c.4.1.8 0 1.4 0q.15.3.3.3h.4c0 .1.5.1.4 0h.7c0 .1.7.1.7 0h.2c.2-.1.3-.4.5-.2 0 .3-.1.3-.2.5-.1 0-.2 0-.2.2h-.1c-.1.6-1 .3-1.5.5-.1 0-.2 0-.2.2-.1 0-.1.1-.2.1h-1.1c-.1.1-.2.4 0 .4h.1c.3.1 1.1.1 1.4 0h.3q.15.3.3.3h.3c0 .1.5.1.5 0h.6c.3 0 .1-.6.3-.7h.1c.2-.1.2-.3.3-.3s.4.1.4-.1v-.1c.1-.1.4-.1.3-.3.2-.1.4-.3.6-.5.6-.2 1.1-.5 2-.3q.15.3.3.3h1q.15.3.3.3h1c0 .1.6.1.6 0h.3c0 .1.5.1.5 0h1q.15.3.3.3c.5-.1 1 .1 1.3 0 .1.1.3.2.4.3h.3c.2.3.4.5.7.7.1 0 .1.1.2.2.3.3.5.6.9.9.2.1.3.4.5.5.1.2.3.2.3.4v.2c.1.4.5.4.3 1v1.7c.2 0 .1.2.3.2v2.8c-.1.1-.3.2-.3.4v.6q-.3.15-.3.3v.3c-.3.4-1 .4-1.2.9h-.2c-.2-.2-.4.3-.6.3h-.3q-.3.15-.3.3h-.2c-1.8-.1-4.2-.1-6 0h-.1c-.1.2-.5.2-.7.3h-.1c-.1-.1-.1.4 0 .3h.1c.9.2 2.5-.2 3 .4.7-.1 1.6.1 2.2-.1.3.1.2-.2.3-.3.5 0 1.2-.1 1.6.1v.1c.1.3-.1.3-.2.4-.1 0-.2 0-.2.2-.1.2-.4 0-.4.2h-.1c-.6.6-2.5 0-3.4.3h-.2c.1-.1-.4-.1-.3 0-.4.1-.3-.4-.6-.3-.3-.1-1.2-.1-1.6 0h-.2q-.3.15-.3.3h-.3q-.3.15-.3.3H47q-.15-.3-.3-.3c-.1 0-.1-.1-.2-.2.1-.1.3-.2.3-.4-.1-.2-.9-.3-1.1-.1-.3 0-.2-.4-.5-.3 0-.1-.5-.1-.4 0h-.1c-.1-.1-.3-.2-.3-.5.3-.2 1.2.1 1.5-.2h.1c.2-.1.3-.2.4-.3.6-.2.8-.2 1.2-.6h.4c.1-.2.2-.3.3-.4h.2c0 .1.5.1.4 0h.1q.3-.15.3-.3h.2c.2.1 1.1.1 1.3 0h.1c.7.8 3 .4 4.2.3.3.1.2-.2.3-.3.6-.2-.1-1.5.6-1.6-.1-.3-.3-.4-.5-.6-.1-.1-.2-.3 0-.3q.3-.15.3-.3c.5 0 .9.1.8.9.1.2.3.4.5.5q.3 0 .3-.3c.4-.3.6-2 0-2.3v-1c0-.3-.2-.3-.3-.4v-.3c.1-.3-.6-.3-.4 0v.3q-.3.15-.3.3v.3q-.3.15-.3.3c-.3.3-.2-.3-.6-.2-.1.1-.2.3-.4.3-.4-.4-.5-1-.8-1.5-.3 0-.5 0-.6.3v2.1c-.3.1-.3.4-.6.4v-.2c-.2 0-.1-.2-.3-.2v-.5c.1-.4-.1-.5-.4-.4-.1.4.1.7 0 1.2-.2.1-.4.3-.5.5h-.2c-.5-.4-.1-1.6-.3-2.4v-.2c-.3-.2-.3-.8-.6-1-.1 0-.1 0-.1-.1v-.1c-.2 0-.1-.2-.3-.2q0-.3-.3-.3c.1-.1-.4-.1-.3 0-.4.1-.1.8-.2 1.2-.2.1-.4.4-.6.5h-.1c-.4-.3-.3-.9-.8-1-.1 0-.3 0-.3.2-.3.2-1 .1-1.1-.2-.1 0-.3 0-.3.2q-.3.15-.3.3c-.1.3 0 1.2 0 1.7-.3.1-.4.6-.7.3 0-.1 0-.2-.2-.2.1-.1-.4-.1-.3 0-.4.1-.1.8-.2 1.1-.2.2-.3.4-.5.5-.2-.1-.2-.3-.4-.4-.1-.6.2-1.6-.2-1.9h-.1c-.2-.2.1-1-.3-1h-.1c-.3-.3-.6.1-.7.3-.3.1-.1.7-.4.8-.1.1-.3.1-.3.3h-.1c-.4-.2-1.3-.1-1.7 0 .1.2-.3.4 0 .4v.2c-.1 0-.1.5 0 .5v.4c-.1 0-.1.1-.2.1 0-.1-.1-.1-.2-.1q-.15-.45-.6-.6c0-.3-.2-.3-.4-.3v.3c-.1 0-.1.2-.1.3-.6.1-.6-.3-.9-.4-.1-.4.2-1.1-.2-1.2h-.1c-.2-.2-.9.1-1.1-.2 0-.3.1-.8-.2-.9h-.1c-.1-.4-.1-1.3 0-1.7.2-.1.4-.3.5-.5.2 0 .1-.6-.1-.5h-.1c0-.1-.7-.1-.7 0-.1 0-.2 0-.2.2-.1 0-.1.1-.2.2-.4.1-.2.4-.2.8-.1 0-.1.6 0 .6v.4c-.1 0-.1.5 0 .5.1.4-.3.3-.3.6-.1 0-.2.1-.3.2h-.3c-.1-.1-.1-.3-.3-.3h-.3c0 .2-.1.4.2.3.2.2 0 .3-.1.4s-.3.1-.3.3c-.1-.1-.3 0-.3-.2 0-.1 0-.3-.1-.3 0-.1 0-.2-.2-.2-.2-.2.1-1-.2-1.2 0-.3-.3-.3-.3-.6l.3-.3v-.1c.1-.1.1-.9 0-1v-.1c-.1-.2-.3-.3-.4-.4h-.1c-.2-.1-.5-.2-.6-.3h-.1c0-.1-.2-.1-.3-.1s-.1-.1-.2-.1c0-.1 0-.2-.2-.2-.2-.1 0-.5-.2-.5 0-.1 0-.2-.2-.2-.2-.2-1.1-.2-1.2.1q0 .15-.3.3c-.2.1-.3.3-.4.4v.1c-.1.3-.1 1.2 0 1.5 0 .4-.6.5-.3.9l-.3.3h-.1c-.6-.2 0-1.7-.3-2.2v-.1c.1.1.1-.4 0-.3 0-.1 0-.2-.2-.2 0-.1-.1-.1-.2-.2 0-.1 0-.2-.2-.2 0-.2-.5 0-.5-.2 0-.1 0-.2-.2-.2 0-.2-.5 0-.5-.2 0-.1 0-.2-.2-.2 0-.2-.2-.2-.2-.5 0-.1 0-.2-.2-.2 0-.2-.2-.2-.2-.4.1 0 .1-.5 0-.4 0-.1 0-.2-.2-.2 0-.1-.1-.1-.2-.2 0-.1 0-.2-.2-.2-.1-.2-.7 0-.9-.2 0-.1 0-.2-.2-.2 0-.2-.5 0-.5-.2 0-.1 0-.2-.2-.2 0-.2-.2-.2-.2-.4.1-.1.1-.8 0-1 0-.4.4-.3.7-.4v-.3c.2-.2.4-.4.5-.6h.3q.3-.15.3-.3h1q.3-.15.3-.3h2.4q.3-.15.3-.3h.3q.3-.15.3-.3h.3c.2 0 .2-.2.3-.3h.7q.3-.15.3-.3h.7q.3-.15.3-.3h.7q.3-.15.3-.3h.7q.3-.15.3-.3h.3c.2 0 .2-.2.3-.3h.7c.3-.3.7-.4.6-1-.1-.1-.3-.2-.6-.2-.1-.2-.3-.3-.4-.4-.6-.4-.5-2.3.1-2.6h.3c.1.2.3.4.5.5v.3c-.1 0-.1.6 0 .6v.1l1.2 1.2h.3q.15.3.3.3h1.4q.3-.15.3-.3h.3q.3-.15.3-.3c.3-.1.9.1 1.1-.1.1 0 .1 0 .1-.1.2-.2.6-.2 1-.2v-.2c.3-.7-.4-1.3-.6-1.9-.1-.1 0-.4 0-.5s-.3-.2-.3-.4c-.2-.9-1.2-1.6-1.8-1-.3.4-.6.6-.9 1-.3.2-.2.6-.5.9-.1 0-.1.1-.2.1-.2 0-.5 0-.5.2 0 .1-.1.1-.2.2h-.7c-.1 0-.1 0-.1-.1-.1-.6.4-.7.4-1.2h.3q.3-.15.3-.3h.3c.5 0 .1-1 .4-1.1.1 0 .1 0 .1-.1.2 0 0-.5.2-.5h.3q.3-.15.3-.3h1c.8-.5 1.1-1.5 1.8-2.1h.1c.7-.1.9-.7 1.3-1h.1c.8-.3 1.3-.8 1.6-1.6 0-.1.2-.1.3-.2.5 0 1.1.1 1.2-.3h.1c.8-.3 1.2-.9 2.1-1.1.2 0 .2-.2.3-.3H50c.1 0 .1 0 .1.1v.1c.1.1.5.3.5 0v-.1h.1c.5-1.4 1.2-2.8 3.5-2.5.2-.3.6-.3.6-.9 0-.2.3-.1.3-.3.2-.1.1-.5.3-.6s.3-.3.4-.4c.6-.4 2 0 2.7-.3.1 0 .1 0 .1-.1.2-.6 1.3-.3 1.6-.9h.1c.1.4.8.3 1.3.3.2 0 .1.3.3.3.3.2 1.1-.1 1.3.3 0 .1 0 .1.1.1.2.2.7 0 1 .1.2 0 .2.2.3.3.6 0 .9.3 1.4.4h.1c.2.4.7.7 1.2.9 0 .1 0 .1.1.1.3.6.4 1.3 1.4 1.1.1 0 .1.1.2.2 0 .1 0 .3.1.3.1.2.3.3.4.4.2.8.9 1.1 1.2 1.7-.1.7.3.9.7 1.1h.9c.3.3.4.7 1 .7.2 0 .2.2.3.3.5.5.9 1.1 1.6 1.5h2c.3 0 .2.1.5 0h.8c.1.2.2.4.6.3h.1c.7.4.7 1.6 1.6 1.7h.1c.1.1.2.3.4.3h.6q.15.3.3.3h1.3c.1.2.2.4.6.3h.1c.1.3.5.3.4.9.2.1.2.2.5.2h.1c.1.2.2.4.5.3h.2c.4.6.7 1.8.1 2.4.2.5 1 .8.6 1.6-2.1-.3-3.1.6-4.3 1.2v.1c-.1-.1-.1.4 0 .3 0 .1 0 .2.2.2h1.7q.15.3.3.3h.3q.15.3.3.3h.3c.3-.2.5-.4.7-.7h4.5c.2.2.4.4.5.8.2.6 1.9.1 2.6.3.7.6.9 1.6 1.7 2.1h.3c.3.4.7.7 1 1h.1c0 .1.5.1.4 0h.9c.2.3.4.5.7.7h.3c.3 0 0 .7.3.8v.3c-.1 0-.1.7 0 .7v.1c-.1.4-1 0-1.2.3-.3-.1-.2.2-.3.3-.1 0-.3 0-.3.1-.1 0-.2 0-.2.2-.1.2-.7-.1-.9.2h-.1c-.4.5-2.1.4-2.4-.1 0 .1-.1.1-.2.3 0 .2-.3.1-.3.3-.1.7-.3 2.2.3 2.5v.1c-.3.4.2 1.5-.3 1.7h-.2c0-.1-.2-.1-.3-.2 0-.1 0-.2-.2-.2 0-.2-.5 0-.5-.2 0-.1 0-.2-.2-.2 0-.1-.2-.1-.3-.1-.2 0-.1-.3-.3-.3 0-.1-.1-.1-.2-.2 0-.1 0-.2-.2-.2 0-.1-.2-.1-.3-.1-.2 0-.1-.3-.3-.3 0-.2-.5 0-.5-.2 0-.1 0-.2-.2-.2.1-.1-.4-.1-.3 0-.1 0-.2 0-.2.2 0 1.1-.4 3.3.3 3.9v.1c-.2.2.1 1-.3 1-.4-.2-.4-.8-.7-1.1.1-.4.1-1.4 0-1.8 0-.1 0-.2-.2-.2-.1-.1-.1-.3-.3-.3H88c-.1-.1-.9-.1-1 0-.3-.1-.2.2-.3.3-.1 0-.3 0-.3.1q-.3 0-.3.3c-.6.1-1.4-.1-1.8.1h-.1c-.2.3-.3.7-.5 1 0 .6.1 1.4-.1 1.8h-.1c-.4.1 0 1-.4 1H83l-.3-.3c-.2-.2-.3-.6-.3-1.1.1.1.1-.4 0-.3v-.4c.1 0 .1-.7 0-.7v-.1c0-.1-.3-.4-.3-.2H82l-.3-.3c-.2-.1-.2-.3-.4-.3-.3-.4-.6-.8-1.2-.9 0-.1 0-.2-.2-.2-.3-.1-1.1-.1-1.4 0h-.1c-.3.2-.3 1.5 0 1.7h.1c.2.7 0 1.8.1 2.6 0 .1 0 .1-.1.1s-.3 0-.3.1c-.1 0-.2 0-.2.2-.1.5-.2 1.9.1 2.3h.1c.1.1.1.3.3.3h.1c1.2.1 3.1.1 4.3 0h.1c.1.1.2.3.3.3.3 0 .7.2.9.6-.2 0-.2.1-.3.1-1-.1-2.6-.1-3.5 0-.1 0-.2 0-.2.2-.2 0 0 .5-.2.5h-.1c-.2.1-.2.3-.3.3h-.3c-.1-.1-.9-.1-1 0-.3 0-.2.3-.4.3-.3 0 0 .7-.3.7h-.2c-.3-.1-1.2-.1-1.6 0h-.3c-.3-.4-.7-.7-1-1-.3.2-.5.4-.8.3-.2.1-.2.3-.3.3h-.3c-.1-.1-.8-.1-1 0H72c-.3.4.8.8 1.5.8.2 0 .1.3.3.3.1.2.5 0 .7.1.1.1.1.2.1.4-.3.3-.5.6-1.1.5q-.15-.3-.3-.3h-.3c-.1-.1-.3-.2-.4-.3h-.3c-.2-.1-.5-.7-.9-.3H71q-.15-.3-.3-.3c-.2-.2-.2 0-.4 0-.3-.1-1.2-.1-1.5 0h-.2v-.1q-.3-.15-.3-.3c-.9.1-2-.1-2.2-.3h-.2c-.1-.2-.3-.3-.4-.4s-.3-.5-.5-.3c-.4-.3-.6-.6-1-.9v-.3c-.1-.3-.5-.3-.3-.8v-.3c-.3-.2-.4-.5-.3-1.1v-5.8q-.15-.3-.3-.3v-2.5q-.15-.3-.3-.3v-2.8c-.1-.4.4-.3.3-.7v-2.3q-.15-.3-.3-.3v-.4c-.2-.2-.6-.1-.8-.3 0-.2-.2-.2-.3-.3 0-.8-.9-.6-.7-1.6 0-.2.3-.1.3-.3.1-.1.3-.1.4 0 2.9-.1 3.1-.2 3.2 0m14.9-9.7c-.8 0-1.2.6-2.3.3h-.1c-.6-.2-1 .2-1.5.3-.4.1-.9-.2-1.1.3 0 .1 0 .1-.1.1-.6.5-1.1 1.2-2.1 1.4-.1 0-.1-.1-.2-.2-.5-.6-.8.5-1.6.2-.1 1.2-1.8 1.3-1.5 2.7-.1.3.3.1.3.3.1.4.5 0 .6-.2h.5c0-.1.1-.2.2-.3h.1q.3-.15.3-.3h1.6q.15 0 .3.3c.3.1.3.8.2 1-1-.1-1.3.5-1.9.7h-2.6c-.7.4-1.2.9-2 1.2.1 1-.6 1.2-.3 2.3v.3c.1.1.3.1.3.3s.4.2.4 0V94c.2 0 .2-.2.4-.1l.5.5c.1.3-.2.9.3.9s.7.4.9.7h.5q.3-.15.3-.3c.3 0 .6.1.5-.3.1 0 .2-.1.3-.1.5-.1.5.3.9.3.1.1.1.4.3.3h.7q.3-.15.3-.3h.7c.3-.2.5-.4.7-.7.4 0 .7 0 .9.2 0 .1 0 .2.2.2h2.1c.1.1.1.4.3.3h1.7c.2-.1.4-.3.5-.5 0-.4.1-.6.5-.5q.3-.15.3-.3h.3q.3-.15.3-.3h.7c.5-.4.9-.8 1.3-1.3 0-.1 0-.1.1-.1.3-.2.5-.4.7-.7h.3q.3-.15.3-.3h.1c.2 0 .4 0 .4-.2v-.3c.2-.1.4-.3.5-.5h.6c.3 0 .3-.2.4-.3.5.1.5-.2.7-.3.2 0 .4-.4.2-.5v-.2c.1 0 .1-.5 0-.4v-.2c0-.3-.6-.1-.9-.2-.1 0-.1 0-.1-.1-.1-.2-.3-.3-.4-.3V88c-.2-.2-.7-.2-.9-.5-.1 0-.1 0-.1-.1-.2-.5-1.3-.2-2-.3-.1 0-.1-.1-.2-.2-.1-.3-.8-.1-1.2-.2-.6.8-1.9.9-2.5 1.7-.2-.1-.6.1-.7-.1 0-.2.2-.2.3-.3v-.1c.1 0 .1 0 .1-.1h.1q.3-.15.3-.3h.5c.4 0 .5-.3.7-.5 0-.1.1-.1.2-.2.2-.1.4-.3.5-.5.2-.4-.1-.6-.3-.8q-.15-.3-.3-.3v-.6c0-.4-.5-.2-.9-.3-.2 0-.1-.3-.3-.3 0-.1-.2-.1-.3-.1.3-.2.3-.2.2-.2m-23.2 2.1c.1-.4-.8-.5-.8-.1 0 .2 0 .3-.1.4h-.1c-.2 0-.2.4 0 .4h.5c.1-.1.1-.3.3-.3s.2-.1.2-.4q0 .15 0 0m36.8 8.6c-.6-.5-1.5.7-2.7.4-.1 0-.1 0-.1-.1v-.1c-.2-.2-1.2-.3-1.2.1 0 .1 0 .1-.1.1-.4.2-1 .8-1.6.6 0-.1 0-.2-.2-.2 0-.2-.5 0-.5-.2 0-.1 0-.2-.2-.2-.3-.1-1.2-.2-1.3.2 0 .1 0 .1-.1.1h-2.8c-.7.4-1.2.9-2 1.2v.4c0 .1 0 .1-.1.1-.3.6-.5 1.3-1 1.7.1.6 0 1.1-.3 1.3-.2.3-.6.4-.7.8q-.3 0-.3.3v.1c-.3.2-.7.4-1.1.4-.3-.1-.2.2-.3.3-.6 0-.8.4-1.3.5 0 .2-.1.6.2.6.2.1.2.4.5.4-.1.3.3.2.6.3 0 .1.5.1.4 0 .4.1.6.4.8.7h.4c.3.1 1.1.1 1.4 0h.1q.3-.15.3-.3h.3q.3-.15.3-.3h.6c0 .1.5.1.5 0h.5c.2.1.2.4.5.4q0 .3.3.3c0 .2.3 0 .4.1 0 .1.1.2.2.3.2.1.1 0 .3 0s.1.4.3.5c0 .1 0 .2.2.2.1.1.1.4.1.6.2.1.3.2.4.3 0 .3.4.3.5.2.4-.3.7-.7 1.1-1 .2 0 .3 0 .4-.1v-.2c.1.1.1-.4 0-.3-.1-.5.5-.5.7-.3 0 .1 0 .2.2.2.2.2.3 0 .6 0 .1.1.4.6.6.3v-.1c.2-.1.2-.2.5-.2.2.1.4-.3.2-.3v-.1c.4-.2.4-.8.7-1.1v-.1c.1-.3.3-.5.5-.8h.7c.1.1.1.4.3.3.4.1.6 0 1.1 0 0 .1.5.1.5 0h.1c.5-.2.6-.8.9-1.2v-.1c.1-.2.1-.5.3-.5v-.1c.2-.1.2-.2.5-.2q.3-.15.3-.3h.5c0 .1.5.1.4 0h.7c0 .1.7.1.7 0 .5-.1.9.2 1.1 0 .2 0 .2-.2.3-.3.5 0 1.1.1 1.6-.1v-.1c.1 0 .1-.7 0-.7 0-.1 0-.2-.2-.2-.7-.3-1.9.1-2.6-.2 0-.3-.3-.2-.3-.4s-.3-.1-.3-.3c-.1-.2.1-.6-.1-.7v-.1c.4-.5-.3-.2-.6-.3h-.1c-.1-.3.1-.9-.1-1.1v-.1c-.2-.3-1.4-.3-1.5.1 0 .1 0 .1-.1.1s-.3 0-.3.1h-.1c-.2.4-1.3.3-1.7.2v-.1c0-.1 0-.1.1-.1.3-.2.8-.6.5-1.2v-.2c-.1-.1-.2-.1-.3-.2M75.8 96c-1-.5-1.2.8-1.9 1-.6.2-1.1-.1-1.9 0-.8-.8-2.3-.1-3.2 0-.2.3-.6.4-.5 1 0 .2 0 .4.2.4.1 0 .1.1.2.2 0 .2 0 .5.2.5.3-.1.3.1.5.1 0 .1 0 .2.1.3h.2c.4 0 .3.1.7 0q.3-.15.3-.3h.3c-.1.1.4.1.3 0 .8-.2.9.4 1.6.4 0 .1 0 .2.1.3h.2c1.1 0 2 .1 2.9 0-.1.1.4.1.3 0h.9c.3-.2.5-.4.7-.7h.3c.2-.1.4-.3.5-.5v-.3q.3-.15.3-.3v-.5c.1 0 .1-.5 0-.4 0-.1 0-.3-.2-.3-.6-.3-2 .2-2.3-.3h-.1c0-.2-.5 0-.5-.2 0-.4-.1-.4-.2-.4m-3.5 3.8c-.7-.4-1.5.2-1.8.3-.6.1-1.3-.2-1.7.3-.6 0-1.3-.1-1.7.1-.1.3-.2 1.2.1 1.4h.3q.15.3.3.3c.7-.1 1.8.2 2.1-.3.2-.1.3-.3.4-.4h.3q.3-.15.3-.3h1c0 .1.5.1.4 0 .5 0 .7.1 1 0 .2-.2.5-.3.5-.7-.5-.2-.9-.5-1.5-.7m-24.9 2c-.1 0-.1.1 0 0-.7.6-1.2 1.1-1.7 1.7-.4 0 0 .8-.3 1 .1 0 .1.1.1.2.2.3.4.5.7.7-.1.3.6.2.4-.1.2 0 .3-.1.5-.1.2-.1.2-.3.3-.3h.4c.1-.5.8-.1.9-.7h.1c.3 0 .1-.6.3-.7q.3 0 .3-.3c.1 0 .1-.1.2-.1.3-.1.3-1.1-.1-1.1-.1 0-.1 0-.1-.1-.3-.3-1.6-.2-2-.1m27.2.9c-.6-1.6-3.1-.9-3.9 0 0 .1 0 .1-.1.1-.2.2-.5.3-.6.7 0 .2 0 .4.2.4h.1c.4 1-.4 3.3.4 3.9v.1c.1.7-.3 1.9.3 2v.1c-.1 1 .3 1.5.5 2.3h.1c.5 0 .4.5.6.7h.1c.3.3.6-.2.8-.3.4-.1.3.4.6.3.5.1 1.6.1 2.2 0 .2 0 .3.1.3.2.6.4 3 .5 3.4-.2h.3c.2-.1.4-.3.5-.5v-4.8c0-.2-.2-.2-.3-.3-.1-.5.2-1.4-.2-1.6-.3-.2-1.2-.1-1.6 0-.2.2-.1.6-.1.9 0 .1 0 .1-.1.1-.4.1-.2.8-.3 1.3 0 .2-.3.1-.3.3-.2.3 0 .8-.3 1v.1c-.2.1-.1.6-.3.3v-1.1q.3-.15.3-.3v-.3q.3-.15.3-.3v-2.1c-.4-.5-.8-.8-1.2-1.3-.3.1-.9-.1-1 .1h-.1c-.3.3-.2 1.5-.1 1.9-.1.3.3.1.3.3-.1.8.1 1.8-.1 2.5-.2 0-.2-.2-.2-.4v-.7q-.15-.3-.3-.3v-1.3c0-.3-.2-.3-.3-.4.2-1 .1-2.7.1-3.4m-19.3.2s0-.1 0 0c-.7-.5-2.9-.7-3.6-.2v.3q-.3.15-.3.3v.7c.5.4.9 1.4 1.6 1.2.9-.4 1.7-.5 2.4-1 .3-.1.3-1.2-.1-1.3.1 0 0 0 0 0m-12.9.9c0-.3-.4-.5-.4-.1-.4.3-1.5-.2-1.7.3v.1c-.1.2-.7-.1-.9.2-.1 0-.2 0-.2.2-.1.2-.5 0-.5.2h-.1l-.3.3c-.5 0 .1.7-.5.7v.6c-.2.3.3.6.5.8h.1c.4.1 1.4.1 1.8 0 .1 0 .3 0 .3-.1 0-.2.2-.2.3-.3.1 0 .1 0 .1-.1.1 0 .1-.1.3-.2.3 0 0-.7.3-.7h.3c.3 0 .2-.2.3-.3.1 0 .2 0 .2-.2.1 0 .2-.1.3-.2h.4v-.2c.2-.2 0-.7-.3-.6.1-.3-.2-.3-.3-.4m26 1.9c.1-.3.1-.2 0-.4-.3-.1-.4.1-.5.3-.3.1-.3.5-.3.9v.3c.1.3.3.4.5.6.3.1.3-.3.3-.5.1-.1.5-.3.3-.4 0-.1 0-.1-.1-.1 0-.1-.1-.1-.2-.3zM35 107c.1 0 .1-.1.2-.1q0-.3-.3-.3c0 .1-.1.1-.1.2v.3c0-.1.1-.1.2-.1m35.6 6.6c-.1-.3-.7-.6-1-.3.2.3.3.7.5 1h.1c.5.2.6.6 1.4.4.1 0 .1 0 .1.1 0 .3.7.3.8 0v-.8c-.3-.1-.6-.1-.8-.3 0-.1-.1-.1-.3-.1 0 .1-.1.1-.1.3-.3 0-.2-.4-.7-.3m3.7 1.7c.2.2.4 0 .3-.3-.2 0-.2-.1-.3 0-.2-.1-.2.4 0 .3"/></g><g fill="#FFF"><path d="M91.7 41.9c.2-.2.3-.4.6-.5v-.1c.1-.2.4-.3.3-.7-.2.1-.2-.1-.4-.1 0 .1-.6.1-.6 0h-.4c0 .1-.5.1-.5 0h-.2q-.15.15 0 .3c.3 0 .2.3.4.3.3.2.5.5.7.7 0 .1 0 .1.1.1M78.8 62.2c.4 0 .4-.3.7-.4v-.1c0-.2.4 0 .5-.1.1-.3.3-.4.5-.5.1-.2.3-.2.3-.4s.4 0 .5-.1c.4-1.6-2.4-1.5-3.6-1.1.1.4 0 .4 0 .9.1 0 .1.5 0 .5v.3c.4.2.8.5 1.1 1 0-.1 0 0 0 0m6.5-.6h.3c.3.2.5.4.7.7h.3c.4.3.7.7 1 1h.7c.2-.3.4-.5.7-.7h.3c.2-.3.4-.5.7-.7h.3c.1-.1.1-.3.3-.3v-.1c-.1-.1-.1-.2-.2-.3h-.1c-.1-.2-.4-.2-.6-.3-.4-.2-.7-.6-1-1-.3 0-.5 0-.6-.3-.2-.1-.3-.3-.4-.4-.7.1-1.7-.1-2.3.1 0 .1-.1.2-.2.2 0 .1-.2.1-.2.3-.1.3-.7.1-.8.3 0 .1 0 .1-.1.1 0 .6.8 1 1.2 1.4m4.4-1.7h.3c.5.4.9.8 1.3 1.3.3 0 .2-.2.4-.3h.3c.4-.5.9-1 1.4-1.4h.3c0-.1.1-.1.1-.2-1.4-.2-3.1 0-4.7-.1.2.4.5.4.6.7m4.1.8c0 .4-.6.2-.8.3 0 .1-.1.2-.2.2-.1.1-.1.2-.1.3h.1c.4.3.7.7 1 1h.3c.4.3.7.6 1 1 .4-.1.5-.5.8-.6h.3c.3-.4.7-.7 1-1h.3c.3-.4.7-.7 1-1h.3q.15-.15 0-.3c-.3.1-.2-.2-.3-.3-.2 0-.5 0-.5-.2s-.4-.1-.3-.4c-.4-.5-1.6-.5-2.4-.3v.1c0 .2-.3.2-.5.2-.2.1-.2.4-.5.4 0 .2-.2.2-.3.3.1.3-.2.2-.2.3m-12.7 1.6c-.4.1-.9.2-.9.7h.1c.3.2.5.4.7.7h.3c.4.3.7.7 1 1h.3q.3.15.3.3h.3c.2.1.4.3.5.5 0 .1 0 .1.1.1.3 0 .2-.2.4-.3.3.1.4-.1.5-.2 0-.1 0-.1.1-.1.1-.2.3-.3.4-.4.3.1.4-.1.5-.2.2-.2.3-.6.8-.5.1 0 .2-.1.2-.2-.4-.4-.9-.7-1.4-1 0-.1 0-.1-.1-.1-.2-.3-.8-.3-1-.6 0-.1 0-.1-.1-.1-.4-.5-1.2-.7-1.6-1.2 0-.1-.1-.2-.2-.2-.3.1-.4.4-.6.5-.2.3-.5.6-.8.8.4.2.3.4.2.5m10.4-11.1h.2c.1-.1.2-.1.3-.2v-.1c.3-.2.4-.4.7-.6 0-.1 0-.1.1-.1 0-.2.2-.1.2-.3-.9.1-2.3-.2-2.9.2.1 0 .2 0 .2.1h.3c.2.3.5.7.9 1m.9.1c.4.8 1.2 1.2 1.7 1.9.7-.4 1-1 1.6-1.5 0-.1 0-.1.1-.1.1-.4.6-.4 1-.6 0-.1 0-.1.1-.1 0-.2.2-.1.2-.3-.2 0-.6.1-.6-.2-.1-.2-.4-.3-.5-.5h-1.7c-.1 0-.1.1-.2.1q-.15.3-.3.3c0 .2-.2.2-.3.3 0 .3-.3.3-.4.2-.4.2-.5.4-.7.5"/><path d="M87.4 69.2c.8 0 2.9-.4 2.8.6-.1.2-.3.2-.3.3v.1c.3.3-.3.5-.3.7v.1c.1 0 .1.5 0 .5v.3c.6.5 1.1 1 1.6 1.6h1c.4-.8 1.2-1.3 1.2-2.4 0-.3-.4-.2-.3-.5-.1-.3-.2-1.2.2-1.2h13.2c.1-.1.2-.4.2-.7-.1.1-.1-.4 0-.3 0-.8-.1-1.2 0-1.8-.1.1-.1-.4 0-.3v-1.7c-.1 0-.1-.6 0-.6-.1-1.3 0-2.9 0-4.4-.1 0-.1-.5 0-.5v-.7c-1.5-.4-3.8-.1-5.6-.2h-.2c-2.4-.1-5.2.2-7.4-.2 0-.2 0-.3.2-.3 0-.1.6-.1.6 0h.2c1.9-.1 4.5-.1 6.4 0h.3c0-.1.7-.1.7 0 .2 0 .2-.1.3 0q.3-.15.3-.3V57c-.1 0-.1-.7 0-.7V56c-.1 0-.1-.5 0-.5v-.2c-.1 0-.1-.5 0-.5v-.2c-.1-.2-.1-1 0-1.2v-.3c-.1-.4-.1-1.4 0-1.7v-.3c-.1-.2-.1-.9 0-1.1v-.3c-.1 0-.1-.6 0-.6v-.3c-2.6-.5-6.1.1-8.8-.3-.1 0-.2-.1-.2-.2-.1.1-.1-.4 0-.3 0-.1.1-.2.2-.2-.1-.1.4-.1.3 0h.3c.3-.1 1.3-.1 1.6 0h.3c.8-.2 2 0 3-.1.3 0-.1-.7.2-.7-.1-.4 0-.5 0-1-.1-.9-.1-2.4 0-3.3v-.1c-.1-.8-.1-2.1 0-2.9v-.1l-.3-.3h-.3c-.1.1-.8.1-.9 0h-.6c0 .1-.6.1-.6 0h-.4c-.1.1-.9.1-1 0h-.6c0 .1-.5.1-.5 0-.2 0-.3.2-.4 0-.1 0-.2-.1-.2-.2-.1 0-.1-.7 0-.7 0-.1.1-.2.2-.2 1.1-.2 2.6 0 3.8-.1h.1c.1-.2-.1-.6.1-.6 0-.4-.1-.6 0-1-.3-1.7.1-4-.2-5.6h-1.1c0 .1-.5.1-.5 0h-.9c0 .1-.5.1-.4 0h-.3c0 .1-.6.1-.6 0-.2 0-.2-.1-.2-.3.5-.4 1.8-.1 2.6-.2h.1c0-.2.1-.2.1-.3-.1 0-.1-.6 0-.6v-.3c-.4.2-.4-.2-.3-.2v-.3c-.1-1.5-.1-3.5 0-5v-.2c-.2-.1 0-.6-.2-.7h-2.4c-.3-.2-.8-.6-.5-1.2v-.1c0-.3.5-.1.6-.3.1-1.2-.2-1.8-.6-2.4v-.1c.9-1.3-.6-2.3-1.3-2.8-.1 0-.1 0-.1.1-.2.3-.4.5-.7.7 0 .2.1.2 0 .3q-.15.3-.3.3v.3c.1 0 .1.5 0 .5v.4c.1 0 .1.5 0 .4.1.3-.2.2-.3.3-.1.2-.3.3-.4.4v.8c.1-.1.1.4 0 .3.1.4.4.6.7.8v.2c.2.2.1.9-.3.9h-2.4c-.3-.1-.3.1-.4.2v.3c.1.3.1 1.3 0 1.6v.2c.1 0 .1.7 0 .7v.4c.1 0 .1.5 0 .5v.2c.1 0 .1.5 0 .4v1c.1 0 .1.5 0 .5.1.8 0 1.3.1 1.9h.1c.8.2 2.7-.4 2.5.4h-.1c0 .1-.7.1-.7 0h-.2c0 .1-.7.1-.7 0h-.4c0 .1-.6.1-.6 0H86l-.3.3v.7c.1 0 .1.5 0 .4.1.7 0 1.4 0 2 .1-.1.1.4 0 .3v3.3c1.1.5 3.1-.1 4.3.3h.1c.2.1.3 1-.1 1h-.4c0 .1-.5.1-.5 0h-.2c0 .1-.5.1-.4 0h-1c-.3.1-1.2.1-1.5 0h-.6c.1.1-.4.1-.3 0h-.4l-.3.3v.8c.1 0 .1.5 0 .5v.9c.1-.1.1.4 0 .3v.9c.1 0 .1.5 0 .5 0 1.7.1 2.4 0 4 .4.2 1.4-.1 1.8.2h.1c1.1-.1 3-.2 4 .1v.1c.2.1 0 .5-.1.5h-.1c-2.9.3-6.3-.1-9.2.2 0 1.4.1 2 0 3.4.1 0 .1.6 0 .6v4.7c.1.2.7 0 .8.2h.1c.2-.1 1.1-.1 1.3 0h.2c2-.1 4.7-.1 6.8 0h.1c.1 0 .1.1.2.1-.1.6-1 .3-1.4.3h-5.2c-2.3 0-5-.1-6.9.1v8.9c0 .6.1 1.7 0 2.2l.5.2c2.6-.1 6.6 0 10 0m4.9 2.6s0 .1 0 0c0 .3-.2.3-.4.3h-.1c-.3.8-1.6 0-1.2-.6v-.1c.4-.3.4.5 1 .3h.3c.1-.1.1-.5 0-.6-.4-.1-1.1.2-1.2-.2 0-.1.1-.2.2-.3q.15-.3.3-.3h.6c.1 0 .1-.2.3-.2 0-.1.1-.2.3-.2 0 .1.1.1.1.3-.1.3-.1 1.3-.2 1.6m-.9-3.3h.5c0 .2 0 .5-.3.4-.3 0-.8.1-.8-.3 0-.1.1-.2.2-.2 0 0 .5 0 .4.1m4-1c-.1.1-.3.1-.3.3-.1.3-1 .2-1.1 0v-.1c0-.1 0-.1-.1-.1h-.7c-.1 0-.1 0-.1.1 0 .4-.7.3-.9.1v-.1c0-.1 0-.1-.1-.1h-.4c-.6.5-1.4.3-2 0-.1 0-.2.1-.2.2-.2.4-1.1.2-1.2-.1v-.1h-.7c-.1 0-.2.1-.2.2-.5.5-1.1-.1-1.6-.2-.1 0-.2.1-.2.2-.4.4-1.3.1-1.4-.3 0-.2 0-.3.2-.3.1-.2.3-.4.5-.5 0-.1 0-.1.1-.1.3-.2.6.4.8.6h.3c.1-.3.4-.4.5-.7.3 0 .4.1.4.3 0 .1 0 .1.1.1q.3.15.3.3h.7c.2-.3.4-.4.6-.7.4.1.5.4.8.7h.3c.1-.2.3-.4.5-.5 0-.1 0-.1.1-.1.3-.2.6.4.8.6h.3c.1-.2.3-.4.5-.5 0-.2.2-.2.3-.1v.1c.1 0 .1.2.3.2.4-.1.5.2.6.3h.3c.1-.2.3-.4.5-.5v-.1c-.1-.1.4-.1.3 0v.1c.3.2.5.4.7.7.4 0 .4 0 .4.1m10.7-1q0 .15 0 0c.2.3.1 1.1 0 1.3-.1.1-.7.2-.7-.1 0-.1-.1-.2-.2-.2-.8-.2-1.4.8-2 .1 0-.1 0-.1-.1-.1-.5 0-1.1.7-1.6.2 0-.1-.1-.2-.2-.2h-.8c.1.4-.7.5-.8.2 0-.1-.1-.2-.2-.2h-.7c0 .4-1 .5-1.2.2 0-.2-.4-.2-.6-.2-.1 0-.3 0-.3.1 0 .3-.7.4-.8.1 0-.1-.1-.2-.2-.2-.5-.3.3-.7.5-1 0-.2.3-.2.3 0 .2.1.4.3.5.5h.3c.1-.2.3-.4.5-.5 0-.2.3-.2.3 0 .2.1.4.4.6.5h.3q.15-.3.3-.3c.2 0 .4 0 .4-.2h.1c-.1-.1.4-.1.3 0 .2.1.4.3.5.5h.3c.2-.2.5-.8.8-.6.1 0 .1 0 .1.1.2.1.4.4.6.5h.2c.3-.2.8-1.1 1.1-.4v.1h.3c.2 0 .2.2.3.3h.3c.9-.1 1.2-.7 1.5-.5m-11-39.8v.3c-.3.1-.5-.2-.3-.3-.1-.3.3-.1.3 0m-.7-1c-.2 0 .2-.4.3-.2.1 0 .1.1.2.1-.1.3-.6.5-.5.1m-.3 1.9c.3-.1.5.4.3.6 0 .2-.4.3-.3 0-.3-.2-.1-.5 0-.6m-.8-3.6c.1-.4 1.3-.4 1.4-.1v.1c.3.4-.4.6-.3 1v.1c.1.1-.4.1-.3 0V25c-.3-.2-1-.5-.8-1m.4 1.5c0 .2.1.2.1.3-.1.1-.2.1-.4.1 0-.1 0-.2-.1-.2 0-.1.1-.3.4-.2m-.7 2.8q0-.15 0 0c-.3-.2-.7-.7-.3-1 .2 0 .4 0 .3.3.1.1.3 0 .3.3.1-.1.1.4 0 .3v.1c.1.1-.4.1-.3 0m.3-2c.2.3-.3.4-.3.6s-.4 0-.4 0c.1-.3.4-.8.7-.6M93 20v.3c-.3.1-.5-.2-.3-.3-.1-.1.3-.1.3 0m-1.8-.6c.1-.2.3-.3.4-.5.3.1.4.3.6.5v.3c-.3-.1-.9.1-1-.1zm1.1 2h-.7c-.2-.6.9-.6.7 0m-1.1 1.8c.1-.2 1-.3 1.1 0 .2.2 0 .2 0 .4.1.1.3.1.3.3v.3c-.4.1-.4-.2-.5-.3h-.7c-.2-.1-.3-.3-.2-.7m1.2 5.1c-.1 0-.1.1-.2.1-.2 0-.3 0-.3-.2-.2-.3.5-.4.5.1m-.1-3.4c-.3.1-.6-.1-.3-.3 0-.2.4-.1.3.1zm-.9.9c.2 0 .1-.3.3-.3.1-.2.4.1.3.3.1 0 .1.1.3.1v.3c-.2 0-.4.1-.3-.2-.3-.3-.4.3-.7.3v.1c.1.1-.4.1-.3 0v-.2c0-.1.2-.2.4-.4m-.8 1.9s0 .1 0 0c-.2.2-.5.8-.8.5v-.1c-.2 0 0-.3-.1-.4.2-.1.3-.2.4-.3v-.1c0-.3.7-.3.7 0v.1c.1 0 .2.1.2.2.1 0 .2.1.2.2.1-.1.1.4 0 .3v.1c-.3.3-.6-.1-.4-.5zm-1.1-2.4c0-.1.1-.2.3-.2 0 .1.1.1.1.2v.3c-.3 0-.5 0-.4-.3m0 2.9c0 .3-.5.2-.4-.1h.1c0-.3.4-.2.3.1m1.1-7.9c-.1-.1 0-.1 0-.3-.1-.1.4-.1.3 0v.3c.1.1-.4.1-.3 0m0 3.5c0-.3.5.2.3.2v.2c-.3.1-.3-.1-.4-.2 0-.1 0-.1.1-.2m-.3 2.4h.2c.1.1.1.2.1.4-.4 0-.6-.3-.8-.6.1 0 .1-.1.2-.1 0-.2.3.1.3.3m-2.2.2c-.1-.8.8-1.4.7-2.4v-.1c.1-.3 1-.3 1 0v.1c.3.5-.5.7-.7 1.1v.3c-.2.1-.2.4-.3.6v.2c-.1.1-.2.1-.3.2 0 .1.1.1.1.3.1 0 .2.1.2.2.2 0 0 .3.1.4.1 0 .1.1.3.1v.3c0 .2-.5.2-.3-.1-.1 0-.1-.2-.3-.2v-.1c-.1 0-.1 0-.1-.1-.2-.2-.1-.6-.4-.8q0 .15 0 0m.2 3.3q-.3-.15-.3-.3h-.1c-.1 0-.1-.2-.1-.3.1-.3.7-.8 1-.3.1.4.3-.1.5-.1 0-.2.6-.1.5.1.1.3.1.1.3.1v-.1c0-.2.5-.3.6-.1v.1c.2.1.3.3.4.1v-.1c0-.2.5-.3.5-.1.1 0 .2.1.2.2q.15.15.3 0v-.1c.1-.3.8-.2.8.1v.1c.1 0 .2-.1.3-.2 0-.1.1-.1.1-.2q.3 0 .3.3c.3.1.1-.4.5-.3 0-.2.5-.1.4.1v.1q.15.15.3 0c0-.1.1-.2.2-.2 0-.2.6-.1.5.1v.2c.1 0 .1.5 0 .5 0 .1-.1.1-.1.3-2.2.1-4.5 0-7.1 0m3.8 2.5h-1c-.1.1-.1.2-.2.3v.1c.1.2.2.3.3.4v.3h-.3c-.2-.1-.2-.3-.4-.4 0-.1-.2-.1-.2-.3-.1 0-.2-.1-.2-.2-.2-.2.3-.3.6-.3.1-.6-.2-1.6.2-2h.1c.1-.1.9-.1 1 0 .3 0 .2.3.2.5.1.1.1.7 0 .8v.3c.3.1 0 .4-.1.5m-2.2 2.1c0 .2.4.1.3.4q.15.15.3 0v-.1c0-.1.1-.2.3-.2 0-.1-.1-.4.1-.4 0-.1.1-.2.2-.2 0-.1.1-.2.2-.2.2-.4.5-.6.9-.9.2-.3.4-.6.8-.8 0 .1.3.2.1.3-.1.2-.3.4-.5.5-.1.1 0 .4-.2.4.1.3-.2.2-.3.3 0 .1.1.1.1.3.1 0 .2.1.2.2.1 0 .2.1.2.2.1 0 .2.1.2.2 0 .6.7.6.7 0-.1-.3.3-.1.3-.3l.6-.6h.1q0-.3.3-.3c0-.3-.4-.3-.4-.6-.2 0-.2-.1-.2-.3.2-.3 1.5-.3 1.7 0 0 .2 0 .3-.2.3 0 .2-.2.2-.2.4.2 0 0 .4.1.5h.1c.1.1.3.1.3.3h.2c0 .1.1.1.1.3.1 0 .1.1.2.1s.2-.1.2-.2c.4-.8.7 1.3.1.9-.1 0-.1 0-.1-.1-.3-.3-.2.3-.3.3v.1l-.3.3c0 .1-.1.2-.2.2-.1.3 0 .8-.5.8v-.1h-.3c0-.4.2-.6.5-.7.2-.1 0-.5.2-.5 0-.1.1-.2.2-.2 0-.1 0-.1.1-.1.1-.1 0-.3.3-.3.2-.2-.1-.3-.2-.4 0-.2-.4-.2-.3-.4-.2-.1-.3-.3-.5-.4-.2.1-.3.3-.5.4 0 .1-.1.2-.2.2-.1.4-.2.7-.5.9 0 .1 0 .1-.1.1-.1.1-.1.3-.3.3v.2c.2.2.5.4.7.7v.2c0 .2-.2.2-.3.1v-.1c0-.2-.4-.1-.3-.4-.2-.2-.3.1-.5.2h-.3c-.1.1-.2.3-.3.3h-.2c-.1 0-.1-.1-.2-.1 0-.3.3-.3.4-.4 0-.3.4-.2.3-.6-.2-.4-.8-.5-.8-1.2-.3 0-.3.4-.6.4 0 .1 0 .1-.1.1 0 .2-.2.2-.3.3-.1.2-.3.2-.3.3v.3c.1.1.3.1.3.3v.1c.1.1.3.1.3.3v.3h-.3c-.2 0-.2-.2-.3-.3-.1 0-.2-.1-.2-.2-.5-.3-.7.8-1 .5h-.2c-.4-.2.2-.8.3-1h.1c.1-.1.1-.6 0-.7-.3-.3-1-.6-.9-1 0-.2.4-.1.3.1v.1c.1-.2.2.1.5.3m-1.3 2h-.3c-.3 0-.4-.6-.1-.7h.3c.1.1.1.2.2.3.2 0 .2.4-.1.4m-1.5-2.2q0-.15 0 0c.2-.3.3-.5.6-.6v-.4h.1c0-.1.1-.2.2-.2.2-.2-.1-.3-.2-.4v-.2c.1-.3 1.3-.3 1.4 0 0 .1 0 .2-.1.3H89c-.4.5-1 .8-1.2 1.5v.3h-.5q-.15.15 0 .3c.1 0 .2.1.2.2.1.1.3.1.3.3v.3h-.3c-.2 0-.2-.2-.3-.3-.3 0-.2-.3-.4-.3-.1 0-.1-.1-.2-.1 0-.6.3-.6.5-.7m3.1 3.4q0 .15 0 0c0 .2-.2.2-.3.2-.1-.1 0-.3-.3-.3v-.1c-.3-.1-.3.1-.4.2v.1c.1.1-.4.1-.3 0v-.1c-.3-.3-.4.4-.7.1v-.1c-.2-.2-.3.1-.5.2s-.2-.2-.3-.3c-.3 0-.2.4-.6.3-.1-.1-.2-.7 0-.9 0-.1.1-.2.2-.2.7-.1 2.4-.4 2.7.3.1 0 .2-.1.3-.2 0-.2.3-.2.3 0 0 .1.1.2.2.2.1-.1.3-.4.3-.3.3-.1.1.3.3.3.1-.3.6-.4.6 0 .2-.1.6-.5.7 0 .3 0 .2-.4.6-.3 0 .1.1.1.1.3.1 0 .1-.1.3-.1.1-.4.4 0 .5.1.2-.3.5-.3.7 0 .1-.3.6-.4.6 0 .1 0 .2-.1.3-.2 0-.1.1-.2.3-.2 0 .1.1.1.1.2s.1.2.2.2c.2 0 .1-.3.3-.3.3-.1.3.1.3.3.3.1.1-.4.5-.3.3 0 .2.7.1.9v.1c-.3.4-.4-.4-.7-.1v.1c.1.1-.4.1-.3 0v-.1q-.15-.15-.3 0v.1c.1.1-.4.1-.3 0v-.1q-.15-.15-.3 0v.1c.1.1-.4.1-.3 0v-.1q-.15-.15-.3 0v.1c.1.1-.4.1-.3 0v-.1q-.15-.15-.3 0v.1c.1.1-.4.1-.3 0v-.1c-.3-.3-.3.3-.7.2v-.2c-.2-.4-.6.5-.7 0q-.15-.15-.3 0c0 .1-.1.2-.2.2s-.2-.1-.2-.2c-.3-.3-.3.3-.7.2 0-.1-.1-.1-.1-.2-.6-.1-.7 0-.8 0m.9 5c.4-.6-.5-1-.8-1.4-.2 0-.2-.2-.3-.3h-.1c-.2 0-.3-.5-.1-.5 0-.1.1-.2.2-.2.1-.2.5 0 .7-.1.1 0 .1 0 .1-.1.1-.5-.1-1.3.1-1.7v-.1c0-.3.9-.2 1-.1h.3v.3c.1.2.1 1.1 0 1.3s.1.2.1.4h.1c.4.1 1.1-.2 1.2.2 0 .2 0 .3-.2.3 0 .1-.1.2-.2.2 0 .1 0 .1-.1.1 0 .1-.2.1-.2.3h-.1c-.3.5-.9.7-1 1.3.1.1.3.2.3.3v.1c.1.1.3.1.3.3q0 .15.3.3c.2 0 .2.4.2.6.2.1.2-.2.3-.2.3-.4.7-.8 1.1-1.1.1-.3.3-.4.5-.5v-.1c0-.1.1-.2.3-.2.2-.9-.8-.7-.7-1.6.4-.3 1.8-.2 2.3-.1.1 0 .2.1.2.2.2.5-.5.8-.7 1 0 .3.1.3.2.5q.45.3.9.9c.1.1.2.1.3.2.2 0 .5-.1.4.2.1.1.2.9-.1.9-.2 0-.3 0-.3-.2-.4-.3-.5.3-.8.4q-.15.3-.3.3c-.2.1-.1.5-.3.6 0 .2-.1.2-.3.2 0 .1-.6.1-.6 0-.3.1-.2-.6.1-.4 0-.1.1-.2.2-.2q.15-.3.3-.3c0-.1 0-.1.1-.1.2-.2.4-.5.7-.7 0-.2.2-.2.2-.4-.2-.3-.4-.4-.6-.7-.1 0-.1 0-.1-.1-.5 0-.3-.9-.7-.7 0 .1 0 .1-.1.1-.2.3-.5.6-.8.8-.1.1 0 .4-.2.4v.1c-.2.3-.5.5-.7.8 0 .4.3.3.3.6.2.1 0 .6.3.5v.1c0 .2 0 .3-.2.3.1.1-.4.1-.3 0-.1 0-.2-.1-.2-.2-.1 0-.2-.1-.2-.2-.1 0-.1 0-.1-.1-.3-.4-.5.1-.8.3v.1c-.1.2-.7.3-.9.1-.2 0-.2-.1-.2-.3s.3-.2.5-.2h.1c.1-.1 0-.3.3-.3 0-.2.2-.2.2-.4-.1-.1-.1-.2-.2-.3h-.1c-.3 0-.1-.6-.3-.7h-.1c-.2 0-.2-.2-.3-.3-.1 0-.2-.1-.2-.2-.7 0-1 1-1.6 1.3.1.5.6.6.8 1 .3-.1.3.5 0 .3.1.1-.4.1-.3 0-.1 0-.2-.1-.2-.2q-.15 0-.3-.3c-.2-.3-.4-.1-.6.1-.4-.1-.4.3-.7.3-.1.1-.9.2-.9-.1 0-.4.3-.4.5-.6.1-.1.1-.3.3-.3h.1c0-.2.5 0 .5-.2s.2-.2.3-.3c.2-.3.4-.5.7-.7 0-.1 0-.1.1-.1q0-.15.3-.3c.6-.1.7-.1.8-.2m-6-.3h.2c.2.1.2.3.3.3.1-.1.3 0 .3-.2s0-.5.2-.5h.1c.1-.1.1-.4.3-.3.1-.1.1-.6 0-.7-.1 0-.2-.1-.2-.2-.2-.2-1 .1-1.2-.2-.1 0-.2-.1-.2-.2.4-.4 3-.3 3.8-.1 0 .2 0 .3-.2.3-.3.3-.5.6-.9.9v.3c.1.1.3.2.3.3.5.5.9 1 1.5 1.4-.1.1 0 .3-.3.3-.1.2-.3-.2-.3-.3h-.1c-.2-.2-.5-.4-.6-.7H88c-.2-.2-.5-.4-.6-.7-.1 0-.2-.1-.2-.2q-.15-.15-.3 0v.2c0 .5-.8.8-1 1.3v.3c.6.5 1.1 1 1.6 1.6.1 0 .1 0 .1.1.1 0 .1.2.1.3-.1.1-.5.2-.5 0-.1 0-.2-.1-.2-.2 0-.2 0-.3-.2-.3v-.1c-.1 0-.1 0-.1-.1-.4-.3-.7-.7-1-1-.2-.2-.2 0-.3.1q.15.15 0 .3c0 .1-.2.1-.3.1-.3-.4-.3-1.8 0-2.1m4.8 4.5c-.3 0-.4.2-.5.3-.4.1-.3-.4-.7-.3-.1.1-.2.3-.3.3h-.3c0-.1-.1-.1-.1-.3-.1 0-.1.1-.3.1v.2h-.3c0-.1-.1-.1-.1-.3-.1 0-.1-.1-.3-.1-.3 0-.3.3-.4.3-.4.1-.3-.3-.5-.3-.3 0-.4.2-.5.3-.3.1-.3-.2-.4-.3-.1 0-.1-.2-.3-.2q0-.3.3-.3c.2 0 .1-.3.3-.3.4-.4.5.5.9.2 0-.1 0-.1.1-.1 0-.1.1-.1.2-.1.1-.1.7-.1.8 0h.2c.2 0 .2.2.3.3.1 0 .1-.1.2-.1 0-.2.1-.2.3-.2.6-.1 2-.3 2.3.3.2-.1.4-.5.7-.3.2.1.3.4.5.2 0-.4.5-.1.5.1h.3c.1-.3.6-.4.6 0 .1 0 .2-.1.3-.2 0-.2.4-.3.4-.1.3 0 .2.2.4.3.2 0 .1-.3.3-.3.4-.1.2.3.5.3.1-.5.7-.3 1 0 .2 0 .1-.3.3-.3h.1c.3-.3.5.2.7.3.2-.3.9-.5 1.4-.3.2 0 .2.1.2.3.1 0 .1.6 0 .6v.2c-.2 0-.4.1-.3-.2-.3-.4-.6.1-.9.2-.2.1-.2-.2-.3-.3-.4.1-.3.4-.5.4-.4.1-.3-.3-.5-.3-.4 0-.3.3-.6.3-.4.4-.5-.5-.9-.2 0 .4-.5.1-.4-.1-.3 0-.2.2-.4.3.1.1-.4.1-.3 0-.2.1-.2-.2-.3-.3-.3-.1-.1.4-.5.3-.1 0-.2-.1-.2-.3-.5-.2-.6.5-1 .2v-.1c-.2-.2-.3.1-.5.2-.4.1-.5-.1-.7-.3-.2 0-.1.3-.3.3-.3.1-.3-.2-.5-.3m-8.1 6.6c.1-.5-.2-1.5.2-1.7h.1c.3.1.4.5.7.6.2-.1-.1-.6.3-.6.4-.2.5-.7 1-.9 0-.1 0-.1.1-.1.1-.2.3-.3.1-.4-.3.1-.2-.2-.3-.3-.6 0-2.4.2-1.8-.4h.1c1.5-.1 3.7-.1 5.2 0h.1c.3.2-.1.6-.4.4h-.1c-.2.3-.5.5-.7.8.2.3.6.5.8.9h.2c.3-.1.6.5.9.7h.1l.3.3h.3q.15 0 .3.3c.3 0 .2-.2.4-.3h.3c.1-.1.2-.1.3-.2.2-.3.5-.5.7-.7 0-.1 0-.1.1-.1 0-.1.2-.1.2-.3 0-.1-.2-.1-.2-.3-.1 0-.1 0-.1-.1-.1 0-.2-.1-.2-.2-.2-.1-.5-.2-.5-.5-.1-.1-.2-.1-.3-.2-.1 0-.1.1-.3.1-.2-.2-.5-.3-.5-.7 0-.2.7-.2.8-.1h.1c.2-.2.7 0 1-.1.1 0 .1 0 .1-.1.1-.5-.1-1.3.1-1.7v-.2h.7c-.1-.1.4-.1.3 0h.2c.4.1.3 1.3.2 1.6 0 .2.1.2.1.3h.1c1.9.1 4-.1 5.7.1h.3c.2-.1 1-.1 1.2 0h.2c0 .5-.4.6-.7.9 0 .1 0 .1-.1.1-.4.5.5.8.7 1.2.1 0 .1 0 .1.1.3.2.5.6.9.8.1 0 .1-.1.2-.1V52c-.3-.3.4-.4.3-.7.1 0 .3 0 .3.1v.1c.1.4.1 1.4 0 1.7v.1c0 .2-.5.3-.5.1-.1 0-.2-.1-.2-.2-.1 0-.2-.1-.2-.2-.1 0-.1 0-.1-.1-.2-.1-.3-.3-.4-.1 0 .1-.1.2-.2.2 0 .1-.1.2-.2.2 0 .1-.1.2-.2.2 0 .1-.2.1-.3.1-.2 0-.1.3-.3.3-.4.2-.4.4-.5.4q.15.15 0 .3c-.1.3-1.3.3-1.4 0 0-.2 0-.3.2-.3.2-.2.4-.5.7-.7h.3c.2-.2.5-.8.8-.7h.3c.3-.3-.3-.4-.3-.7-.1 0-.2-.1-.2-.2-.1-.2-.5 0-.5-.2-.4-.2-.5-.6-1-.7-.1.1-.2.1-.3.2 0 .3-.3.2-.3.4-.1.4-.3.4-.6.4-.4.3-.7.7-1 1-.1.2-.5 0-.5.3v.3c.3.3.6.5.9.9.2 0 .2.1.2.3 0 .3-.6.1-.9.2v-.1c-.1 0-.2-.1-.2-.2-.1-.1-.4-.1-.3-.3-.2 0-.2-.2-.4-.2-.1.1-.2.1-.3.2v.1c0 .3-.6.1-.7.3 0 .1-.1.2-.2.2-.2.1-1.1.2-1.2-.1 0-.2 0-.3.2-.3 0-.1.2-.1.3-.1.1-.1.1-.2.2-.3h.5c.1-.2.3-.3.4-.5 0-.1-.2-.1-.2-.3-.2 0-.1-.2-.3-.2-.1 0-.3 0-.3-.1h-.1c-.2 0-.2-.2-.3-.3-.2-.1-.4-.3-.5-.5-.4-.2-.5.3-.8.5H91c0 .2-.5 0-.5.2 0 .1-.1.2-.2.2-.1.1-.1.3-.3.3q-.15.15-.3 0c0 .1-.1.1-.2.1 0 .3.4.3.4.6h.3c.2.2.6.2.5.7-.1.1-.7.2-.9 0-.3.1-.2-.2-.3-.3-.1 0-.3 0-.3-.1-.1 0-.2-.1-.2-.2-.3-.2-.6.4-1 .3 0 .1-.1.2-.2.2-.2.2-1.5.1-1.2-.2 0-.1.1-.2.2-.2 0-.1.2-.1.2-.3.1-.2.6 0 .7-.3 0-.1 0-.1.1-.1.1-.2.3-.4.5-.5 0-.2-.3-.2-.3-.4-.1-.2-.5 0-.5-.2-.1 0-.2-.1-.2-.2-.1 0-.2-.1-.2-.2H87c-.1-.2-.4-.2-.6-.3q-.3 0-.3-.3c-.1 0-.1 0-.1-.1-.3-.3-.7-.1-.9-.5-.1-.1-.3-.1-.3.1h-.1c0 .1 0 .1-.1.1-.4.6-1.4 1-1.4 1.7h.3c.1-.2.3.2.4.3h.3c.3.2.5.4.7.7h.3q.3.15.3.3c.1 0 .1 0 .1.1.4.5-1.2.5-1.3.2v-.1c-.1 0-.2-.1-.2-.2-.3-.1-.5-.4-.7-.6-.1 0-.3 0-.3-.1-.1 0-.2-.1-.2-.2-.1-.1-.4-.1-.3-.3-.3-.3-.4.3-.7.3.3.6-.2.4-.1 0m8.2 3.1c-.1.1-.9.2-.9-.1v-.1c-.1 0-.1-.1-.2-.1-.4-.1-.4.2-.6.3h-.1c.1.1-.4.1-.3 0h-.2c-.1-.1-.1-.2-.2-.3h-.3c-.1 0-.1.1-.2.1 0 .1-.1.2-.2.2 0 .2-.6.1-.5-.1v-.1c-.1 0-.1 0-.1-.1-.3 0-.2.2-.4.3-.5.4-.5-.4-1-.3-.2 0-.1.3-.3.3-.5.4-.5-.4-1-.3-.2 0-.1.3-.3.3-.2.2-.6 0-.6-.2 0-.1 0-.1-.1-.1-.1-.1-.3-.1-.3-.3.1 0 .1-.1.2-.1h.1c0-.1.2-.1.2-.3s.4 0 .5-.1c.2.1.3.2.4.3h.2c0-.2.3-.1.3-.3.2-.2.3-.1.5-.1.2.1.3.2.4.3h.2c0-.2.3-.1.3-.3s.4 0 .5-.1c.2.1.3.2.4.3.2 0 .3 0 .3-.2s.4-.3.4-.1v.1c.1.1.2.1.3.2.2-.2.5.2.7-.2 0-.2.4-.3.4-.1v.1c.1.2.6 0 .6.2h.3c0-.2.3-.5.5-.3v.1c.1 0 .2.1.3.2-.1-.1.4-.1.3 0 .1-.1.2-.1.3-.2 0-.2.4-.3.4-.1v.1c.3.2.7.2 1 0v-.1c-.1-.1.4-.1.3 0v.1c.2 0 .2.2.4.2.1-.1.3-.2.4-.3.2-.1.1 0 .3 0s.2.3.4.3v.1h.2c0-.2.3-.1.3-.3s.4 0 .5-.1c.2.1.3.2.4.3h.2c.2-.1.2-.3.4-.3.2.1.5-.1.5.1 0 .1.1.2.3.2v.1h.2c.1-.1.3-.2.4-.3h.3c.2 0 .2.3.4.3v.1h.2c.1-.1.3-.2.4-.3.2.1.5-.1.5.1s.3.1.3.3h.2c.1-.1.3-.2.4-.3.2.1.5-.1.5.1 0 .1.2.1.2.3.2 0 .2.1.2.3-.2.2-.5.7-.9.4-.1 0-.2-.1-.2-.2-.1 0-.1-.1-.2-.1h-.3c-.1 0-.1.1-.2.1 0 .1-.1.2-.2.2.1.1-.4.1-.3 0-.1 0-.2-.1-.2-.2-.1 0-.1-.1-.2-.1H98c-.1 0-.2 0-.2.1v.1c0 .2-.5.3-.5.1-.1 0-.2-.1-.2-.2-.1 0-.1-.1-.2-.1h-.3c-.1 0-.1.1-.2.1 0 .1-.1.2-.2.2.1.1-.4.1-.3 0h-.2c-.1-.1-.1-.2-.2-.3h-.3c-.1 0-.2 0-.2.1v.1c0 .2-.5.3-.5.1-.1 0-.2-.1-.2-.2-.1 0-.1-.1-.2-.1h-.3c-.1 0-.1.1-.2.1 0 .1-.1.2-.2.2 0 .2-.3 0-.4.1 0-.1-.1-.2-.2-.3-.1 0-.2.1-.3.2h-.1c-.2.4-.9.1-1-.1v-.1c-.3 0-.2.2-.4.3-.1.1-.9.2-.9-.1.3-.6.1-.2-.1-.1M78 67.6h-.3c-.1-.1-.1-.4.1-.4h.1c.2-.1.2.3.1.4m-.3-2.6v.2c.1-.1.1.4 0 .3.2.2 0 .9-.3.6V66c-.1 0-.1-.2-.1-.3v-4.8c.1-.8-.1-1.7.1-2.3v-.1c1.1-.2 2.6 0 3.8-.1-.1-.1.4-.1.3 0 .8-.1 1.1 0 2 0-.1-.1.4-.1.3 0h1.1c0-.1.5-.1.4 0 1.7-.1 2.7 0 4.5 0 0-.1.5-.1.5 0h.2c.4-.2 0-1.2.3-1.6 0-.1 0-.1.1-.1 0-.2.4 0 .5-.1-.1-.1.4-.1.3 0 .2 0 .3 0 .4.1v.6c.1 0 .1.7 0 .7 0 .1.1.1.1.3.2.2.6.1 1 .1-.1-.1.4-.1.3 0h.8c-.1-.1.4-.1.3 0h6.4c-.1-.1.4-.1.3 0 1.4.1 3-.1 4.2.1v.1c.2.1 0 .5-.1.6h-2.5c-.2 0-.1.3-.3.3 0 .1-.1.2-.2.2v.1c0 .2-.3.2-.5.2-.3.2-.9 1 0 1 .4.3.7.7 1 1h.3c.4.1.4.6.9.6v-.1c.3-.3.5-.6.9-.9.2.1.6-.1.5.2 0 .7.5 3.4-.4 2.9v-.1c0-.1 0-.1-.1-.1-.2 0-.4 0-.5-.1v-.1c-.1-.2-.4-.3-.5-.6-.2-.1-.4-.5-.5-.1-.1.2-.3.4-.5.5-.1 0-.1.1-.2.1v.1c-.2.2-.7.2-.9.5-.1.2-.3.3-.4.4v.4c.1 0 .2 0 .2.1.3-.1.2-.1.4 0v.2c.2.1-.2.3-.4.3h-.3c-.8-.1-1.9.2-2.4-.2v-.1c.3-.3.5-.6.9-.9h.3c.4-.5.9-1 1.4-1.4h.3c.2-.3.6-.5.8-.9-.1-.2-.5 0-.6-.2v-.2c-.1-.1-.4-.1-.3-.3-.1 0-.1-.1-.2-.1s-.3 0-.3-.1c-.1 0-.2-.1-.2-.2-.3-.1-.4-.4-.6-.6-.2-.1-.3-.3-.4-.1 0 .1-.1.2-.2.2 0 .1-.2.1-.3.1-.2.3-.5.5-.8.8q-.15.3-.6.3c-.2 0-.1.3-.3.3 0 .1-.1.2-.2.2v.1c0 .2-.3.2-.5.2-.1 0-.1 0-.1.1-.1.2-.3.3-.4.3v.1c0 .2-.4.2-.6.2.5.8 1.3 1.3 1.9 2h.4v.3c-.3.3-1.5.2-1.9.1-.3-.1-.4-.3-.5-.5-.2-.1-.5-.2-.4-.5h.1V65c-.1 0-.1 0-.1-.1-.1 0-.1.1-.3.1 0 .1-.1.2-.2.2 0 .1-.2.1-.3.1-.2 0-.1.3-.3.3 0 .1-.2.1-.2.3s-.2.2-.3.3v.1c-.3.4-1.4.1-2 .2h-.1c-.2 0-.3 0-.3-.2v-.1c-.1-.3.3-.1.5-.2.2-.3.4-.6.8-.7.3 0 .4-.1.4-.3h.5q.15-.3.3-.3c.1 0 .1 0 .1-.1s-.1-.1-.1-.3H94c-.1-.3-.6-.2-.8-.4-.3-.4-.7-.6-.9-1q-.45-.15-.6-.6c-.1 0-.1.1-.3.1 0 .1-.1.2-.2.2-.1.1-.1.4-.3.3 0 .1-.2.1-.3.1-.2 0-.1.3-.3.3 0 .1-.1.2-.2.2 0 .1-.1.2-.2.2 0 .1-.2.1-.3.1s-.1 0-.1.1c-.1.2-.3.3-.4.3 0 .1-.1.2-.2.2-.1.1-.1.2-.1.3h.1q.3.15.3.3h.3l1.2 1.2v.1c-.3.3-1.7.3-1.8-.1-.3-.3-.7-.6-1-1-.1 0-.1-.1-.2-.1-.3.1-.4.5-.7.6 0 .1-.2.1-.3.1-.2 0-.1.3-.3.3-.1.1-.1.4-.3.3-.5.2-1.4 0-2.1.1h-.1c-.8-.1-2.4.2-2.5-.3 0-.2.3-.2.3-.4-.8-.5-1.2-1.3-2.1-1.6 0-.1 0-.1-.1-.1-.1-.1-.3-.1-.3-.3h-.1c-.3.1-.4.4-.6.5-.1.2-.3.3-.4.4 0-.1-.2.1-.4.3m2.3 2.6c-.1 0-.2.1-.2.2-.5.5-.9-.3-1.4-.3v-.1c0-.2 0-.3.2-.3.1-.2.3-.3.4-.5 0-.1.1-.1.1-.2.3 0 .4.1.4.3l.3.3c.3.1.5.5.2.6m.5-.2s0-.1 0 0c0-.2.1-.2.2-.3.1-.2.3-.3.4-.4v-.1c.3-.5.7.3 1 .5h.3c.1-.2.3-.3.4-.4v-.1c0-.1.1-.1.1-.2.5.2 1.1.6 1 1.1h-.1c-.1 0-.2.1-.2.2-.5.6-.8-.4-1.6-.2h-.1c0 .1-.1.2-.2.3-.6.2-1 0-1.2-.4"/></g><path fill="#FFF" d="M114.6 92.2 65.2 64.5V6.1h.3c15.1.4 29.3 6.6 39.9 17.5s16.4 25.2 16.4 40.4c0 9.7-2.5 19.4-7.2 27.9zM65.9 64.1l48.4 27.2c4.5-8.3 6.9-17.7 6.9-27.3 0-15-5.8-29.2-16.3-39.9-10.3-10.7-24.2-16.8-39-17.3zM13.5 92.4l-.2-.3C8.6 83.5 6.1 73.8 6.1 64c0-15.2 5.9-29.6 16.5-40.5s24.9-17 40.1-17.4h.3v58.4l-.2.1zM62.4 6.8c-14.9.4-28.8 6.5-39.3 17.2S6.8 48.9 6.8 64c0 9.6 2.4 19.1 7 27.5l48.6-27.4zM64 121.9c-10 0-19.9-2.6-28.5-7.5-8.4-4.8-15.5-11.6-20.6-19.8l-.2-.3.3-.2 49.2-27.7.2.1 49.2 27.6-.2.3c-5.1 8.3-12.2 15.2-20.7 20-8.7 4.9-18.6 7.5-28.7 7.5M15.6 94.5c5 8 12 14.6 20.2 19.3 8.6 4.9 18.3 7.4 28.2 7.4s19.7-2.6 28.3-7.5c8.2-4.7 15.2-11.4 20.2-19.4L64.1 67.2z"/><path fill="#FFF" d="M64 125c-16.3 0-31.6-6.3-43.1-17.9C9.4 95.6 3 80.3 3 64s6.3-31.6 17.9-43.1C32.4 9.4 47.7 3 64 3s31.6 6.3 43.1 17.9C118.6 32.4 125 47.7 125 64s-6.3 31.6-17.9 43.1C95.6 118.6 80.3 125 64 125M64 3.9c-16 0-31.1 6.2-42.5 17.6C10.2 32.9 3.9 48 3.9 64s6.2 31.1 17.6 42.5C32.9 117.8 48 124.1 64 124.1s31.1-6.2 42.5-17.6S124.1 80 124.1 64s-6.2-31.1-17.6-42.5S80 3.9 64 3.9"/></svg>