<svg xmlns="http://www.w3.org/2000/svg" xml:space="preserve" x="0px" y="0px" viewBox="0 0 128 128"><path fill="#FFF" d="M88.583 100.504s.75-1.25 1.125.5c0 0 .75 10.125-5.125 16.375-4 4.125-13.25 10-23.625 7.375 0 0 16.625-1.125 20.875-17.625l.5-1.875c-.25 0 3.875-1.125 6.25-4.75m37.875-51c0-.25 0-.375-.125-.625 0 0-.25-1-.875-2.75-.125-.25-.25-.5-.25-.75 0-.125-.125-.25-.125-.25-1.125-2.625-3.25-6.375-6.875-10 0 0 3.875-.25-.375-5 0 0-7-8.25-20.625-14.625-7.25-3.375-15.5-2-14.75 6.125.5 5.625-4.75 7.875-8.875 7.375-4.875-.625-7.875-4.625-7-7.875.875-3.5 2.625-6.25 5.375-8.375 1.875-1.5 3.125-2.5 6.5-3.125 2-.375 4.75-1.125 5.5 1.25 1.375-.75 3.875-5.5-4.25-5.5 0 0-1.25-2.625-4-2.125 0 0-8.125-8-17.25 1.875 0 0-3.5 1.375-3.75 0 .75.625 2.125-1.25.375-2-.875-.375-1.875.625-2 1.375-.125.625.125 2.125 1.875 2.375.5.125 1.375 0 1.375 0l-.625.75c-2.75 1.125-5.25.25-5.75-1.625.625.375 1.375-.125 1.5-.75.25-.75-.25-1.75-1.375-1.875-1.5-.25-2.125 1.5-1.875 3 .5 2.375 2.75 4 5.75 3.5l-.5.75s-3 3.75-5.375 8c-2.5 4.25-12.625 9-10.875-1.25.5-3.25-4.875-7.125-14.5-.625-5 3.5-11.25 8.75-16 17.25 0 0-2 3.25 1.375 3.375 0 0-6.875 3.25-7.25 18.875v3.125c0 1.75.125 3.75.25 4.875 0 0 .75 9.375 2.375 11h.25c.5.375 1.125.5 2-.375 0 .125 2.125 10.625 6.375 19.5 3.5 7 9.875 17.25 7.375 19.75s-6-2.5-5.5-.5c1.125 4.125 5.5 4.75 7.75 3 6-4.75-2.75-16.125-5.5-30.5 5.75-2.5 5.5-11.5 5.5-11.5s8.125-.25 10.625-9.875c0 0 9.875 2.875 14.625-5.75v-.125l.125-.125c1 3 2.875 5.625 5.5 8 0 0-.5 4.125-5.125 5.625 0 0-5.625-2.375-11.875 0-5.625 2.25-3.375 8.25.75 6.75-1.25-.625-1.625-2.625.375-3.125.5.375 1 .625 1.625.75.125 0 5 .875 8.5-.5.25-.125.5-.125.75-.375h.125c.375-.25.625-.5.875-.75 1.25.125 2.125 2 .375 2.875 3.375.75 4.625-2.875 3.25-4.75 0 0 .75-.5 1.75-1.25 0 0 1.125-1 1.875-2.25 0 0 3.375 2.625 9.5 4.125 0 0-3.25 5.375-8 6.375 0 0-6.75-2.25-11.375.625 0 0-2.5 1.375-2.125 4 .25 2 2 3.5 4.375 3.125-1-.5-3.25-3-.375-4.125.5.75 1.125 1.25 2 1.375 0 0 4.25 1 9.5-1.25.25-.125.375-.125.625-.25 0 0 .125 0 .25-.125q.563-.375.75-.75c1.375-.25 3.25.375 2.5 3 1.625-.25 4.25-3.125.375-5.5 0 0 2.25-1.125 4.125-2.75l2.75-2.75c5.375.75 9.375 5.875 9.375 12.125 0 5.125-4.375 11.125-9 12.375.125 0 .375-.125.5-.125l-.625.125h.125c-.75.125-1.5.25-2.5.25-4.75-.125-1.875-5.625-1.875-5.625-.75-.125-1.5.125-2.125.875-.75.875-1 2.5-.75 4.25-.25-.125-.5-.125-.625-.25-4.125-1.75-3.875-4.875-3.875-4.875-1.125.5-1.875 1.875-1.5 4.25.625 3.125 4.625 4.5 7.875 4.875 1.875 1.875 4.875 3.75 11.75 2.625 0 0-3 16-23.25 15.25 0 0-6.125-2.25-5.875-7.375.25-6.875 5-9.25 5-9.25-1.75-.25-6 .25-7.875 5.875-.875 2.5-.625 6.75 1.625 9.625-7.625-2-13.375-7.75-11-15.75.375-1.25 1.125-2.5 2.125-3.625 5.75-5.375 14.25-2.125 14.25-2.125-.375-1.875-2.75-4.375-7-4.625-4.375-.25-12.75 2.375-13.375 12.5-.625 9.25 5.25 16 19.875 18.125l.25.125s8.875 6.25 21.375 2.875c0 0 25.25-5.125 19.875-34 0 0 5.875-19.25-6.5-30.125 7.625 6.25 17 2.625 17 2.625-.625 17.5 6.75 19.75 6.75 19.75l.25-.125s-13.875 29.875-5.75 33.75c2.75 1.25 6 .625 7.625-2.875 1.375-2.875-3 2.75-5.5.375-3-3 .75-10.125 4.375-17.75 5.125-10.25 8.5-17.875 9.125-23 0 0 .75.5 1.625.125l.125.125c2-.5 3.25-8.75 3.5-10.125 1.625-7.375 1.125-13 .375-16.625"/></svg>