<svg xmlns="http://www.w3.org/2000/svg" width="120" height="80" fill="none"><g clip-path="url(#a)"><path fill="#f38020" d="M94.726 54.131s.344-2.501 2.557-2.501c2.156 0 2.525 2.501 2.525 2.501zm7.583.333c-.301-2.648-1.868-5.395-5.268-5.395 0 0-4.575-.002-4.942 6.202-.007.123 0 .248.005.371q.02.482.094.96a8.6 8.6 0 0 0 .303 1.31 6.7 6.7 0 0 0 .632 1.419 5.2 5.2 0 0 0 1.08 1.289 5 5 0 0 0 1.647.919c.375.124.771.219 1.165.257.54.053 1.085-.022 1.609-.151a5.4 5.4 0 0 0 2.278-1.192 4.2 4.2 0 0 0 .736-.811s.423-.64.188-1.28c-.149-.405-.453-.775-.909-.816-.521-.046-.818.355-1.142.688 0 0-.803 1.002-2.377 1.002-.979 0-1.709-.455-2.181-1.202-.311-.493-.499-1.136-.534-1.716h5.846l.527.007c.174.01.355.011.524-.037.211-.059.44-.231.557-.413.268-.418.215-.936.161-1.412zm-.024-2.849.121.34c0 .137.125.344.173.474l.183.499.365.999.72 1.946.831 2.184.432 1.11.32.816c.018.045.124.231.108.272-.212.535-.442 1.068-.742 1.561-.374.614-.89 1.154-1.444 1.609l-.656.493c-.281.175-.573.294-.796.549a1.36 1.36 0 0 0-.34.899c0 .274.064.547.213.779.123.192.29.352.491.46.208.112.477.078.695.007.209-.067.401-.178.587-.293a10.2 10.2 0 0 0 2.221-1.832l.184-.217.201-.263s1.032-1.345 1.643-2.921l1.359-3.627 1.559-4.134.562-1.471c.198-.518.399-1.084.238-1.615-.217-.717-1.206-1.206-1.786-.587-.217.232-.334.537-.446.834l-2.157 5.768c-.044.117-.322.616-.276.739l-2.607-6.852a1.32 1.32 0 0 0-.564-.659c-.385-.213-.907-.114-1.215.192-.286.284-.388.713-.361 1.115.019.282.093.556.184.825zm-48.184-1.123a4 4 0 0 0-.015.485l.005 1.394.001 7.091.018.937c.04.333.153.661.379.915a1.12 1.12 0 0 0 .748.37l.121.005a1.11 1.11 0 0 0 .925-.491c.184-.262.279-.57.321-.884.044-.331.032-.666.029-.999l-.001-4.924c0-.337-.009-.666.067-.997.1-.439.301-.884.64-1.19.316-.284.726-.42 1.147-.438l.109-.002c.422 0 .838.121 1.16.402.28.244.458.576.58.922.172.488.171 1.015.17 1.526l-.002 5.695s.111 1.38 1.249 1.38 1.239-1.269 1.239-1.269v-6.09s.027-2.569 2.146-2.569c1.966-.006 1.789 2.513 1.789 2.513v6.179s.162 1.236 1.245 1.236 1.234-1.212 1.234-1.212v-6.764s-.142-4.642-3.695-4.642c-2.582 0-3.462 2.064-3.487 2.059-.008-.002-.02-.035-.024-.041l-.06-.111-.098-.168-.138-.211-.179-.239-.222-.253-.268-.254a3 3 0 0 0-.314-.24 3 3 0 0 0-.363-.212 3.1 3.1 0 0 0-1.207-.319l-.323-.011a2.2 2.2 0 0 0-.774.149 3 3 0 0 0-.414.203 3 3 0 0 0-.372.26 4 4 0 0 0-.388.362 5 5 0 0 0-.393.479l-.047.066s-.148-1.431-1.254-1.431c-.447 0-.813.246-1.037.623a2 2 0 0 0-.198.45 1.6 1.6 0 0 0-.049.261zm21.398 8.642c-1.551 0-2.808-1.658-2.808-3.703s1.257-3.703 2.808-3.703 2.808 1.658 2.808 3.703-1.257 3.703-2.808 3.703m0-10.082c-2.904 0-5.258 2.852-5.258 6.37s2.354 6.37 5.258 6.37 5.258-2.852 5.258-6.37-2.354-6.37-5.258-6.37m8.579 1.567a1.5 1.5 0 0 0-.188-.741c-.182-.325-.522-.699-1.124-.698-.365 0-.678.188-.885.483a1.8 1.8 0 0 0-.204.386 1.6 1.6 0 0 0-.106.609v.023l.002 1.404v7.79c0 .272-.025.539.051.806.162.565.624 1.014 1.231 1.014 1.067 0 1.2-1.194 1.2-1.194v-5.754a3.4 3.4 0 0 1 .124-.917c.222-.796.765-2.098 2.305-2.098.508 0 .999.164 1.375.51.312.287.527.666.672 1.061.275.749.248 1.532.241 2.315l-.004.695v3.236c0 .398-.062.804.074 1.188.186.528.649.957 1.229.957.419 0 .765-.223.969-.582.212-.373.228-.756.229-1.177l-.004-5.069c0-.964-.103-1.906-.425-2.824-.227-.645-.542-1.27-.992-1.788a3.36 3.36 0 0 0-2.613-1.186 3.83 3.83 0 0 0-3.12 1.561c-.008.011-.038.001-.038-.011z"/><path fill="#808083" d="M63.179 77.916c-.016-.112-.004-.239-.004-.348v-12.28a.85.85 0 0 1 .236-.579.83.83 0 0 1 .573-.236l.041-.001a.83.83 0 0 1 .591.224.94.94 0 0 1 .276.683l-.001.705v11.294c0 .19.022.396-.023.579a.84.84 0 0 1-.836.656.874.874 0 0 1-.84-.627l-.015-.071zm3.756 0c-.016-.112-.004-.239-.004-.348v-12.28a.85.85 0 0 1 .236-.579.83.83 0 0 1 .573-.236l.041-.001a.83.83 0 0 1 .591.224.94.94 0 0 1 .276.683l-.001.705v11.294c0 .19.022.396-.023.579a.84.84 0 0 1-.836.656.874.874 0 0 1-.84-.627l-.015-.071zm-17.554-2.317-.061-.255-.121-.511-.24-1.021-.549-2.355-.555-2.351-.04-.14c-.059-.198-.142-.391-.301-.531-.235-.208-.623-.239-.934-.196-.224.031-.454.105-.61.27-.161.171-.218.413-.269.642L44.22 75.84l-1.596-6.413c-.107-.431-.252-.912-.644-1.12-.352-.187-.83-.04-1.047.286-.306.461-.163 1.034-.022 1.526l2.161 7.558c.08.281.173.581.404.761.188.147.438.188.678.199.284.013.594-.02.803-.213.187-.173.252-.438.309-.686l1.452-6.375c.004-.019.029-.017.034.001l1.356 5.63.184.783c.048.206.101.422.241.581.187.213.491.281.775.287.224.005.458-.023.65-.139.297-.179.443-.53.521-.868l.801-2.931 1.324-4.622.108-.435a3 3 0 0 0 .083-.489.9.9 0 0 0-.208-.662.81.81 0 0 0-.665-.274c-.686.046-.843.828-.962 1.362l-1.52 6.258m9.991-.731c-.06.47-.297.902-.64 1.226a2.2 2.2 0 0 1-.554.382 3 3 0 0 1-1.973.187c-.612-.153-.924-.646-.898-1.266a1.48 1.48 0 0 1 .721-1.219c.407-.252.876-.367 1.342-.45.607-.108 1.241-.182 1.819-.41l.191-.084.001.845c.001.261.024.528-.009.787zm2.297 1.912c-.155-.07-.354-.049-.467-.176-.104-.117-.108-.315-.107-.472l.031-4.495c.004-.576.007-1.158-.124-1.719s-.413-1.106-.878-1.446c-.368-.268-.822-.389-1.27-.47-.917-.166-1.881-.186-2.764.112-.662.224-1.274.641-1.677 1.217-.265.379-.511.919-.459 1.406a1 1 0 0 0 .198.514c.276.368.875.481 1.212.168.305-.282.306-.761.507-1.124.28-.506.908-.715 1.486-.746.57-.031 1.178.083 1.602.465s.591 1.08.257 1.543c-.224.309-.608.455-.977.552-.753.198-1.536.265-2.288.464s-1.503.557-1.953 1.192c-.432.61-.532 1.401-.457 2.145.057.561.214 1.129.563 1.572.44.559 1.145.862 1.85.954a4.09 4.09 0 0 0 3.532-1.327 1.45 1.45 0 0 0 .509 1.044c.305.257.72.372 1.115.318s.808-.284.92-.666c.108-.367.002-.865-.361-1.027zm18.415-8.663v-.182l-.004-2.036c0-.099.003-.19.033-.283a1 1 0 0 1 .083-.185.78.78 0 0 1 .424-.34 1 1 0 0 1 .333-.049c.21 0 .418.063.568.215.253.255.266.624.259.962l-.002.727v1.178h.894c.114 0 .226-.009.335.033.32.122.52.406.542.745l.002.075c0 .296-.124.573-.376.736a1 1 0 0 1-.129.069.6.6 0 0 1-.286.051l-.976-.001v6.14s.023.727.819.727 1.21-.056 1.21.816c0 .243-.066.463-.256.625-.204.174-.48.236-.738.229-.311-.008-.611.011-.92-.039a2.4 2.4 0 0 1-.797-.292c-.421-.237-.764-.6-.919-1.063a2.1 2.1 0 0 1-.103-.664v-6.449l-.464.004c-.151 0-.304.014-.452-.024a.9.9 0 0 1-.562-.479.9.9 0 0 1-.076-.371c0-.306.137-.585.395-.752a.76.76 0 0 1 .406-.117l.757-.004zm-8.266 3.973s.244-2.491 2.437-2.491c2.339 0 2.303 2.491 2.303 2.491zm6.519.274c-.244-2.198-1.129-4.477-4.279-4.477-2.604 0-4.52 3.218-3.891 6.565.304 1.617 1.023 3.177 2.868 3.828.303.107.69.137 1.01.169a4 4 0 0 0 2.788-.826c.577-.459 1.423-1.572 1.127-2.392-.121-.336-.361-.504-.732-.538-.423-.038-.686.42-.786.622-.243.491-.429 1.427-2.189 1.427-1.063 0-1.663-.692-2.046-1.311-.253-.409-.367-1.184-.395-1.665h5.091l.428.006a1.3 1.3 0 0 0 .426-.03.87.87 0 0 0 .452-.343c.218-.347.17-.64.126-1.035z"/><path fill="#ed1c24" d="m14.344 46.405-3.629.014.007 2.991-1.714.014L9 52.681h1.729V57.3c.007.208.057 1.514 1.435 2.797 1.592 1.571 3.493 1.542 3.493 1.542l2.725-.007v-3.099H16.13c-1.521 0-1.786-1.836-1.786-1.836l.007-4.002 2.46-.014c1.32-.007 1.571-1.456 1.571-1.456v-1.808l-4.038.007v-3.02zm9.629 3.02c-.559 0-1.56.032-2.98 1.227s-1.664 2.883-1.657 3.296l.004 7.692 3.522.004.004-7.19c0-1.029 1.549-1.764 1.972-1.764l2.069.004-.018-3.267h-2.916zm14.89 0-3.69.011.011 7.391c0 .603-.57 1.807-1.958 1.807s-1.84-1.495-1.84-1.818l.011-5.831c0-1.226-1.216-1.571-1.506-1.571l-2.109.021-.011 7.553c0 .624.086 1.829 1.259 3.152s2.593 1.678 4.282 1.657 2.711-.312 4.078-1.399 1.496-3.228 1.485-3.862l-.011-7.111zm4.127 4.831c.193-.735.879-2.195 2.618-2.078 2.066.14 2.281 2.087 2.281 2.087zm8.138-.787c-.441-1.409-.905-2.054-1.678-2.84-1.237-1.259-3.088-1.549-3.959-1.549s-2.367.215-3.905 1.485-2.076 3.421-2.119 5.121.85 3.604 2.055 4.723 2.711 1.409 4.067 1.399 2.163-.29 3.314-.979 1.958-2.184 1.958-2.184l-3.357-.861c-.269.398-1.022 1.044-2.162 1.011s-1.808-.882-2.098-1.312c-.088-.13-.154-.408-.203-.743l8.304-.01c.016-1.533.054-2.195-.215-3.26z"/><path fill="#ff7b00" d="M88.96 4.527H73.293a2.4 2.4 0 0 0-2.27 1.613l-9.806 28.133a4 4 0 0 1-.47.864l-.145.182a2 2 0 0 1-.339.333l-.026.019a2 2 0 0 1-.544.299l-.023.008-.029.01a2 2 0 0 1-.536.104h18.832a1.5 1.5 0 0 0 .361-.044c.458-.118 1.437-.542 1.849-2.055L89.929 5.89a1.026 1.026 0 0 0-.969-1.363"/><path fill="#ff000f" d="m42.595 30.757.012-.035 7.158-20.345.002-.003.003-.003c.013-.026.018-.048.033-.073.13-.285.472-.594.611-.637l-2.121-7.13A2.16 2.16 0 0 0 46.251 1H31.286c-.704 0-1.21.678-1.009 1.353l8.425 28.313c.348 1.005 1.103 1.527 1.875 1.565.804.034 1.623-.455 2.019-1.475z"/><path fill="#aa0017" d="m50.413 9.663-.005.003zm5.845 22.449-.158-.533-6.135-20.612a1.2 1.2 0 0 1 .071-.893q.049-.093.114-.176l.015-.02a1 1 0 0 1 .215-.195l.028-.018.007-.004c-.139.044-.481.352-.611.637l-.041.076c-.072.147-.117.293-.166.435l-7.001 19.948c-.395 1.02-1.214 1.509-2.017 1.475l-.045.003h15.762l-.036-.122z"/><path fill="#ffcd00" d="m68.567 13.189-.397-1.462c-.106-.402-.231-.79-.448-1.148a2.36 2.36 0 0 0-.86-.853 2 2 0 0 0-.313-.142 2.3 2.3 0 0 0-.639-.104H51.073c-.259 0-.481.068-.66.182l-.033.02a1 1 0 0 0-.215.195l-.015.02a1 1 0 0 0-.114.176 1.2 1.2 0 0 0-.071.892l6.316 21.219.686 2.39c.044.127.408 1.113 1.408 1.425a2.1 2.1 0 0 0 1.144.021l.122-.034.029-.01.023-.008c.055-.019.197-.072.364-.174a2 2 0 0 0 .18-.125 2.4 2.4 0 0 0 .248-.224l.117-.128.145-.182c.283-.388.438-.781.47-.864l.457-1.315.198-.596 6.695-19.173"/></g><defs><clipPath id="a"><path fill="#fff" d="M0 0h120v80H0z"/></clipPath></defs></svg>