<svg xmlns="http://www.w3.org/2000/svg" xml:space="preserve" x="0px" y="0px" viewBox="0 0 141.7 141.7"><circle cx="108.9" cy="76.9" r="13" style="fill:none"/><path d="M32.9 89.9c-7.2 0-13-5.8-13-13V64.4h12.5v-12H19.9V39.9h-12v37c0 13.8 11.2 25 25 25 7.6 0 14.4-3.4 19-8.8-3.7-4.4-6-10-6-16.2 0 7.1-5.9 13-13 13" style="fill:#0f50ec"/><path d="M83.9 76.9c0 7.2-5.8 13-13 13s-13-5.8-13-13V64.4h12.5v-12H57.9V39.9h-12v37c0 6.2 2.3 11.9 6 16.2 4.6 5.4 11.4 8.8 19 8.8s14.4-3.4 19-8.8c-3.8-4.4-6-10-6-16.2" style="fill:#f48a31"/><path d="M108.9 51.9c-4.8 0-9.2 1.3-13 3.6V39.9h-12v37c0 6.2 2.3 11.9 6 16.2 4.6 5.4 11.4 8.8 19 8.8 13.8 0 25-11.2 25-25s-11.2-25-25-25m0 38c-7.2 0-13-5.8-13-13s5.8-13 13-13 13 5.8 13 13-5.9 13-13 13" style="fill:#022d61"/></svg>