<?xml version="1.0" encoding="utf-8"?>
<!-- Generator: Adobe Illustrator 25.3.1, SVG Export Plug-In . SVG Version: 6.00 Build 0)  -->
<svg version="1.1" id="Layer_1" xmlns="http://www.w3.org/2000/svg" xmlns:xlink="http://www.w3.org/1999/xlink" x="0px" y="0px"
	 viewBox="0 0 141.7 141.7" style="enable-background:new 0 0 141.7 141.7;" xml:space="preserve">
<style type="text/css">
	.st0{fill:none;}
	.st1{fill:#0F50EC;}
	.st2{fill:#F48A31;}
	.st3{fill:#022D61;}
</style>
<g>
	<circle class="st0" cx="108.9" cy="76.9" r="13"/>
	<path class="st1" d="M32.9,89.9c-7.2,0-13-5.8-13-13V64.4h12.5v-12H19.9V39.9h-12v12.5v12v12.5c0,13.8,11.2,25,25,25
		c7.6,0,14.4-3.4,19-8.8c-3.7-4.4-6-10-6-16.2C45.9,84,40,89.9,32.9,89.9z"/>
	<path class="st2" d="M83.9,76.9c0,7.2-5.8,13-13,13s-13-5.8-13-13V64.4h12.5v-12H57.9V39.9h-12v12.5v12v12.5c0,6.2,2.3,11.9,6,16.2
		c4.6,5.4,11.4,8.8,19,8.8s14.4-3.4,19-8.8C86.1,88.7,83.9,83.1,83.9,76.9z"/>
	<path class="st3" d="M108.9,51.9c-4.8,0-9.2,1.3-13,3.6V39.9h-12v37c0,6.2,2.3,11.9,6,16.2c4.6,5.4,11.4,8.8,19,8.8
		c13.8,0,25-11.2,25-25S122.7,51.9,108.9,51.9z M108.9,89.9c-7.2,0-13-5.8-13-13s5.8-13,13-13s13,5.8,13,13S116,89.9,108.9,89.9z"/>
</g>
</svg>
